<svg width="473" height="358" viewBox="0 0 473 358" fill="none" xmlns="http://www.w3.org/2000/svg">
<g clip-path="url(#clip0_23_958)">
<path opacity="0.1" d="M311.121 7.66611C397.227 30.0727 447.391 119.305 424.472 205.398C412.64 249.86 386.012 295.436 330.09 323.597C190.616 393.912 6.33177 309.328 27.7169 187.056C49.102 64.7846 143.776 154.471 206.903 47.4544C233.154 2.97555 272.703 -2.30668 311.121 7.66611Z" fill="#08A652"/>
<g opacity="0.15">
<path d="M273.046 121.251C273.046 121.251 269.713 146.608 240.899 148.203L241.619 159.65C241.619 159.65 255.011 158.716 264.649 151.933C264.649 151.933 277.389 150.046 284.775 153.382L286.943 144.704C286.943 144.704 276.661 142.929 269.619 144.087C269.505 144.107 269.388 144.09 269.285 144.038C269.182 143.987 269.098 143.904 269.046 143.801C268.993 143.699 268.974 143.582 268.993 143.469C269.011 143.355 269.065 143.25 269.147 143.169C272 140.305 278.418 133.291 278.983 127.451L273.046 121.251Z" fill="#8570B8"/>
<path d="M283.558 160.294C283.558 160.294 269.499 175.223 247.719 170.764L243.607 180.719C243.607 180.719 256.81 182.949 266.74 182.434C276.67 181.92 286.446 190.152 286.446 190.152L288.845 181.74C288.845 181.74 279.763 176.595 274.1 176.595C268.436 176.595 287.808 168.877 287.808 168.877L283.558 160.294Z" fill="#8570B8"/>
<path d="M247.642 176.535C246.511 179.279 244.703 181.131 243.607 180.676C242.51 180.222 242.544 177.641 243.675 174.897C244.806 172.153 246.605 170.301 247.702 170.755C248.799 171.21 248.773 173.791 247.642 176.535Z" fill="#8570B8"/>
<path d="M243.581 153.785C243.735 156.958 242.904 159.573 241.722 159.633C240.54 159.693 239.451 157.164 239.297 153.991C239.143 150.818 239.974 148.203 241.165 148.143C242.356 148.083 243.435 150.612 243.581 153.785Z" fill="#8570B8"/>
<path d="M289.787 166.656C289.787 166.656 261.102 172.324 247.145 188.951C233.188 205.578 243.272 274.179 239.914 291.157C239.914 291.157 244.309 295.556 251.283 291.157C251.283 291.157 235.776 194.928 289.53 182.666L289.787 166.656Z" fill="#8570B8"/>
<path d="M261.222 205.021C261.222 205.021 249.878 249.08 286.188 265.432C322.498 281.785 389.67 270.432 383.766 174.537C377.863 78.6418 337.021 26.4969 290.275 46.4854C243.53 66.4738 268.487 112.35 277.569 132.339C286.651 152.327 264.855 161.408 261.222 205.021Z" fill="#8570B8"/>
<path d="M383.767 174.58C382.759 156.131 380.026 137.817 375.602 119.879C374.411 176.252 357.027 251.935 273.303 256.832C277.064 260.405 281.411 263.306 286.154 265.407C322.499 281.785 389.67 270.432 383.767 174.58Z" fill="#8570B8"/>
<path d="M335.813 114.408C335.813 114.408 358.423 104.504 355.039 70.9243C352.126 66.547 348.819 62.4453 345.16 58.6705C346.814 65.6678 353.377 98.3988 335.813 114.408Z" fill="#8570B8"/>
<path d="M279.06 135.726C279.06 135.726 300.531 138.564 316.758 128.008Z" fill="#8570B8"/>
<path d="M261.642 201.814C261.642 201.814 292.426 190.461 310.658 206.676Z" fill="#8570B8"/>
<path d="M198.403 121.251C198.403 121.251 201.736 146.608 230.549 148.203L229.83 159.65C229.83 159.65 216.438 158.716 206.8 151.933C206.8 151.933 194.059 150.046 186.674 153.382L184.506 144.704C184.506 144.704 194.788 142.929 201.83 144.087C201.944 144.107 202.061 144.09 202.164 144.038C202.267 143.987 202.351 143.904 202.403 143.801C202.456 143.699 202.475 143.582 202.456 143.469C202.438 143.355 202.384 143.25 202.302 143.169C199.449 140.305 193.031 133.291 192.466 127.451L198.403 121.251Z" fill="#8570B8"/>
<path d="M187.891 160.294C187.891 160.294 201.95 175.223 223.721 170.764L227.842 180.719C227.842 180.719 214.639 182.949 204.709 182.434C194.779 181.92 185.003 190.152 185.003 190.152L182.604 181.74C182.604 181.74 191.686 176.595 197.35 176.595C203.013 176.595 183.641 168.877 183.641 168.877L187.891 160.294Z" fill="#8570B8"/>
<path d="M223.541 176.475C224.535 179.227 226.729 181.114 227.825 180.711C228.922 180.308 228.553 177.761 227.56 175.008C226.566 172.256 224.844 170.352 223.73 170.721C222.616 171.09 222.539 173.722 223.541 176.475Z" fill="#8570B8"/>
<path d="M228.073 153.828C227.953 157.001 228.81 159.616 229.992 159.659C231.175 159.702 232.237 157.172 232.366 153.999C232.494 150.827 231.629 148.211 230.446 148.16C229.264 148.108 228.202 150.655 228.073 153.828Z" fill="#8570B8"/>
<path d="M181.662 166.656C181.662 166.656 210.347 172.324 224.304 188.951C238.261 205.578 228.176 274.179 231.535 291.157C231.535 291.157 227.14 295.556 220.166 291.157C220.166 291.157 235.673 194.928 181.919 182.666L181.662 166.656Z" fill="#8570B8"/>
<path d="M210.227 205.021C210.227 205.021 221.57 249.08 185.26 265.432C148.95 281.785 81.779 270.432 87.6822 174.537C93.5854 78.6418 134.428 26.4969 181.174 46.4854C227.919 66.4738 202.961 112.35 193.88 132.339C184.798 152.327 206.594 161.408 210.227 205.021Z" fill="#8570B8"/>
<path d="M87.6822 174.58C88.6898 156.131 91.4235 137.817 95.8473 119.879C97.0382 176.252 114.422 251.935 198.146 256.832C194.385 260.405 190.038 263.306 185.295 265.407C148.95 281.785 81.779 270.432 87.6822 174.58Z" fill="#8570B8"/>
<path d="M135.636 114.408C135.636 114.408 113.025 104.504 116.41 70.9586C119.323 66.5813 122.629 62.4796 126.288 58.7048C124.635 65.6678 118.072 98.3988 135.636 114.408Z" fill="#8570B8"/>
<path d="M192.389 135.726C192.389 135.726 170.918 138.564 154.69 128.008Z" fill="#8570B8"/>
<path d="M209.807 201.814C209.807 201.814 179.023 190.461 160.791 206.676Z" fill="#8570B8"/>
</g>
<path opacity="0.1" d="M148.257 68.0516C159.537 68.0516 168.682 58.899 168.682 47.6087C168.682 36.3184 159.537 27.1658 148.257 27.1658C136.976 27.1658 127.831 36.3184 127.831 47.6087C127.831 58.899 136.976 68.0516 148.257 68.0516Z" fill="#8570B8"/>
<path opacity="0.1" d="M198.062 21.7519C202.478 17.3315 202.478 10.1646 198.062 5.74426C193.645 1.32388 186.484 1.32389 182.068 5.74426C177.651 10.1646 177.651 17.3315 182.068 21.7518C186.484 26.1722 193.645 26.1722 198.062 21.7519Z" fill="#8570B8"/>
<path opacity="0.1" d="M404.612 358C442.386 358 473.009 351.996 473.009 344.589C473.009 337.182 442.386 331.177 404.612 331.177C366.838 331.177 336.216 337.182 336.216 344.589C336.216 351.996 366.838 358 404.612 358Z" fill="#8570B8"/>
<path d="M309.347 96.4351C309.347 96.4351 338.272 63.9528 352.751 15.5123" stroke="#08A652" stroke-miterlimit="10" stroke-linecap="round"/>
<path d="M328.89 30.8616C328.89 30.8616 326.817 73.2224 313.648 91.0156C313.648 91.0156 340.705 53.9285 368.156 53.7656" stroke="#08A652" stroke-miterlimit="10" stroke-linecap="round"/>
<path d="M359.417 70.83C359.417 70.83 349.222 64.9217 333.131 70.0668" stroke="#8A8AC4" stroke-miterlimit="10" stroke-linecap="round"/>
<path d="M351.072 57.5901C351.072 57.5901 351.586 31.6934 365.937 35.9295C373.006 38.0132 357.824 58.096 351.072 57.5901Z" fill="#08A652"/>
<path d="M363.984 54.666C363.984 54.666 381.933 73.3253 389.593 60.4627C393.371 54.1086 368.593 49.6839 363.984 54.666Z" fill="#08A652"/>
<path d="M320.871 82.9637C320.871 82.9637 345.058 73.7541 346.497 88.6661C347.208 95.9635 322.91 89.3778 320.871 82.9637Z" fill="#8A8AC4"/>
<path d="M350.096 22.1322C350.096 22.1322 350.618 -3.76446 364.969 0.47162C372.038 2.55536 356.856 22.6467 350.096 22.1322Z" fill="#08A652"/>
<path d="M341.682 43.0811C341.682 43.0811 326.688 21.9693 340.748 16.8157C347.662 14.2775 347.414 39.471 341.682 43.0811Z" fill="#08A652"/>
<path d="M327.828 38.8193C327.828 38.8193 308.979 21.0604 321.754 13.2485C328.042 9.40685 332.737 34.1545 327.828 38.8193Z" fill="#08A652"/>
<path d="M323.167 67.4342C323.167 67.4342 301.268 53.6284 312.303 43.5184C317.735 38.5277 327.091 61.9119 323.167 67.4342Z" fill="#8A8AC4"/>
<path d="M105.495 154.085C105.495 154.085 76.5698 121.603 62.0903 73.1624" stroke="#08A652" stroke-miterlimit="10" stroke-linecap="round"/>
<path d="M85.9687 88.5117C85.9687 88.5117 88.042 130.872 101.219 148.666C101.219 148.666 74.1537 111.57 46.7026 111.416" stroke="#08A652" stroke-miterlimit="10" stroke-linecap="round"/>
<path d="M55.4419 128.48C55.4419 128.48 65.6375 122.572 81.7278 127.717" stroke="#08A652" stroke-miterlimit="10" stroke-linecap="round"/>
<path d="M63.7872 115.232C63.7872 115.232 63.2731 89.3435 48.9221 93.5796C41.8537 95.6633 57.0358 115.755 63.7872 115.232Z" fill="#08A652"/>
<path d="M50.8754 112.299C50.8754 112.299 32.926 130.984 25.2664 118.121C21.5309 111.759 46.266 107.325 50.8754 112.299Z" fill="#08A652"/>
<path d="M62.0392 125.702C62.0392 125.702 36.2416 127.777 41.3309 141.857C43.807 148.794 62.9559 132.416 62.0392 125.702Z" fill="#08A652"/>
<path d="M93.9881 140.562C93.9881 140.562 69.8014 131.361 68.362 146.273C67.6509 153.614 91.949 147.028 93.9881 140.562Z" fill="#08A652"/>
<path d="M64.7637 79.7738C64.7637 79.7738 64.2497 53.8857 49.8901 58.1218C42.8217 60.2055 58.0123 80.2968 64.7637 79.7738Z" fill="#08A652"/>
<path d="M73.1772 100.723C73.1772 100.723 88.1708 79.6108 74.1197 74.4658C67.1969 71.9276 67.4454 97.1125 73.1772 100.723Z" fill="#08A652"/>
<path d="M87.0311 96.4608C87.0311 96.4608 105.88 78.7104 93.1056 70.8985C86.8169 67.0569 82.1218 91.796 87.0311 96.4608Z" fill="#08A652"/>
<path d="M91.6919 125.084C91.6919 125.084 113.591 111.279 102.556 101.16C97.1238 96.1779 87.7678 119.562 91.6919 125.084Z" fill="#8A8AC4"/>
<path d="M265.335 119.536C265.335 119.536 262.002 144.893 233.188 146.488L233.908 157.935C233.908 157.935 247.3 157.001 256.938 150.218C256.938 150.218 269.679 148.331 277.064 151.667L279.232 142.989C279.232 142.989 268.95 141.214 261.908 142.372C261.794 142.391 261.677 142.375 261.574 142.323C261.471 142.272 261.387 142.189 261.335 142.086C261.282 141.984 261.263 141.867 261.282 141.754C261.3 141.64 261.354 141.535 261.436 141.454C264.289 138.59 270.707 131.576 271.272 125.736L265.335 119.536Z" fill="#9090D4"/>
<path d="M275.847 158.578C275.847 158.578 261.788 173.508 240.009 169.049L235.896 179.004C235.896 179.004 249.099 181.234 259.029 180.719C268.959 180.205 278.735 188.437 278.735 188.437L281.134 180.025C281.134 180.025 272.052 174.88 266.389 174.88C260.725 174.88 280.097 167.162 280.097 167.162L275.847 158.578Z" fill="#9090D4"/>
<path d="M239.931 174.82C238.8 177.564 236.992 179.416 235.896 178.961C234.799 178.507 234.833 175.926 235.964 173.182C237.095 170.438 238.894 168.586 239.991 169.04C241.088 169.495 241.062 172.076 239.931 174.82Z" fill="#7878B7"/>
<path d="M235.87 152.07C236.024 155.243 235.193 157.858 234.011 157.918C232.829 157.978 231.741 155.449 231.586 152.276C231.432 149.103 232.263 146.488 233.454 146.428C234.645 146.368 235.725 148.897 235.87 152.07Z" fill="#7878B7"/>
<path d="M282.076 164.941C282.076 164.941 253.391 170.609 239.435 187.236C225.478 203.863 235.562 272.464 232.203 289.442C232.203 289.442 236.599 293.841 243.573 289.442C243.573 289.442 228.065 193.213 281.819 180.951L282.076 164.941Z" fill="#F17970"/>
<path d="M253.511 203.306C253.511 203.306 242.168 247.365 278.478 263.717C314.788 280.07 381.959 268.717 376.056 172.822C370.153 76.9268 329.31 24.7819 282.565 44.7704C235.819 64.7589 260.777 110.635 269.859 130.624C278.941 150.612 257.144 159.693 253.511 203.306Z" fill="#F17970"/>
<path d="M376.056 172.865C375.048 154.416 372.315 136.102 367.891 118.164C366.7 174.537 349.316 250.22 265.592 255.117C269.353 258.69 273.7 261.591 278.443 263.692C314.788 280.07 381.959 268.717 376.056 172.865Z" fill="#E66963"/>
<path d="M328.102 112.693C328.102 112.693 350.712 102.789 347.328 69.2093C344.415 64.8319 341.109 60.7303 337.449 56.9555C339.103 63.9528 345.666 96.6837 328.102 112.693Z" fill="#E66963"/>
<path d="M271.349 134.011C271.349 134.011 292.82 136.849 309.047 126.293" stroke="#DC5656" stroke-miterlimit="10" stroke-linecap="round"/>
<path d="M253.931 200.099C253.931 200.099 284.715 188.746 302.947 204.961" stroke="#DC5656" stroke-miterlimit="10" stroke-linecap="round"/>
<path d="M190.692 119.536C190.692 119.536 194.025 144.893 222.839 146.488L222.119 157.935C222.119 157.935 208.727 157.001 199.089 150.218C199.089 150.218 186.348 148.331 178.963 151.667L176.795 142.989C176.795 142.989 187.077 141.214 194.119 142.372C194.233 142.391 194.35 142.375 194.453 142.323C194.556 142.272 194.64 142.189 194.692 142.086C194.745 141.984 194.764 141.867 194.745 141.754C194.727 141.64 194.673 141.535 194.591 141.454C191.738 138.59 185.32 131.576 184.755 125.736L190.692 119.536Z" fill="#9090D4"/>
<path d="M180.18 158.578C180.18 158.578 194.24 173.508 216.01 169.049L220.131 179.004C220.131 179.004 206.928 181.234 196.998 180.719C187.068 180.205 177.293 188.437 177.293 188.437L174.894 180.025C174.894 180.025 183.975 174.88 189.639 174.88C195.302 174.88 175.93 167.162 175.93 167.162L180.18 158.578Z" fill="#9090D4"/>
<path d="M215.83 174.76C216.824 177.512 219.018 179.399 220.114 178.996C221.211 178.593 220.843 176.046 219.849 173.293C218.855 170.541 217.133 168.637 216.019 169.006C214.905 169.374 214.828 172.007 215.83 174.76Z" fill="#7878B7"/>
<path d="M220.363 152.113C220.243 155.286 221.1 157.901 222.282 157.944C223.464 157.987 224.527 155.457 224.655 152.284C224.784 149.112 223.918 146.496 222.736 146.445C221.554 146.393 220.491 148.94 220.363 152.113Z" fill="#7878B7"/>
<path d="M173.951 164.941C173.951 164.941 202.636 170.609 216.593 187.236C230.55 203.863 220.466 272.464 223.824 289.442C223.824 289.442 219.429 293.841 212.455 289.442C212.455 289.442 227.962 193.213 174.208 180.951L173.951 164.941Z" fill="#F17970"/>
<path d="M202.516 203.306C202.516 203.306 213.86 247.365 177.549 263.717C141.239 280.07 74.0681 268.717 79.9713 172.822C85.8744 76.9268 126.717 24.7819 173.463 44.7704C220.208 64.7589 195.25 110.635 186.169 130.624C177.087 150.612 198.883 159.693 202.516 203.306Z" fill="#F17970"/>
<path d="M79.9713 172.865C80.9789 154.416 83.7125 136.102 88.1363 118.164C89.3273 174.537 106.711 250.22 190.435 255.117C186.674 258.69 182.327 261.591 177.584 263.692C141.239 280.07 74.0681 268.717 79.9713 172.865Z" fill="#E66963"/>
<path d="M127.925 112.693C127.925 112.693 105.315 102.789 108.699 69.2436C111.612 64.8662 114.919 60.7646 118.578 56.9898C116.924 63.9528 110.361 96.6837 127.925 112.693Z" fill="#E66963"/>
<path d="M184.678 134.011C184.678 134.011 163.207 136.849 146.98 126.293" stroke="#DC5656" stroke-miterlimit="10" stroke-linecap="round"/>
<path d="M202.096 200.099C202.096 200.099 171.312 188.746 153.08 204.961" stroke="#DC5656" stroke-miterlimit="10" stroke-linecap="round"/>
<path d="M113.651 291.106H107.551V251.035C107.586 250.731 107.56 250.423 107.475 250.128C107.39 249.834 107.248 249.56 107.057 249.321C106.866 249.082 106.63 248.883 106.362 248.736C106.094 248.588 105.799 248.495 105.495 248.462H37.1842C36.8815 248.496 36.5886 248.59 36.3223 248.738C36.056 248.886 35.8217 249.085 35.6328 249.325C35.444 249.564 35.3044 249.838 35.2222 250.132C35.1399 250.425 35.1166 250.732 35.1537 251.035V290.814H29.062V251.035C29.0089 248.821 29.8335 246.677 31.3555 245.07C32.8774 243.463 34.973 242.525 37.1842 242.46H105.495C107.707 242.525 109.803 243.463 111.327 245.07C112.85 246.676 113.676 248.821 113.626 251.035L113.651 291.106Z" fill="#9999CE"/>
<path opacity="0.5" d="M94.1769 216.597H78.2494C77.9877 216.597 77.7285 216.649 77.4868 216.75C77.2451 216.85 77.0256 216.997 76.8409 217.183C76.6562 217.369 76.51 217.589 76.4106 217.831C76.3112 218.074 76.2606 218.333 76.2617 218.595V221.245C76.2626 221.747 76.4528 222.23 76.7944 222.597C77.136 222.965 77.6037 223.189 78.1038 223.226V280.533C78.1722 282.64 79.0566 284.638 80.5699 286.104C82.0833 287.57 84.1069 288.39 86.2132 288.39C88.3194 288.39 90.3431 287.57 91.8564 286.104C93.3698 284.638 94.2541 282.64 94.3226 280.533V223.226C94.8226 223.189 95.2903 222.965 95.6319 222.597C95.9735 222.23 96.1638 221.747 96.1646 221.245V218.595C96.1658 218.333 96.1152 218.074 96.0158 217.831C95.9164 217.589 95.7702 217.369 95.5855 217.183C95.4008 216.997 95.1813 216.85 94.9396 216.75C94.6978 216.649 94.4387 216.597 94.1769 216.597Z" fill="#8570B8"/>
<path d="M81.4022 229.597H90.7068C90.7735 229.596 90.8398 229.608 90.9016 229.633C90.9635 229.658 91.0197 229.696 91.0668 229.743C91.114 229.79 91.1512 229.846 91.1762 229.908C91.2012 229.97 91.2135 230.036 91.2123 230.103V277.034C91.2123 278.399 90.6707 279.708 89.7066 280.672C88.7426 281.637 87.435 282.179 86.0716 282.179C84.7083 282.179 83.4007 281.637 82.4367 280.672C81.4726 279.708 80.931 278.399 80.931 277.034V230.12C80.9262 229.989 80.9728 229.861 81.0607 229.763C81.1487 229.665 81.2712 229.606 81.4022 229.597Z" fill="#6ECEF9"/>
<path opacity="0.5" d="M66.5114 216.597H50.5925C50.063 216.597 49.5553 216.808 49.1809 217.183C48.8065 217.557 48.5962 218.065 48.5962 218.595V221.245C48.5972 221.748 48.7886 222.232 49.132 222.6C49.4754 222.968 49.9452 223.191 50.4468 223.226V280.533C50.4468 281.598 50.6565 282.653 51.0638 283.637C51.4711 284.621 52.0681 285.516 52.8208 286.269C53.5734 287.022 54.4669 287.62 55.4502 288.027C56.4336 288.435 57.4876 288.645 58.5519 288.645C59.6163 288.645 60.6703 288.435 61.6536 288.027C62.637 287.62 63.5305 287.022 64.2831 286.269C65.0357 285.516 65.6327 284.621 66.0401 283.637C66.4474 282.653 66.657 281.598 66.657 280.533V223.226C67.1586 223.191 67.6284 222.968 67.9718 222.6C68.3152 222.232 68.5067 221.748 68.5077 221.245V218.595C68.5077 218.065 68.2973 217.557 67.923 217.183C67.5486 216.808 67.0408 216.597 66.5114 216.597Z" fill="#8570B8"/>
<path d="M53.7454 229.597H63.0499C63.184 229.597 63.3126 229.65 63.4074 229.745C63.5022 229.84 63.5554 229.969 63.5554 230.103V277.034C63.5554 278.399 63.0138 279.708 62.0498 280.672C61.0857 281.637 59.7782 282.179 58.4148 282.179C57.0514 282.179 55.7439 281.637 54.7798 280.672C53.8157 279.708 53.2741 278.399 53.2741 277.034V230.12C53.2707 230.055 53.2801 229.989 53.3019 229.928C53.3238 229.866 53.3575 229.809 53.4013 229.761C53.4451 229.712 53.498 229.673 53.557 229.645C53.6161 229.617 53.6801 229.6 53.7454 229.597Z" fill="#F49D69"/>
<path d="M112.812 240.033H29.4902C27.413 240.033 25.729 241.718 25.729 243.797V248.162C25.729 250.241 27.413 251.927 29.4902 251.927H112.812C114.889 251.927 116.573 250.241 116.573 248.162V243.797C116.573 241.718 114.889 240.033 112.812 240.033Z" fill="#4B4B73"/>
<path d="M245.945 19.6345C248.408 17.1698 248.408 13.1738 245.945 10.7091C243.483 8.24437 239.49 8.24436 237.027 10.7091C234.565 13.1737 234.565 17.1698 237.027 19.6345C239.49 22.0992 243.483 22.0992 245.945 19.6345Z" stroke="#7575B7" stroke-miterlimit="10" stroke-linecap="round"/>
<path d="M403.781 75.7692C406.601 75.7692 408.888 73.481 408.888 70.6585C408.888 67.8359 406.601 65.5477 403.781 65.5477C400.961 65.5477 398.675 67.8359 398.675 70.6585C398.675 73.481 400.961 75.7692 403.781 75.7692Z" stroke="#7575B7" stroke-miterlimit="10" stroke-linecap="round"/>
<path d="M27.9136 195.263C30.9514 195.263 33.4141 192.798 33.4141 189.757C33.4141 186.717 30.9514 184.252 27.9136 184.252C24.8757 184.252 22.4131 186.717 22.4131 189.757C22.4131 192.798 24.8757 195.263 27.9136 195.263Z" stroke="#7575B7" stroke-miterlimit="10" stroke-linecap="round"/>
<path d="M0.428223 290.42H469.993" stroke="black" stroke-miterlimit="10" stroke-linecap="round"/>
<path d="M412.829 349.116L438.643 346.81C438.697 346.806 438.749 346.792 438.797 346.768C438.844 346.744 438.887 346.711 438.921 346.67C438.956 346.629 438.981 346.582 438.997 346.53C439.012 346.479 439.017 346.425 439.012 346.372L438.103 336.082C438.093 335.974 438.04 335.874 437.957 335.803C437.874 335.733 437.767 335.698 437.658 335.705L426.434 336.785C426.36 336.793 426.289 336.819 426.228 336.863L412.126 347.298C411.961 347.436 411.843 347.622 411.79 347.831C411.736 348.039 411.749 348.259 411.826 348.459C411.904 348.66 412.042 348.831 412.222 348.949C412.402 349.067 412.614 349.125 412.829 349.116Z" fill="#303942"/>
<path d="M415.785 346.518L435.362 344.803C436.022 345.167 436.784 345.302 437.53 345.189" stroke="white" stroke-width="0.38" stroke-miterlimit="10" stroke-linecap="round"/>
<path d="M418.286 342.676L420.308 343.217" stroke="white" stroke-width="0.38" stroke-miterlimit="10" stroke-linecap="round"/>
<path d="M420.565 340.901L422.587 341.45" stroke="white" stroke-width="0.38" stroke-miterlimit="10" stroke-linecap="round"/>
<path d="M422.776 339.272L424.798 339.812" stroke="white" stroke-width="0.38" stroke-miterlimit="10" stroke-linecap="round"/>
<path d="M380.837 347.144L406.728 348.336C406.836 348.341 406.941 348.303 407.021 348.231C407.102 348.158 407.15 348.058 407.157 347.95L407.628 337.66C407.631 337.606 407.624 337.551 407.606 337.5C407.588 337.449 407.559 337.401 407.522 337.361C407.486 337.321 407.441 337.289 407.391 337.267C407.342 337.244 407.288 337.232 407.234 337.231L395.984 336.708C395.91 336.707 395.836 336.724 395.77 336.76L380.391 345.206C380.191 345.312 380.031 345.481 379.937 345.688C379.843 345.894 379.819 346.125 379.87 346.346C379.921 346.567 380.043 346.765 380.218 346.91C380.393 347.054 380.61 347.136 380.837 347.144Z" fill="#303942"/>
<path d="M384.118 344.974L403.755 345.875C404.357 346.328 405.093 346.567 405.846 346.552" stroke="white" stroke-width="0.38" stroke-miterlimit="10" stroke-linecap="round"/>
<path d="M387.117 341.502L389.044 342.308" stroke="white" stroke-width="0.38" stroke-miterlimit="10" stroke-linecap="round"/>
<path d="M389.61 340.052L391.538 340.858" stroke="white" stroke-width="0.38" stroke-miterlimit="10" stroke-linecap="round"/>
<path d="M409.042 145.004L401.279 147.577C399.123 148.302 397.183 149.556 395.636 151.225C394.088 152.894 392.983 154.923 392.42 157.129L387.562 176.209L378.583 178.661L382.628 196.875C382.913 198.206 383.557 199.434 384.49 200.426C385.422 201.418 386.607 202.137 387.918 202.504C389.228 202.871 390.614 202.873 391.925 202.51C393.237 202.146 394.424 201.431 395.359 200.442L395.608 200.176L390.467 278.818L434.814 280.85L427.959 150.106L409.042 145.004Z" fill="white"/>
<path d="M399.017 206.444L394.134 337.403L408.87 338.166L421.722 229.417L414.979 208.837C414.979 208.837 409.864 210.106 399.017 206.444Z" fill="#4B4B73"/>
<path d="M415.399 284.306L421.765 229.374L415.022 208.794C412.921 209.134 410.778 209.12 408.682 208.751L415.399 284.306Z" fill="#3C3C58"/>
<path d="M413.094 209.583L423.607 337.514L439.097 337.205L439.774 206.882L413.094 209.583Z" fill="#4B4B73"/>
<path d="M430.281 136.009C429.33 137.626 428.076 139.044 426.588 140.185C425.852 140.777 425.972 140.236 428.79 134.534C431.609 128.832 428.91 119.776 423.924 116.432C418.038 112.488 416.273 130.692 408.648 134.277C401.725 137.527 398.298 119.888 401.673 112.05C403.344 108.174 405.1 105.799 407.628 103.998C411.201 101.535 415.562 100.489 419.863 101.066C425.449 101.709 429.63 103.964 431.858 107.068C433.58 109.366 441.848 122.195 430.281 136.009Z" fill="#252D34"/>
<path d="M430.358 125.419C431.138 117.47 432.5 114.314 424.361 113.8C419.22 113.491 417.387 111.476 414.808 110.241C413.565 109.649 409.29 111.956 407.885 111.399C406.48 110.841 402.496 113.671 402.462 120.883C402.462 125.17 401.956 129.346 402.05 131.087C402.367 138.376 404.458 140.914 409.384 142.732C409.391 142.733 409.398 142.735 409.403 142.739C409.409 142.742 409.414 142.747 409.418 142.753C409.422 142.758 409.425 142.765 409.427 142.771C409.428 142.778 409.428 142.785 409.427 142.792L408.031 151.213C407.448 156.726 410.695 161.503 416.247 162.12C421.799 162.737 426.049 158.398 426.734 152.876L430.358 125.419Z" fill="#F49C81"/>
<path d="M403.49 125.367C403.473 125.611 403.553 125.851 403.713 126.035C403.873 126.219 404.099 126.332 404.342 126.349C404.585 126.366 404.825 126.286 405.009 126.126C405.193 125.966 405.306 125.739 405.323 125.496C405.328 125.261 405.241 125.033 405.081 124.86C404.922 124.687 404.701 124.583 404.466 124.57C404.349 124.553 404.23 124.561 404.115 124.592C404.001 124.624 403.895 124.679 403.803 124.754C403.711 124.829 403.636 124.922 403.582 125.028C403.528 125.133 403.497 125.249 403.49 125.367Z" fill="#39003D"/>
<path d="M409.427 142.74C412.564 143.536 415.886 143.084 418.697 141.48C418.697 141.48 416.17 145.853 409.042 145.004L409.427 142.74Z" fill="#2C2E38"/>
<path d="M422.382 128.609C422.24 129.599 422.394 130.609 422.826 131.511C423.257 132.413 423.946 133.167 424.805 133.678C425.664 134.189 426.656 134.433 427.653 134.38C428.651 134.327 429.611 133.979 430.412 133.38C431.212 132.781 431.817 131.959 432.151 131.016C432.484 130.073 432.531 129.052 432.285 128.083C432.039 127.113 431.512 126.238 430.769 125.569C430.027 124.899 429.103 124.465 428.114 124.321C426.786 124.132 425.438 124.477 424.364 125.281C423.289 126.084 422.577 127.281 422.382 128.609Z" fill="#F49C81"/>
<path d="M428.636 128.557C428.047 128.526 427.46 128.648 426.931 128.911C426.403 129.174 425.951 129.569 425.62 130.058C425.517 130.229 425.697 130.444 425.886 130.427C426.528 130.281 427.599 130.152 428.045 130.744" stroke="black" stroke-width="0.75" stroke-miterlimit="10" stroke-linecap="round"/>
<path d="M409.573 125.076C409.573 125.076 406.771 130.118 407.002 130.89C407.131 131.318 408.056 131.558 408.844 131.619" stroke="black" stroke-width="0.75" stroke-miterlimit="10" stroke-linecap="round"/>
<path d="M402.213 121.551C402.445 121.826 403.318 121.551 404.338 121.551C405.358 121.551 406.266 121.783 406.48 121.491C406.583 121.346 406.48 121.054 406.052 120.797C405.546 120.458 404.946 120.287 404.338 120.308C403.729 120.325 403.136 120.509 402.624 120.84C402.256 121.131 402.136 121.406 402.213 121.551Z" fill="#39003D"/>
<path d="M412.975 121.028C413.052 121.414 414.414 121.449 415.99 121.886C417.567 122.323 418.758 122.923 419.023 122.64C419.152 122.503 418.972 122.117 418.526 121.697C417.899 121.164 417.16 120.777 416.364 120.565C415.568 120.352 414.735 120.32 413.926 120.471C413.283 120.617 412.949 120.857 412.975 121.028Z" fill="#39003D"/>
<path opacity="0.5" d="M407.311 146.676C405.833 148.828 404.158 150.838 402.307 152.679L404.586 153.536L401.553 154.643C399.302 160.348 397.707 166.292 396.798 172.359" stroke="black" stroke-width="0.75" stroke-miterlimit="10" stroke-linecap="round"/>
<path d="M425.252 151.118C425.252 151.118 411.055 160.491 408.639 147.928C408.639 147.928 403.293 160.036 399.018 206.402C399.018 206.402 407.183 211.135 421.037 209.497L425.252 151.118Z" fill="#9090D4"/>
<path d="M428.002 145.682L441.179 149.703C442.603 150.139 443.9 150.912 444.961 151.957C446.021 153.002 446.814 154.288 447.271 155.706L458.983 192.279C459.574 194.119 459.708 196.076 459.375 197.98C459.042 199.884 458.251 201.679 457.071 203.209C455.89 204.739 454.355 205.959 452.599 206.763C450.842 207.567 448.917 207.932 446.988 207.825L444.769 207.705L451.675 281.45L422.502 284.477C422.502 284.477 415.039 169.846 428.002 145.682Z" fill="white"/>
<path opacity="0.5" d="M439.174 151.341C439.174 151.341 433.777 153.837 433.52 161.134" stroke="black" stroke-width="0.75" stroke-miterlimit="10" stroke-linecap="round"/>
<path opacity="0.5" d="M428.714 146.874C428.714 146.874 428.714 154.119 429.913 157.258L426.786 158.467L428.654 160.842C428.654 160.842 424.772 165.267 423.256 176.586" stroke="black" stroke-width="0.75" stroke-miterlimit="10" stroke-linecap="round"/>
<path opacity="0.5" d="M450.998 198.032C450.998 198.032 450.227 192.364 442.901 190.795" stroke="black" stroke-width="0.75" stroke-miterlimit="10" stroke-linecap="round"/>
<path d="M311.027 73.8312C318.328 67.6258 327.303 63.7268 336.818 62.6273C346.334 61.5278 355.961 63.2772 364.482 67.6542C373.004 72.0313 380.038 78.8394 384.693 87.2174C389.348 95.5955 391.417 105.167 390.636 114.722C389.856 124.276 386.262 133.385 380.309 140.895C374.357 148.405 366.312 153.98 357.193 156.914C348.075 159.848 338.291 160.01 329.081 157.378C319.87 154.747 311.646 149.441 305.449 142.132C297.14 132.334 293.059 119.634 294.105 106.825C295.151 94.0166 301.238 82.1483 311.027 73.8312ZM365.74 138.333C371.186 133.705 375.138 127.564 377.096 120.688C379.055 113.812 378.932 106.509 376.744 99.7027C374.556 92.8963 370.4 86.8922 364.803 82.4495C359.205 78.0069 352.417 75.3252 345.297 74.7436C338.176 74.1621 331.044 75.7067 324.801 79.1822C318.557 82.6577 313.484 87.9081 310.222 94.2693C306.96 100.631 305.656 107.817 306.475 114.92C307.294 122.023 310.199 128.723 314.822 134.174C317.892 137.794 321.644 140.774 325.865 142.943C330.085 145.111 334.692 146.426 339.42 146.812C344.149 147.199 348.907 146.649 353.423 145.194C357.939 143.739 362.125 141.407 365.74 138.333Z" fill="#3E4956"/>
<path d="M435.508 224.864C436.119 224.344 436.622 223.709 436.989 222.994C437.355 222.28 437.577 221.501 437.642 220.7C437.707 219.9 437.615 219.095 437.369 218.33C437.123 217.566 436.729 216.858 436.21 216.246L368.928 136.918L359.957 144.55C359.914 144.585 359.878 144.629 359.852 144.679C359.825 144.729 359.81 144.783 359.805 144.839C359.8 144.895 359.806 144.951 359.824 145.005C359.841 145.058 359.869 145.108 359.906 145.15L426.914 224.161C427.961 225.393 429.454 226.16 431.065 226.292C432.677 226.424 434.274 225.91 435.508 224.864Z" fill="#3E4956"/>
<path d="M421.147 198.463L411.84 206.372L418.838 214.621L428.145 206.713L421.147 198.463Z" fill="#F17970"/>
<path d="M378.978 178.558L378.738 173.413C378.738 173.413 372.835 164.941 372.74 163.483C372.646 162.026 375.268 154.411 377.881 154.908C380.494 155.406 377.478 158.913 377.478 158.913C377.478 158.913 380.194 155.714 381.711 157.284C383.227 158.853 379.843 161.966 379.843 161.966C379.843 161.966 383.441 159.187 384.804 160.482C386.166 161.777 380.288 169.22 380.288 169.22L386.474 176.543L378.978 178.558Z" fill="#F49C81"/>
<path d="M419.075 187.296C415.925 185.269 413.046 182.848 410.507 180.093C407.217 176.226 406.052 174.682 401.545 175.351L406.686 181.354C406.686 181.354 395.428 181.723 393.997 183.069C392.891 184.098 394.391 185.53 394.391 185.53C394.391 185.53 393.723 187.382 395.093 188.017C395.093 188.017 394.562 189.92 396.13 190.521C396.13 190.521 395.188 192.304 398.7 192.87C402.213 193.436 417.867 195.503 417.867 195.503L419.075 187.296Z" fill="#F49C81"/>
<path d="M400.637 185.71L394.408 185.487" stroke="black" stroke-width="0.75" stroke-miterlimit="10" stroke-linecap="round"/>
<path d="M401.588 188.3L395.359 188.068" stroke="black" stroke-width="0.75" stroke-miterlimit="10" stroke-linecap="round"/>
<path d="M402.445 190.761L396.216 190.529" stroke="black" stroke-width="0.75" stroke-miterlimit="10" stroke-linecap="round"/>
<path d="M444.812 207.714L416.976 201.231L418.569 186.062L442.902 190.795L444.812 207.714Z" fill="white"/>
<path opacity="0.5" d="M434.728 169.838L442.902 190.795L418.569 186.062L416.976 201.231L444.812 207.714" stroke="black" stroke-width="0.75" stroke-miterlimit="10" stroke-linecap="round"/>
<path d="M412.615 126.096C412.591 126.279 412.623 126.464 412.706 126.628C412.788 126.793 412.919 126.928 413.08 127.017C413.24 127.106 413.424 127.145 413.607 127.128C413.79 127.111 413.964 127.04 414.106 126.923C414.248 126.806 414.352 126.649 414.403 126.472C414.455 126.296 414.453 126.108 414.396 125.933C414.34 125.758 414.232 125.603 414.087 125.49C413.942 125.377 413.766 125.311 413.583 125.299C413.466 125.283 413.348 125.292 413.234 125.324C413.121 125.357 413.016 125.412 412.925 125.487C412.834 125.561 412.76 125.654 412.706 125.759C412.653 125.864 412.622 125.979 412.615 126.096Z" fill="#39003D"/>
<path d="M413.223 133.797C412.797 134.154 412.304 134.422 411.773 134.585C411.241 134.747 410.682 134.799 410.13 134.74" stroke="black" stroke-width="0.75" stroke-miterlimit="10" stroke-linecap="round"/>
<path d="M429.964 111.03C429.964 111.03 430.941 107.934 427.274 104.761C423.607 101.589 420.282 100.054 413.043 101.1C400.371 102.918 400.371 108.603 401.271 109.906C401.271 109.906 399.086 110.044 399.617 112.805C400.105 115.326 411.432 116.509 415.664 116.063C420.574 115.549 429.458 114.76 429.964 111.03Z" fill="#252D34"/>
<path d="M419.152 112.693C419.152 112.693 418.346 119.708 424.695 121.551C427.934 122.486 428.122 124.981 428.122 124.981L431.926 125.307L433.528 116.072L430.238 107.583L419.152 112.693Z" fill="#252D34"/>
</g>
<defs>
<clipPath id="clip0_23_958">
<rect width="473" height="358" fill="white"/>
</clipPath>
</defs>
</svg>
