<svg width="164" height="203" viewBox="0 0 164 203" fill="none" xmlns="http://www.w3.org/2000/svg">
<g opacity="0.2">
<path opacity="0.09" d="M61.5068 153.272L67.3678 149.999C67.6049 149.864 78.6019 143.861 78.8119 143.983L82.586 142.133C84.2935 141.144 86.8005 140.818 88.9687 140.818C90.8016 140.832 92.6028 141.298 94.2131 142.173L120.638 157.236L126.276 160.447L158.359 178.742C159.386 179.321 160.245 180.157 160.852 181.168C161.257 181.876 161.489 182.67 161.53 183.485C161.591 185.606 160.29 187.618 157.939 188.973L152.078 192.239C151.84 192.375 140.843 198.378 140.633 198.256L136.853 200.112C135.152 201.095 132.645 201.42 130.477 201.42C128.642 201.405 126.839 200.94 125.225 200.065L98.8003 185.003L93.1628 181.791L61.0935 163.503C60.0663 162.924 59.2071 162.088 58.6 161.078C58.1913 160.371 57.9589 159.576 57.9224 158.76C57.8547 156.66 59.1556 154.627 61.5068 153.272Z" fill="black"/>
<path opacity="0.18" d="M62.0896 153.74L67.7948 150.589C68.2691 150.311 78.5681 144.897 78.9815 145.134L82.6471 143.623C84.1784 142.736 86.8481 142.682 88.7995 142.682C90.571 142.763 92.3002 143.25 93.8541 144.104L119.52 158.74L124.995 161.864L156.163 179.616C157.149 180.188 157.991 180.978 158.623 181.926C159.032 182.594 159.278 183.348 159.341 184.129C159.463 186.161 158.223 188.126 155.92 189.454L150.214 192.612C149.74 192.883 139.441 198.303 139.028 198.032L135.362 199.55C133.831 200.431 131.161 200.492 129.21 200.492C127.438 200.41 125.709 199.924 124.155 199.069L98.4616 184.44L92.9868 181.317L61.8186 163.564C60.8338 162.991 59.9926 162.201 59.359 161.254C58.9508 160.586 58.7048 159.832 58.6408 159.052C58.546 157.033 59.7859 155.074 62.0896 153.74Z" fill="black"/>
<path opacity="0.27" d="M62.6726 154.207L68.2219 151.172C68.9401 150.758 78.5277 145.927 79.1511 146.286L82.7083 145.141C84.0635 144.355 86.8957 144.565 88.6235 144.565C90.3364 144.709 91.9991 145.215 93.502 146.049L118.389 160.278L123.695 163.307L153.921 180.49C154.868 181.049 155.694 181.793 156.347 182.679C156.759 183.31 157.026 184.025 157.126 184.772C157.309 186.717 156.137 188.634 153.874 189.942L148.324 192.978C147.613 193.391 138.018 198.222 137.395 197.87L133.845 199.042C132.489 199.828 129.657 199.618 127.923 199.618C126.212 199.475 124.551 198.969 123.051 198.134L98.1569 183.905L92.8516 180.876L62.6523 163.639C61.7061 163.078 60.8815 162.334 60.2266 161.45C59.8132 160.82 59.549 160.104 59.4541 159.357C59.2373 157.432 60.4163 155.515 62.6726 154.207Z" fill="black"/>
<path opacity="0.36" d="M63.2623 154.675L68.649 151.754C69.6044 151.205 78.4941 146.957 79.3207 147.431L82.7628 146.598C83.9553 145.92 86.9434 146.388 88.4544 146.388C89.7756 146.388 92.1946 147.384 93.1432 147.926L117.251 161.708L122.394 164.642L151.651 181.357C152.561 181.907 153.37 182.608 154.043 183.431C154.464 184.023 154.751 184.701 154.883 185.416C155.127 187.279 154.023 189.149 151.8 190.43L146.38 193.35C145.424 193.899 136.535 198.147 135.701 197.673L132.259 198.507C131.067 199.184 128.085 198.717 126.568 198.717C125.246 198.717 122.827 197.721 121.886 197.172L97.771 183.397L92.6282 180.456L63.3775 163.74C62.4665 163.193 61.6572 162.491 60.9857 161.667C60.562 161.078 60.275 160.402 60.1455 159.689C59.9355 157.825 61.0331 155.982 63.2623 154.675Z" fill="black"/>
<path opacity="0.45" d="M63.8447 155.135L69.0756 152.337C70.2681 151.659 78.4531 147.98 79.4898 148.576L82.8235 148.082C83.8398 147.492 86.9837 148.244 88.2847 148.244C89.4162 148.244 91.9706 149.369 92.7837 149.837L116.119 163.192L121.093 166.037L149.408 182.231C150.283 182.77 151.076 183.429 151.766 184.19C152.193 184.743 152.498 185.38 152.661 186.06C152.972 187.835 151.936 189.657 149.747 190.918L144.523 193.716C143.324 194.394 135.139 198.073 134.109 197.477L130.775 197.971C129.752 198.561 126.608 197.809 125.307 197.809C124.176 197.809 121.621 196.684 120.815 196.216L97.4793 182.861L92.4992 180.016L64.1903 163.822C63.3134 163.287 62.5191 162.627 61.8323 161.864C61.4011 161.312 61.0937 160.674 60.9312 159.993C60.6263 158.218 61.6629 156.396 63.8447 155.135Z" fill="black"/>
<path opacity="0.55" d="M64.4333 155.603L69.5016 152.893C70.9312 152.066 78.4184 148.983 79.6651 149.701L82.8836 149.539C83.7373 149.051 87.0371 150.067 88.1212 150.067C89.063 150.067 91.753 151.334 92.4305 151.727L114.987 164.648L119.798 167.399L147.144 183.085C147.99 183.605 148.772 184.221 149.475 184.921C149.909 185.438 150.234 186.037 150.431 186.683C150.803 188.37 149.827 190.145 147.72 191.385L142.652 194.096C141.216 194.922 133.735 197.998 132.488 197.287L129.27 197.443C128.416 197.937 125.11 196.914 124.026 196.914C123.084 196.914 120.401 195.654 119.723 195.261L97.1667 182.34L92.356 179.582L64.9822 163.91C64.1401 163.386 63.3604 162.767 62.6581 162.067C62.225 161.551 61.898 160.955 61.696 160.312C61.3098 158.611 62.2854 156.836 64.4333 155.603Z" fill="black"/>
<path opacity="0.64" d="M65.0159 156.064L69.9283 153.502C71.6019 152.54 78.3843 150.04 79.8275 150.873L82.9376 151.056C83.6152 150.657 87.0776 151.951 87.9448 151.951C88.6969 151.951 91.5224 153.353 92.0645 153.665L113.848 166.146L118.49 168.809L144.915 183.966C145.731 184.469 146.5 185.045 147.212 185.687C147.65 186.168 147.994 186.726 148.228 187.333C148.669 188.939 147.754 190.667 145.653 191.88L140.741 194.441C139.067 195.403 132.285 197.904 130.842 197.07L127.732 196.887C127.054 197.287 123.592 195.993 122.725 195.993C121.972 195.993 119.147 194.59 118.605 194.279L96.821 181.798L92.1797 179.135L65.7544 163.978C64.9383 163.475 64.1695 162.898 63.4575 162.257C63.0196 161.775 62.675 161.217 62.4411 160.61C62.0007 159.004 62.9154 157.276 65.0159 156.064Z" fill="black"/>
<path opacity="0.73" d="M65.6001 156.531L70.343 154.085C72.2538 152.981 78.3316 151.07 79.9849 152.052L82.9797 152.567C83.4947 152.269 87.1129 153.834 87.7634 153.834C88.4138 153.834 91.2867 155.366 91.6933 155.603L112.698 167.67L117.177 170.238L142.66 184.881C143.464 185.34 144.222 185.876 144.923 186.48C145.417 186.88 145.79 187.41 146.001 188.011C146.502 189.536 145.655 191.216 143.595 192.402L138.852 194.848C136.941 195.952 130.864 197.87 129.21 196.914L126.215 196.399C125.707 196.691 122.082 195.132 121.432 195.132C120.781 195.132 117.908 193.594 117.502 193.364L96.4973 181.296L92.0185 178.722L66.5148 164.059C65.7151 163.596 64.9599 163.061 64.2585 162.46C63.7591 162.06 63.3832 161.527 63.1744 160.922C62.6933 159.404 63.5402 157.724 65.6001 156.531Z" fill="black"/>
<path opacity="0.82" d="M66.1893 156.999L70.7832 154.668C72.9311 153.428 78.311 152.093 80.1743 153.17L83.054 154.024C83.3928 153.828 87.1736 155.657 87.6073 155.657C88.0409 155.657 91.0764 157.331 91.3474 157.486L111.58 169.12L115.889 171.607L140.431 185.721C141.202 186.169 141.944 186.664 142.653 187.205C143.16 187.563 143.557 188.056 143.798 188.628C144.367 190.064 143.581 191.697 141.562 192.862L136.982 195.193C134.834 196.433 129.454 197.768 127.597 196.691L124.718 195.837C124.372 196.033 120.591 194.204 120.158 194.204C119.724 194.204 116.689 192.53 116.418 192.375L96.1921 180.734L91.876 178.254L67.314 164.113C66.5431 163.665 65.8009 163.169 65.0916 162.629C64.5868 162.269 64.1908 161.776 63.9465 161.206C63.3841 159.797 64.1701 158.164 66.1893 156.999Z" fill="black"/>
<path opacity="0.91" d="M66.7709 157.459L71.209 155.251C73.6008 153.895 78.276 153.123 80.3426 154.315L83.1071 155.515C83.2765 155.413 87.22 157.514 87.4368 157.514C87.6536 157.514 90.8246 159.316 90.9872 159.397L110.44 170.604L114.587 172.996L138.187 186.595C138.288 186.656 140.328 187.869 140.375 187.95C140.891 188.266 141.308 188.719 141.581 189.258C142.212 190.613 141.493 192.192 139.508 193.323L135.07 195.532C132.685 196.887 128.01 197.66 125.943 196.467L123.172 195.281C123.002 195.376 119.066 193.282 118.849 193.282C118.632 193.282 115.461 191.473 115.292 191.392L95.8387 180.185L91.6987 177.793L68.0989 164.194C67.9973 164.14 65.951 162.921 65.9036 162.839C65.3896 162.521 64.9744 162.066 64.7043 161.525C64.0674 160.19 64.7924 158.604 66.7709 157.459Z" fill="black"/>
<path d="M124.311 196.298L95.5146 179.697L66.7179 163.07C64.448 161.755 64.7326 159.465 67.3548 157.947L71.637 155.854C74.266 154.336 78.2366 154.173 80.5132 155.488L109.31 172.108L138.1 188.736C140.377 190.05 140.092 192.341 137.463 193.858L133.181 195.959C130.559 197.45 126.588 197.612 124.311 196.298Z" fill="black"/>
</g>
<path d="M124.312 192.605L73.9686 163.53C68.2838 160.251 63.6831 151.456 63.6831 143.881V9.76945C63.6831 5.92085 60.5188 5.06712 62.4363 3.67132C62.5041 3.61712 66.9286 1.63861 67.0099 1.57763C69.0765 0.784874 71.2854 0.432538 73.9686 1.9774L124.326 31.0519C130.004 34.3314 134.611 43.133 134.611 50.7014V184.833C134.611 188.858 133.31 191.724 131.223 193.039C131.101 193.113 125.803 195.647 125.64 195.695C123.804 196.304 126.819 194.041 124.312 192.605Z" fill="url(#paint0_linear_23_780)"/>
<path style="mix-blend-mode:color-dodge" d="M123.845 31.2213L73.4876 2.17387C70.7773 0.629008 121.067 32.1767 121.067 32.1767C126.745 35.4561 131.352 44.2577 131.352 51.8262C131.352 51.8262 134.13 189.027 134.13 185.003V50.8776C134.13 43.3024 129.529 34.5007 123.845 31.2213Z" fill="url(#paint1_radial_23_780)"/>
<path style="mix-blend-mode:screen" opacity="0.6" d="M120.401 194.394L70.0375 165.319C64.3594 162.04 59.752 153.245 59.752 145.67V11.5582C59.752 3.98299 64.3594 0.500281 70.0375 3.77972L120.401 32.8542C126.079 36.1337 130.687 44.9353 130.687 52.5038V186.622C130.687 194.19 126.079 197.673 120.401 194.394Z" fill="url(#paint2_radial_23_780)"/>
<path d="M119.501 194.882L69.1439 165.807C63.4659 162.528 58.8584 153.726 58.8584 146.158V12.0393C58.8584 4.47087 63.4659 0.988156 69.1439 4.2676L119.501 33.3421C125.186 36.6216 129.786 45.4164 129.786 52.9917V187.103C129.786 194.678 125.186 198.161 119.501 194.882Z" fill="url(#paint3_linear_23_780)"/>
<path d="M60.2607 147.045V12.7711C60.2607 6.13087 64.3262 3.07503 69.2792 5.95471L119.365 34.8734C124.345 37.7463 128.377 45.4638 128.377 52.104V186.378C128.377 193.018 124.345 196.067 119.365 193.194L69.2724 164.269C64.2991 161.403 60.2607 153.685 60.2607 147.045Z" fill="url(#paint4_linear_23_780)"/>
<path d="M62.2666 147.851V14.2685C62.2666 8.70567 65.6544 6.13769 69.8147 8.56339L118.837 36.8655C123.004 39.2709 126.385 45.7281 126.385 51.2842V184.881C126.385 190.437 122.997 193.011 118.837 190.586L69.8147 162.284C65.6477 159.878 62.2666 153.421 62.2666 147.851Z" fill="url(#paint5_linear_23_780)"/>
<path d="M70.385 10.0405C66.4551 7.77059 63.2705 9.58648 63.2705 14.1059V149.207C63.2705 153.712 66.4551 159.208 70.385 161.471L118.269 189.122C122.199 191.392 125.383 189.576 125.383 185.057V49.9561C125.383 45.4435 122.199 39.9552 118.269 37.6853L70.385 10.0405Z" fill="url(#paint6_linear_23_780)"/>
<path d="M131.143 84.0243V74.972C131.151 74.3826 131.298 73.8035 131.571 73.2811C131.844 72.7587 132.236 72.3074 132.715 71.9636C133.582 71.4622 134.287 71.9975 134.287 73.1561V82.2084C134.278 82.7969 134.131 83.375 133.858 83.8963C133.585 84.4177 133.193 84.8677 132.715 85.2101C131.847 85.7115 131.143 85.183 131.143 84.0243Z" fill="url(#paint7_linear_23_780)"/>
<path d="M132.09 85.061C131.643 85.061 131.48 84.4987 131.48 84.0244V74.972C131.491 74.443 131.623 73.9236 131.866 73.4537C132.11 72.9838 132.457 72.576 132.883 72.2617C133.019 72.1754 133.176 72.1263 133.337 72.1194C133.784 72.1194 133.947 72.6751 133.947 73.1561V82.2085C133.936 82.7374 133.804 83.2569 133.561 83.7268C133.318 84.1967 132.97 84.6045 132.544 84.9187C132.408 85.0051 132.251 85.0542 132.09 85.061Z" fill="url(#paint8_linear_23_780)"/>
<path style="mix-blend-mode:color-dodge" d="M131.948 84.2547V75.2024C131.957 74.6739 132.088 74.1546 132.33 73.6847C132.572 73.2147 132.919 72.8067 133.344 72.4921C133.469 72.4208 133.607 72.3748 133.75 72.3566C133.708 72.2846 133.648 72.2248 133.575 72.1833C133.503 72.1417 133.421 72.1197 133.337 72.1194C133.176 72.1263 133.019 72.1754 132.883 72.2617C132.457 72.576 132.11 72.9838 131.866 73.4537C131.623 73.9236 131.491 74.443 131.48 74.972V84.0244C131.48 84.4987 131.643 85.061 132.09 85.061H132.138C132.002 84.8147 131.936 84.5358 131.948 84.2547Z" fill="url(#paint9_radial_23_780)"/>
<g style="mix-blend-mode:multiply">
<path d="M118.269 37.6853L70.385 10.0405C66.4551 7.77059 63.2705 9.58648 63.2705 14.1059V149.207C63.2705 153.712 66.4551 159.208 70.385 161.471L118.269 189.122C122.199 191.392 125.383 189.576 125.383 185.057V49.9561C125.383 45.4435 122.199 39.9552 118.269 37.6853ZM124.787 185.05C124.853 186.235 124.516 187.407 123.832 188.377C123.551 188.728 123.192 189.01 122.784 189.199C122.376 189.388 121.93 189.48 121.481 189.468C120.46 189.423 119.468 189.114 118.601 188.573L70.7102 160.922C66.9633 158.76 63.9345 153.468 63.9345 149.193V14.0923C63.9345 11.382 65.2016 9.68134 67.2343 9.68134C68.2577 9.72423 69.2524 10.0324 70.1208 10.5757L118.005 38.2206C121.758 40.3888 124.814 45.6739 124.814 49.9561L124.787 185.05Z" fill="#BCBEC0"/>
</g>
<path style="mix-blend-mode:screen" d="M129.801 160.447L87.1543 135.858L74.5176 143.644V160.888L117.123 185.402V185.416L117.13 185.409L117.137 185.416V185.402L129.801 177.692V160.447Z" fill="url(#paint10_linear_23_780)"/>
<g opacity="0.9">
<path d="M117.121 168.273V185.416L122.521 182.299V165.055L117.121 168.273Z" fill="url(#paint11_linear_23_780)"/>
<path d="M117.136 168.273V185.416L74.5166 160.888V143.644L117.136 168.273Z" fill="url(#paint12_linear_23_780)"/>
<path d="M74.5166 143.644L117.136 168.273L122.522 165.055L79.8762 140.466L74.5166 143.644Z" fill="url(#paint13_linear_23_780)"/>
</g>
<path d="M89.5527 156.66V158.205L113.444 172V170.455L89.5527 156.66Z" fill="white"/>
<path d="M105.889 172.522L89.5527 163.083V164.628L105.889 174.067V172.522Z" fill="white"/>
<path d="M89.5527 161.416L113.444 175.212V173.667L89.5527 159.872V161.416Z" fill="white"/>
<path d="M84.8099 159.438C84.2725 158.973 83.8148 158.424 83.4548 157.812C83.2312 157.432 83.238 157.026 83.4548 156.897C83.7535 156.714 83.9897 156.445 84.1324 156.125C84.3695 156.192 84.6676 156.125 84.6676 155.779C84.6684 155.452 84.5449 155.137 84.3221 154.898C84.3354 154.12 84.1393 153.353 83.7542 152.677C83.3692 152.001 82.8094 151.442 82.1335 151.056C80.4938 150.108 80.006 151.009 79.945 152.371C79.7485 152.33 79.6062 152.52 79.6062 152.852C79.6612 153.228 79.8486 153.571 80.1347 153.821C80.3004 154.369 80.5277 154.896 80.8123 155.393C81.0291 155.772 81.0359 156.192 80.8123 156.308C80.3861 156.505 79.8993 156.527 79.4571 156.369C78.7796 156.158 78.2578 156.572 78.2578 157.419V158.896C78.2668 159.051 78.3127 159.203 78.3916 159.337C78.4706 159.471 78.5803 159.585 78.7118 159.668L85.5349 163.605C85.7789 163.754 85.9821 163.639 85.9821 163.354V161.884C85.958 161.419 85.842 160.963 85.6408 160.544C85.4396 160.124 85.1572 159.748 84.8099 159.438Z" fill="white"/>
<path style="mix-blend-mode:screen" d="M120.199 110.47L70.167 81.5444L50.1787 93.4086V117.7L100.17 146.55V146.564L100.183 146.557L100.19 146.564V146.55L120.199 134.761V110.47Z" fill="url(#paint14_linear_23_780)"/>
<g opacity="0.9">
<path d="M100.17 122.382V146.564L105.57 143.447V119.163L100.17 122.382Z" fill="url(#paint15_linear_23_780)"/>
<path d="M100.19 122.382V146.564L50.1787 117.7V93.4087L100.19 122.382Z" fill="url(#paint16_linear_23_780)"/>
<path d="M50.1787 93.4087L100.19 122.382L105.57 119.163L55.5383 90.2309L50.1787 93.4087Z" fill="url(#paint17_linear_23_780)"/>
</g>
<path d="M68.1953 114.59V116.134L96.4906 132.464V130.919L68.1953 114.59Z" fill="white"/>
<path d="M88.9357 132.992L68.1953 121.013V122.558L88.9357 134.537V132.992Z" fill="white"/>
<path d="M68.1953 119.346L96.4906 135.682V134.131L68.1953 117.801V119.346Z" fill="white"/>
<path d="M68.1953 108.159V109.704L96.4906 126.04V124.496L68.1953 108.159Z" fill="white"/>
<path d="M68.1953 112.916L96.4906 129.252V127.707L68.1953 111.371V112.916Z" fill="white"/>
<path d="M62.9239 116.121C62.3829 115.656 61.8964 115.131 61.4739 114.556L59.1498 115.877L56.8325 111.879C56.3446 111.956 55.8455 111.917 55.3757 111.764C54.4542 111.479 53.8105 112.049 53.8105 113.119V114.291C53.8191 114.444 53.8634 114.592 53.9399 114.724C54.0165 114.855 54.123 114.967 54.251 115.05L64.0486 120.749C64.2925 120.891 64.4958 120.749 64.4958 120.498V119.326C64.4632 118.713 64.3071 118.114 64.037 117.563C63.7669 117.012 63.3883 116.522 62.9239 116.121Z" fill="white"/>
<path d="M62.3144 109.691L55.9859 106.039C55.8369 106.039 55.7217 106.276 55.7217 106.581C55.7983 106.996 56.0162 107.372 56.3383 107.644L56.4331 107.732L56.4738 107.861C56.7085 108.618 57.029 109.346 57.4291 110.029C57.6118 110.341 57.7143 110.692 57.7273 111.053C57.7374 111.174 57.7144 111.297 57.6607 111.406C57.607 111.516 57.5247 111.609 57.4224 111.676C57.3402 111.72 57.254 111.756 57.1649 111.784L59.1502 115.213L61.1355 114.075C61.0474 113.946 60.9593 113.804 60.878 113.668C60.6944 113.375 60.5916 113.038 60.5798 112.692C60.5626 112.563 60.5813 112.431 60.6339 112.312C60.6864 112.192 60.7709 112.089 60.878 112.015C61.2958 111.764 61.6287 111.393 61.8334 110.951L61.8672 110.863H61.9689C62.2264 110.937 62.5787 110.863 62.5787 110.504C62.5707 110.213 62.4789 109.931 62.3144 109.691Z" fill="white"/>
<path d="M61.9003 104.785C61.8829 104.616 61.8275 104.454 61.7383 104.309C61.6491 104.165 61.5285 104.043 61.3853 103.952L56.9134 101.37C56.6491 101.214 56.4255 101.323 56.3984 101.614L56.0664 105.679L62.2391 109.243L61.9003 104.785ZM60.6061 106.472L59.6575 105.923V107.014L58.648 106.432V105.341L57.6994 104.792V103.64L58.648 104.189V103.132L59.6575 103.708V104.799L60.6061 105.347V106.472Z" fill="white"/>
<path style="mix-blend-mode:multiply" d="M28.8622 171.309C39.4225 171.309 47.9833 167.747 47.9833 163.354C47.9833 158.961 39.4225 155.4 28.8622 155.4C18.302 155.4 9.74121 158.961 9.74121 163.354C9.74121 167.747 18.302 171.309 28.8622 171.309Z" fill="url(#paint18_radial_23_780)"/>
<path d="M39.1819 129.604H11.8555V161.755C11.8555 161.796 11.8555 161.83 11.8555 161.87C11.8555 166.261 17.9536 169.825 25.5153 169.825C33.077 169.825 39.1819 166.261 39.1819 161.87C39.1819 161.83 39.1819 161.796 39.1819 161.755V129.604Z" fill="url(#paint19_linear_23_780)"/>
<path opacity="0.2" d="M25.5153 170.808C17.9739 170.808 11.8555 167.243 11.8555 162.853V164.791C11.8555 169.181 17.9536 172.745 25.5153 172.745C33.077 172.745 39.1819 169.181 39.1819 164.791V162.88C39.1819 167.243 33.0634 170.808 25.5153 170.808Z" fill="url(#paint20_linear_23_780)"/>
<path d="M25.5153 144.355C17.9739 144.355 11.8555 140.791 11.8555 136.4V159.492C11.8555 159.533 11.8555 159.567 11.8555 159.607C11.8555 163.998 17.9536 167.562 25.5153 167.562C33.077 167.562 39.1819 163.998 39.1819 159.607C39.1819 159.567 39.1819 159.533 39.1819 159.492V136.4C39.1819 140.791 33.0634 144.355 25.5153 144.355Z" fill="url(#paint21_linear_23_780)"/>
<path d="M39.1817 134.137V134.029C39.1749 134.063 39.1817 134.104 39.1817 134.137Z" fill="url(#paint22_linear_23_780)"/>
<path d="M25.5153 166.376C17.9739 166.376 11.8555 162.812 11.8555 158.422V159.655C11.8555 164.052 17.9536 167.616 25.5153 167.616C33.077 167.616 39.1819 164.052 39.1819 159.655V158.422C39.1819 162.812 33.0634 166.376 25.5153 166.376Z" fill="url(#paint23_linear_23_780)"/>
<g style="mix-blend-mode:multiply">
<path d="M11.3413 128.093V128.202C11.338 128.164 11.338 128.125 11.3413 128.087V128.093Z" fill="url(#paint24_linear_23_780)"/>
<path d="M25.5163 136.942C18.9913 136.942 13.5029 134.368 11.8564 130.844V131.732C13.5029 135.228 18.9913 137.83 25.5163 137.83C32.0413 137.83 37.5364 135.255 39.1829 131.732V130.844C37.5364 134.368 32.048 136.942 25.5163 136.942Z" fill="#E6E7E8"/>
<path d="M39.6973 128.202V128.087C39.6906 128.134 39.6973 128.202 39.6973 128.202Z" fill="url(#paint25_linear_23_780)"/>
</g>
<path d="M39.6971 124.17H11.3408V128.622V128.737C11.3408 133.297 17.6896 136.997 25.5156 136.997C33.3415 136.997 39.6971 133.297 39.6971 128.737C39.6971 128.697 39.6971 128.663 39.6971 128.622V124.17Z" fill="url(#paint26_linear_23_780)"/>
<g style="mix-blend-mode:multiply" opacity="0.5">
<path d="M29.8594 136.597L30.2591 136.509V126.027H29.8594V136.597Z" fill="#9F19AB"/>
<path d="M31.6406 136.177L32.0404 136.062V126.027H31.6406V136.177Z" fill="#9F19AB"/>
<path d="M33.4229 135.594L33.8226 135.418V126.027H33.4229V135.594Z" fill="#9F19AB"/>
<path d="M28.0771 136.854L28.4769 136.814V126.027H28.0771V136.854Z" fill="#9F19AB"/>
<path d="M36.9873 133.582C37.1228 133.467 37.2583 133.365 37.3871 133.25V125.573H36.9873V133.582Z" fill="#9F19AB"/>
<path d="M38.7695 131.657C38.9162 131.441 39.0475 131.215 39.1625 130.98V123.764H38.7695V131.657Z" fill="#9F19AB"/>
<path d="M35.2041 134.754L35.6039 134.537V126.027H35.2041V134.754Z" fill="#9F19AB"/>
<path d="M26.3018 136.97H26.6948V126.027H26.3018V136.97Z" fill="#9F19AB"/>
<path d="M24.5068 136.963H24.8998V126.027H24.5068V136.963Z" fill="#9F19AB"/>
<path d="M20.9551 136.55L21.3548 136.631V126.027H20.9551V136.55Z" fill="#9F19AB"/>
<path d="M22.7383 136.834L23.1313 136.868V126.027H22.7383V136.834Z" fill="#9F19AB"/>
<path d="M19.1748 136.116L19.5746 136.224V126.061H19.1748V136.116Z" fill="#9F19AB"/>
<path d="M12.0459 131.305C12.1678 131.524 12.3013 131.737 12.4457 131.942V123.764H12.0459V131.305Z" fill="#9F19AB"/>
<path d="M13.8281 133.406C13.9569 133.514 14.0924 133.616 14.2279 133.717V125.586H13.8281V133.406Z" fill="#9F19AB"/>
<path d="M17.3916 135.499L17.7914 135.655V126.027H17.3916V135.499Z" fill="#9F19AB"/>
<path d="M15.6094 134.639C15.7381 134.713 15.8736 134.781 16.0091 134.849V126.04H15.6094V134.639Z" fill="#9F19AB"/>
</g>
<path d="M25.5155 132.037C33.3478 132.037 39.6971 128.339 39.6971 123.777C39.6971 119.216 33.3478 115.518 25.5155 115.518C17.6833 115.518 11.334 119.216 11.334 123.777C11.334 128.339 17.6833 132.037 25.5155 132.037Z" fill="url(#paint27_linear_23_780)"/>
<path style="mix-blend-mode:screen" d="M25.5158 131.807C17.8524 131.807 11.6256 128.263 11.3613 123.838C11.3613 123.933 11.3613 124.028 11.3613 124.13C11.3613 128.69 17.7101 132.383 25.5361 132.383C33.362 132.383 39.7176 128.69 39.7176 124.13C39.7176 124.028 39.7176 123.933 39.7176 123.838C39.4127 128.263 33.1858 131.807 25.5158 131.807Z" fill="url(#paint28_radial_23_780)"/>
<path style="mix-blend-mode:color-dodge" d="M18.7062 128.534C21.8908 129.618 24.0387 131.779 23.4966 133.358C22.9546 134.937 19.9461 135.337 16.7616 134.246C13.577 133.155 11.4223 131.007 11.9644 129.428C12.5064 127.85 15.5148 127.45 18.7062 128.534Z" fill="url(#paint29_radial_23_780)"/>
<path d="M30.603 145.48C28.9409 145.862 27.2404 146.053 25.5348 146.049C17.9935 146.049 11.875 142.485 11.875 138.094V143.108C11.875 143.142 11.875 143.176 11.875 143.217C11.875 147.608 17.9731 151.172 25.5348 151.172C27.242 151.163 28.9425 150.958 30.603 150.562V145.48Z" fill="url(#paint30_linear_23_780)"/>
<path style="mix-blend-mode:screen" d="M18.1706 159.736C19.9481 159.736 21.3891 152.531 21.3891 143.644C21.3891 134.756 19.9481 127.551 18.1706 127.551C16.3931 127.551 14.9521 134.756 14.9521 143.644C14.9521 152.531 16.3931 159.736 18.1706 159.736Z" fill="url(#paint31_radial_23_780)"/>
<path style="mix-blend-mode:multiply" d="M8.18979 175.313C12.3548 175.313 15.7311 173.909 15.7311 172.176C15.7311 170.444 12.3548 169.039 8.18979 169.039C4.02482 169.039 0.648438 170.444 0.648438 172.176C0.648438 173.909 4.02482 175.313 8.18979 175.313Z" fill="url(#paint32_radial_23_780)"/>
<path d="M12.3632 169.215H1.04102V171.35C1.04102 171.35 1.04102 171.383 1.04102 171.397C1.04102 173.22 3.57514 174.697 6.70551 174.697C9.83589 174.697 12.3632 173.22 12.3632 171.397V171.35V169.215Z" fill="url(#paint33_linear_23_780)"/>
<path style="mix-blend-mode:screen" d="M6.70612 172.244C3.6435 172.244 1.15682 170.828 1.05519 169.059C1.05192 169.098 1.05192 169.136 1.05519 169.175C1.05519 170.997 3.58929 172.474 6.71966 172.474C9.85004 172.474 12.3774 170.997 12.3774 169.175C12.3774 169.134 12.3774 169.1 12.3774 169.059C12.2486 170.848 9.76196 172.244 6.70612 172.244Z" fill="url(#paint34_radial_23_780)"/>
<path style="mix-blend-mode:color-dodge" d="M3.98142 170.957C5.25525 171.39 6.109 172.251 5.89895 172.881C5.68891 173.511 4.47606 173.667 3.18867 173.24C1.90129 172.813 1.05432 171.939 1.27114 171.309C1.48796 170.679 2.70759 170.523 3.98142 170.957Z" fill="url(#paint35_radial_23_780)"/>
<path d="M6.7066 165.76C5.28494 165.729 3.88099 166.08 2.64118 166.776C2.62832 166.865 2.58806 166.948 2.52598 167.013C2.39433 167.1 2.2427 167.151 2.08556 167.162C1.78427 167.381 1.53552 167.664 1.35737 167.991C1.17923 168.318 1.07616 168.681 1.05566 169.053C1.05566 170.875 3.58977 172.352 6.72014 172.352C9.85051 172.352 12.3779 170.875 12.3779 169.053C12.3779 167.23 9.83019 165.76 6.7066 165.76Z" fill="url(#paint36_linear_23_780)"/>
<path d="M2.63374 166.674L10.8323 171.289C10.8786 171.311 10.9144 171.35 10.9322 171.398C10.9499 171.446 10.9481 171.499 10.9272 171.546C10.8832 171.654 10.8001 171.741 10.6946 171.79C10.589 171.839 10.4687 171.846 10.358 171.81L10.209 171.749L2.07812 167.162C2.23526 167.151 2.38689 167.1 2.51854 167.013C2.5973 166.918 2.63832 166.798 2.63374 166.674Z" fill="url(#paint37_linear_23_780)"/>
<path style="mix-blend-mode:multiply" d="M57.2585 182.13C57.2585 183.858 53.8706 185.267 49.7171 185.267C45.5636 185.267 42.1758 183.858 42.1758 182.13C42.1758 180.402 45.5636 178.993 49.7171 178.993C53.8706 178.993 57.2585 180.375 57.2585 182.13Z" fill="url(#paint38_radial_23_780)"/>
<path d="M53.8915 179.169H42.5693V181.31V181.35C42.5693 183.173 45.1035 184.65 48.227 184.65C51.3506 184.65 53.8915 183.173 53.8915 181.35C53.8915 181.35 53.8915 181.35 53.8915 181.31V179.169Z" fill="url(#paint39_linear_23_780)"/>
<path style="mix-blend-mode:screen" d="M48.2203 182.218C45.1644 182.218 42.6777 180.802 42.5693 179.04C42.5693 179.074 42.5693 179.114 42.5693 179.155C42.5693 180.971 45.1035 182.448 48.227 182.448C51.3506 182.448 53.8915 180.971 53.8915 179.155C53.8952 179.117 53.8952 179.078 53.8915 179.04C53.7763 180.802 51.2897 182.218 48.2203 182.218Z" fill="url(#paint40_radial_23_780)"/>
<path style="mix-blend-mode:color-dodge" d="M45.5111 180.91C46.785 181.344 47.6387 182.204 47.4219 182.834C47.2051 183.465 46.0058 183.627 44.7116 183.194C43.4174 182.76 42.584 181.899 42.8009 181.269C43.0177 180.639 44.2373 180.476 45.5111 180.91Z" fill="url(#paint41_radial_23_780)"/>
<path d="M48.2203 175.713C46.7988 175.684 45.3954 176.035 44.1548 176.729C44.1434 176.819 44.1029 176.902 44.0397 176.967C43.908 177.054 43.7567 177.108 43.5992 177.122C43.2969 177.34 43.0474 177.623 42.8691 177.95C42.6909 178.278 42.5884 178.641 42.5693 179.013C42.5693 180.829 45.1035 182.306 48.227 182.306C51.3506 182.306 53.8915 180.829 53.8915 179.013C53.8915 177.197 51.3574 175.713 48.2203 175.713Z" fill="url(#paint42_linear_23_780)"/>
<path d="M44.1552 176.635L52.3538 181.242C52.3979 181.266 52.4317 181.306 52.4491 181.353C52.4665 181.4 52.4664 181.452 52.4487 181.5C52.4035 181.607 52.3205 181.693 52.2156 181.743C52.1107 181.793 51.9911 181.803 51.8795 181.771L51.7304 181.71L43.5996 177.122C43.7571 177.108 43.9084 177.054 44.04 176.967C44.1183 176.874 44.1594 176.756 44.1552 176.635Z" fill="url(#paint43_linear_23_780)"/>
<path style="mix-blend-mode:multiply" d="M41.0386 173.863C41.6078 175.422 38.6129 177.929 34.351 179.501C30.0891 181.073 26.1727 181.052 25.6036 179.501C25.0344 177.949 28.0293 175.435 32.2912 173.863C36.5531 172.291 40.4694 172.305 41.0386 173.863Z" fill="url(#paint44_radial_23_780)"/>
<path d="M39.8593 172.657C39.8604 172.173 39.7358 171.697 39.4978 171.275C39.2598 170.854 38.9164 170.501 38.5013 170.252C38.0861 170.003 37.6134 169.865 37.1294 169.853C36.6453 169.842 36.1665 169.956 35.7397 170.184C35.6787 170.184 31.0915 172.894 31.078 172.894C30.7257 173.098 31.3016 173.104 31.3016 173.735C31.3444 174.43 31.5509 175.105 31.9041 175.706C32.2573 176.306 32.7473 176.815 33.3343 177.19C33.8831 177.509 33.6528 177.969 34.0119 177.766C34.0119 177.766 38.5313 175.09 38.5719 175.056C38.9734 174.799 39.3024 174.444 39.5278 174.024C39.7531 173.604 39.8673 173.134 39.8593 172.657Z" fill="url(#paint45_linear_23_780)"/>
<path d="M32.3928 173.064C32.194 172.918 31.9606 172.827 31.7157 172.8C31.4707 172.772 31.2229 172.81 30.997 172.908C30.997 172.908 26.3827 175.618 26.3963 175.672C25.9218 176.023 25.5698 176.514 25.3905 177.076C25.2112 177.638 25.2137 178.242 25.3975 178.803C25.5814 179.363 25.9373 179.852 26.4146 180.198C26.8919 180.545 27.4664 180.732 28.0563 180.734C28.4869 180.737 28.912 180.637 29.2963 180.443C29.3301 180.443 33.8292 177.793 33.836 177.786C34.0315 177.642 34.1861 177.449 34.2847 177.227C34.3833 177.005 34.4224 176.761 34.3984 176.519C34.3607 175.826 34.1593 175.151 33.8107 174.551C33.4621 173.95 32.9762 173.44 32.3928 173.064Z" fill="url(#paint46_linear_23_780)"/>
<path style="mix-blend-mode:color-dodge" d="M32.7313 172.359C34.4388 171.397 36.0514 171.004 36.3292 171.519C36.607 172.034 35.4552 173.199 33.7545 174.161C32.0538 175.124 30.4344 175.517 30.1566 175.008C29.8788 174.5 31.0306 173.328 32.7313 172.359Z" fill="url(#paint47_radial_23_780)"/>
<path style="mix-blend-mode:color-dodge" d="M28.7744 177.57C28.7731 177.895 28.6754 178.213 28.4936 178.483C28.3119 178.752 28.0543 178.962 27.7533 179.086C27.4523 179.21 27.1215 179.241 26.8026 179.177C26.4836 179.113 26.1909 178.955 25.9613 178.725C25.7317 178.494 25.5756 178.201 25.5126 177.882C25.4496 177.562 25.4826 177.232 25.6074 176.931C25.7322 176.631 25.9433 176.374 26.2139 176.193C26.4845 176.013 26.8026 175.916 27.1279 175.916C27.3447 175.916 27.5594 175.959 27.7596 176.042C27.9598 176.126 28.1416 176.247 28.2946 176.401C28.4476 176.555 28.5687 176.737 28.651 176.937C28.7334 177.138 28.7753 177.353 28.7744 177.57Z" fill="url(#paint48_radial_23_780)"/>
<path style="mix-blend-mode:multiply" d="M58.3842 175.435C57.5033 176.926 53.8783 176.418 50.294 174.304C46.7096 172.19 44.5075 169.263 45.3884 167.772C46.2692 166.281 49.8942 166.783 53.4786 168.897C57.0629 171.011 59.2379 173.945 58.3842 175.435Z" fill="url(#paint49_radial_23_780)"/>
<path d="M42.462 167.338C42.4609 166.854 42.5855 166.378 42.8235 165.956C43.0615 165.535 43.4049 165.182 43.8201 164.933C44.2352 164.683 44.7079 164.546 45.1919 164.534C45.676 164.523 46.1548 164.637 46.5816 164.865C46.6426 164.865 51.2298 167.575 51.2433 167.575C51.5957 167.785 51.013 167.792 51.013 168.422C50.9744 169.115 50.7734 169.788 50.4261 170.389C50.0789 170.989 49.5952 171.499 49.0141 171.878C48.4653 172.196 48.6957 172.657 48.3366 172.454C48.3366 172.454 43.8239 169.778 43.7833 169.744C43.3755 169.489 43.0398 169.135 42.8084 168.714C42.5771 168.292 42.4578 167.819 42.462 167.338Z" fill="url(#paint50_linear_23_780)"/>
<path d="M49.9215 167.745C50.1215 167.599 50.3561 167.508 50.6021 167.481C50.848 167.454 51.0969 167.491 51.324 167.589C51.324 167.589 55.9383 170.299 55.9248 170.354C56.465 170.777 56.8309 171.384 56.9529 172.059C57.0749 172.734 56.9446 173.431 56.5866 174.016C56.2286 174.602 55.668 175.035 55.0113 175.234C54.3546 175.434 53.6476 175.385 53.0248 175.097C53.0248 175.097 48.4918 172.447 48.485 172.44C48.2886 172.297 48.1332 172.104 48.0345 171.882C47.9358 171.66 47.8972 171.415 47.9226 171.173C47.9643 170.485 48.1668 169.817 48.514 169.221C48.8612 168.626 49.3433 168.12 49.9215 167.745Z" fill="url(#paint51_linear_23_780)"/>
<path style="mix-blend-mode:color-dodge" d="M49.575 167.04C47.8743 166.078 46.2617 165.685 45.9839 166.2C45.7061 166.715 46.8512 167.88 48.5587 168.843C50.2661 169.805 51.8787 170.198 52.1566 169.689C52.4344 169.181 51.2893 168.002 49.575 167.04Z" fill="url(#paint52_radial_23_780)"/>
<path style="mix-blend-mode:color-dodge" d="M53.5459 172.244C53.5459 172.57 53.6425 172.888 53.8234 173.159C54.0043 173.429 54.2615 173.641 54.5623 173.765C54.8632 173.89 55.1942 173.922 55.5136 173.859C55.833 173.795 56.1264 173.638 56.3567 173.408C56.5869 173.178 56.7437 172.885 56.8073 172.565C56.8708 172.246 56.8382 171.915 56.7136 171.614C56.589 171.313 56.3779 171.056 56.1072 170.875C55.8364 170.694 55.5181 170.597 55.1924 170.597C54.7557 170.597 54.3369 170.771 54.0281 171.08C53.7194 171.388 53.5459 171.807 53.5459 172.244Z" fill="url(#paint53_radial_23_780)"/>
<path style="mix-blend-mode:screen" d="M64.4818 25.9566L80.9265 16.5993L104.106 41.4526L100.915 51.9278L110.855 82.4456L89.2064 93.6526L62.1104 68.3386L67.3751 49.2853L64.4818 25.9566Z" fill="url(#paint54_linear_23_780)"/>
<path d="M73.6223 57.1113C67.4497 53.5269 60.7485 53.7844 55.9581 56.5421C51.1677 59.2998 50.5375 79.2068 52.8142 80.7585C55.0908 82.3101 73.1413 92.2772 76.1768 94.0795C79.7069 96.1867 92.9602 93.5442 92.9602 89.865C92.9602 87.6697 93.5226 70.3171 88.7457 66.2924C85.8186 63.8328 79.8424 60.716 73.6223 57.1113Z" fill="url(#paint55_radial_23_780)"/>
<path d="M68.8663 62.7283L66.0544 66.3466L67.0098 70.2494L64.8145 87.7713L68.0126 89.6008L68.9138 71.1099L72.2 67.5323L71.0549 63.0129L68.8663 62.7283Z" fill="url(#paint56_linear_23_780)"/>
<path style="mix-blend-mode:multiply" d="M83.4522 66.5795C84.5037 62.2099 79.9823 57.3746 73.3533 55.7795C66.7244 54.1843 60.4983 56.4334 59.4468 60.803C58.3953 65.1726 62.9168 70.0079 69.5457 71.603C76.1746 73.1982 82.4008 70.949 83.4522 66.5795Z" fill="url(#paint57_radial_23_780)"/>
<path style="mix-blend-mode:multiply" opacity="0.5" d="M63.2968 72.1059C62.6193 62.7283 65.6819 57.0638 66.6847 54.611C64.9659 54.2801 63.2068 54.2115 61.4674 54.4077C59.3378 59.6959 58.6232 65.4478 59.394 71.0963C60.2157 76.4646 61.5336 81.7452 63.3307 86.8701L65.0721 87.8729C64.1167 84.0921 63.6763 77.2486 63.2968 72.1059Z" fill="url(#paint58_linear_23_780)"/>
<path d="M62.8093 71.8823C62.1317 62.1795 65.0588 57.3891 65.9464 55.0853C67.5319 55.1328 65.9464 54.2722 67.5794 54.672C62.8364 53.4998 58.5406 54.0283 55.4238 56.2779C52.307 58.5274 51.2228 63.7311 51.0399 69.3956C50.8841 74.2131 51.338 79.654 52.2798 80.4874C53.7434 81.7816 58.5203 84.1463 64.5845 87.6764C63.6291 83.8685 63.1887 77.025 62.8093 71.8823Z" fill="url(#paint59_radial_23_780)"/>
<path d="M89.1933 66.3194C86.8964 64.3883 82.2686 62.0236 77.573 59.3676C79.0162 60.1806 79.0704 60.7769 80.3781 61.529C79.3482 64.7746 77.241 66.9496 74.6391 71.2318C71.5833 76.3 68.9001 85.8131 68.209 89.7972C71.9288 91.9519 75.0863 93.7881 76.1772 94.4386C80.7915 97.1963 93.3197 93.5442 93.3197 89.865C93.3197 87.6697 93.9634 70.3442 89.1933 66.3194Z" fill="url(#paint60_radial_23_780)"/>
<g style="mix-blend-mode:multiply">
<path d="M62.8083 71.8823C62.1307 62.1795 65.0578 57.3891 65.9455 55.0853C67.531 55.1328 65.9455 54.2722 67.5784 54.672C62.8354 53.4998 58.5396 54.0283 55.4228 56.2779C52.306 58.5274 51.2219 63.7311 51.0389 69.3956C50.8831 74.2131 51.337 79.654 52.2789 80.4874C53.7424 81.7816 58.5193 84.1463 64.5835 87.6764C63.6282 83.8685 63.1877 77.025 62.8083 71.8823Z" fill="url(#paint61_radial_23_780)"/>
<path style="mix-blend-mode:multiply" opacity="0.5" d="M54.0876 67.844C54.3992 63.1552 55.2123 58.7239 56.9063 55.5122C54.6025 58.0124 53.5591 62.4641 53.1593 67.2816C52.7595 72.0991 52.9357 77.5332 53.8369 78.4208C53.9521 78.536 54.1011 78.658 54.2637 78.7935C53.8687 75.1568 53.8097 71.4915 54.0876 67.844Z" fill="url(#paint62_linear_23_780)"/>
<path d="M89.1933 66.3194C86.8964 64.3884 82.2686 62.0237 77.573 59.3676C79.0162 60.1807 79.0704 60.7769 80.3781 61.529C79.3482 64.7746 77.241 66.9496 74.6391 71.2318C71.5833 76.3001 68.9001 85.8131 68.209 89.7973C71.9288 91.9519 75.0863 93.7881 76.1772 94.4386C80.7915 97.1963 93.3197 93.5442 93.3197 89.865C93.3197 87.6697 93.9634 70.3442 89.1933 66.3194Z" fill="url(#paint63_radial_23_780)"/>
</g>
<path d="M66.833 56.0271C65.0578 56.6234 63.6213 59.4624 63.8178 62.9519C64.055 67.1528 65.3559 68.5689 65.3559 68.5689L69.2248 62.9519L71.5083 70.107C71.5083 70.107 75.0316 69.1516 77.2676 66.9157C79.5036 64.6797 81.5295 62.5386 80.3438 60.6549C78.8938 58.4122 69.1029 55.275 66.833 56.0271Z" fill="url(#paint64_radial_23_780)"/>
<path style="mix-blend-mode:multiply" opacity="0.5" d="M80.656 60.8989C79.5515 63.9818 77.3562 67.4035 74.8628 71.5435C71.8069 76.6117 69.1237 86.1248 68.4326 90.1089L69.449 90.6984C70.7551 86.4081 72.5107 82.2678 74.6866 78.3463C77.7182 73.1221 81.2006 68.1728 85.0941 63.5549C83.8135 62.8096 82.1399 61.7119 80.656 60.8989Z" fill="url(#paint65_linear_23_780)"/>
<path d="M80.4391 60.5872C79.3279 63.6701 77.1326 67.0986 74.6391 71.2318C71.5833 76.3 68.9001 85.8131 68.209 89.7972L69.2321 90.3867C70.5415 86.1073 72.2946 81.9765 74.463 78.0617C77.4989 72.8424 80.9811 67.8957 84.8704 63.2771C83.5966 62.4776 81.9162 61.407 80.4391 60.5872Z" fill="url(#paint66_radial_23_780)"/>
<path d="M77.2475 80.5213H75.7704C75.7704 75.2362 77.4169 69.7411 80.676 64.2054C82.1802 61.6442 82.1802 61.6442 74.7473 57.2603L74.4424 57.0774C66.4809 52.3818 61.6363 53.344 59.9085 55.6003C58.1807 57.8566 58.2484 67.4035 58.3907 70.9337L56.9069 70.9879C56.8526 69.6327 56.4393 57.6872 58.7295 54.7262C60.9316 51.8601 66.4132 50.6608 75.1945 55.8238L75.4994 56.0068C83.0543 60.4652 84.2129 61.1496 81.9566 64.9846C78.833 70.2629 77.2475 75.5005 77.2475 80.5213Z" fill="#311B61"/>
<path d="M76.0827 79.837C76.1775 74.7687 77.8037 69.504 80.9273 64.1919C82.6619 61.2512 82.3637 61.0751 74.8292 56.637L74.5243 56.454C70.7434 54.2248 67.2539 53.0662 64.4285 53.0662C62.206 53.0662 60.424 53.7912 59.4077 55.0989C57.5308 57.5449 57.7205 67.9727 57.7883 70.2697H57.192C57.0226 65.337 57.192 56.9622 58.9401 54.6856C60.0717 53.2017 62.0163 52.3886 64.4081 52.3886C67.3759 52.3886 70.8789 53.5676 74.8224 55.8984L75.1273 56.0746C82.8855 60.6956 83.4546 61.1225 81.4219 64.5103C78.3525 69.7344 76.7467 74.8907 76.6789 79.8573L76.0827 79.837Z" fill="#3F237D"/>
<path d="M76.2515 79.5185C76.3871 74.5587 77.9997 69.4091 81.0623 64.2122C82.9053 61.0818 82.4174 60.8243 74.8896 56.3524L74.5847 56.1694C70.77 53.9199 67.2466 52.7274 64.3805 52.7274C62.0836 52.7274 60.2406 53.4863 59.1835 54.8617C57.3473 57.2603 57.4286 66.7463 57.5099 69.958H57.3609C57.2118 65.215 57.4083 56.9283 59.0684 54.7669C60.1593 53.344 62.0361 52.558 64.3602 52.558C67.2873 52.558 70.7564 53.7302 74.6592 56.0339L74.9642 56.2169C82.8036 60.8379 83.034 61.1428 81.191 64.2799C78.142 69.4566 76.5361 74.579 76.4006 79.5117L76.2515 79.5185Z" fill="#522EA3"/>
<path d="M62.8093 71.8823C62.1318 62.5047 65.1944 56.8403 66.1972 54.3874C64.4783 54.0565 62.7193 53.988 60.9799 54.1842C58.8506 59.4748 58.136 65.2288 58.9065 70.8795C59.7257 76.255 61.0436 81.5426 62.8432 86.6737L64.5846 87.6765C63.6292 83.8685 63.1888 77.0251 62.8093 71.8823Z" fill="url(#paint67_radial_23_780)"/>
<path d="M55.6738 70.4052C55.6738 69.1788 56.5411 68.6842 57.6049 69.3008C58.1676 69.6656 58.6359 70.1585 58.9715 70.7391C59.3072 71.3197 59.5006 71.9715 59.536 72.6412C59.536 73.8608 58.6755 74.3554 57.6049 73.7388C57.0439 73.3738 56.5767 72.8818 56.2412 72.3027C55.9057 71.7235 55.7113 71.0735 55.6738 70.4052Z" fill="#311B61"/>
<path d="M87.6815 65.8655C84.9306 66.4888 81.5021 69.3279 80.9397 74.5926C80.418 79.4711 80.6755 91.1795 80.6755 91.1795C80.6755 91.1795 78.8325 75.7783 80.7635 70.954C82.8301 65.7774 86.5297 65.1879 86.5297 65.1879L87.6815 65.8655Z" fill="#E6E7E8"/>
<path d="M80.7783 97.5283H79.6671V86.7685C79.5978 85.5457 79.2415 84.3564 78.627 83.297C78.0125 82.2375 77.1572 81.3377 76.1302 80.6704C75.827 80.4416 75.4692 80.2962 75.0924 80.2486C74.7155 80.2011 74.3328 80.253 73.9823 80.3993C73.6854 80.6266 73.453 80.9274 73.308 81.272C73.163 81.6166 73.1105 81.9931 73.1557 82.3643V93.1241H72.0377V82.3643C71.9816 81.7934 72.0811 81.2179 72.3257 80.699C72.5702 80.1801 72.9507 79.737 73.4267 79.4168C74.3279 78.8951 75.4594 78.99 76.6858 79.6879C77.8768 80.4559 78.8671 81.4972 79.5742 82.7253C80.2813 83.9534 80.6849 85.3326 80.7512 86.7482L80.7783 97.5283Z" fill="#6B24D6"/>
<path d="M72.6124 94.0524C72.4908 94.0524 72.3704 94.0283 72.2582 93.9816C72.1459 93.9349 72.044 93.8664 71.9584 93.7801C71.8727 93.6938 71.805 93.5914 71.7591 93.4789C71.7132 93.3663 71.69 93.2457 71.6909 93.1241V92.4872C71.6799 92.3591 71.6957 92.2301 71.7372 92.1084C71.7787 91.9867 71.845 91.875 71.9319 91.7802C72.0189 91.6855 72.1246 91.6099 72.2423 91.5582C72.36 91.5064 72.4872 91.4797 72.6158 91.4797C72.7443 91.4797 72.8715 91.5064 72.9892 91.5582C73.1069 91.6099 73.2126 91.6855 73.2996 91.7802C73.3865 91.875 73.4529 91.9867 73.4944 92.1084C73.5359 92.2301 73.5516 92.3591 73.5406 92.4872V93.1241C73.5406 93.3703 73.4429 93.6064 73.2688 93.7805C73.0947 93.9546 72.8586 94.0524 72.6124 94.0524Z" fill="#6B24D6"/>
<path d="M80.2213 98.4566C80.0994 98.4566 79.9786 98.4326 79.866 98.3859C79.7534 98.3393 79.6511 98.2709 79.5649 98.1847C79.4787 98.0985 79.4103 97.9962 79.3636 97.8836C79.317 97.7709 79.293 97.6502 79.293 97.5283V96.8914C79.293 96.6452 79.3908 96.4091 79.5649 96.235C79.7389 96.0609 79.9751 95.9631 80.2213 95.9631C80.4674 95.9631 80.7035 96.0609 80.8776 96.235C81.0517 96.4091 81.1495 96.6452 81.1495 96.8914V97.5283C81.1495 97.6502 81.1255 97.7709 81.0789 97.8836C81.0322 97.9962 80.9638 98.0985 80.8776 98.1847C80.7914 98.2709 80.6891 98.3393 80.5765 98.3859C80.4639 98.4326 80.3432 98.4566 80.2213 98.4566Z" fill="#6B24D6"/>
<path d="M80.2227 87.507C80.0268 87.507 79.839 87.4292 79.7005 87.2907C79.562 87.1522 79.4841 86.9644 79.4841 86.7685C79.407 85.5807 79.0561 84.4269 78.459 83.3972C77.8619 82.3675 77.0347 81.4899 76.0421 80.833C75.765 80.6237 75.4389 80.489 75.0949 80.4415C74.7509 80.3941 74.4005 80.4355 74.0771 80.562C73.813 80.7765 73.6069 81.054 73.4779 81.3689C73.3489 81.6838 73.301 82.0261 73.3386 82.3643C73.3209 82.5488 73.2351 82.7202 73.0979 82.8449C72.9607 82.9695 72.782 83.0386 72.5966 83.0386C72.4113 83.0386 72.2325 82.9695 72.0953 82.8449C71.9581 82.7202 71.8724 82.5488 71.8547 82.3643C71.8042 81.7645 71.9145 81.1621 72.1741 80.619C72.4337 80.076 72.8333 79.6119 73.3318 79.2746C74.2939 78.7257 75.5203 78.8206 76.7806 79.5456C78.004 80.3284 79.0224 81.3924 79.7508 82.6489C80.4793 83.9054 80.8966 85.3179 80.968 86.7685C80.968 86.8661 80.9487 86.9627 80.9112 87.0527C80.8736 87.1428 80.8186 87.2245 80.7493 87.2931C80.68 87.3618 80.5978 87.4161 80.5074 87.4528C80.417 87.4895 80.3203 87.5079 80.2227 87.507Z" fill="#311B61"/>
<path d="M80.066 87.0057C79.987 87.0057 79.9111 86.9742 79.8552 86.9183C79.7993 86.8624 79.7679 86.7866 79.7679 86.7075C79.6868 85.4422 79.3137 84.2129 78.6777 83.1161C78.0417 82.0192 77.1601 81.0847 76.1022 80.3858C75.6311 80.0923 75.0917 79.9265 74.5371 79.9047C74.2432 79.8975 73.9528 79.9701 73.6969 80.1148C73.3601 80.3645 73.0943 80.6977 72.9256 81.0815C72.7569 81.4652 72.6911 81.8864 72.7347 82.3033C72.7347 82.3824 72.7033 82.4582 72.6474 82.5141C72.5915 82.57 72.5157 82.6014 72.4366 82.6014C72.3575 82.6014 72.2817 82.57 72.2258 82.5141C72.1699 82.4582 72.1385 82.3824 72.1385 82.3033C72.0864 81.7801 72.1759 81.2525 72.3976 80.7757C72.6193 80.2989 72.9651 79.8904 73.3987 79.593C73.745 79.3944 74.1379 79.2915 74.5371 79.2949C75.197 79.3198 75.8391 79.516 76.4004 79.8641C77.5592 80.6041 78.5238 81.611 79.2135 82.8005C79.9031 83.99 80.2977 85.3274 80.3642 86.7007C80.3651 86.7405 80.358 86.78 80.3434 86.8169C80.3289 86.8539 80.3071 86.8875 80.2793 86.916C80.2515 86.9444 80.2183 86.9669 80.1817 86.9823C80.1451 86.9977 80.1058 87.0057 80.066 87.0057Z" fill="#3F237D"/>
<path d="M80.0665 86.782C80.0567 86.782 80.0471 86.7801 80.038 86.7764C80.029 86.7726 80.0207 86.7671 80.0138 86.7602C80.0069 86.7533 80.0014 86.7451 79.9977 86.736C79.9939 86.727 79.992 86.7173 79.992 86.7075C79.9081 85.4028 79.5231 84.1353 78.8671 83.0044C78.2111 81.8735 77.302 80.9099 76.2112 80.1893C75.7064 79.8786 75.1299 79.7036 74.5376 79.6811C74.203 79.6755 73.8731 79.7597 73.5822 79.925C73.2113 80.1931 72.9172 80.5539 72.7293 80.9712C72.5414 81.3885 72.4664 81.8479 72.5116 82.3033C72.5116 82.3231 72.5038 82.342 72.4898 82.356C72.4758 82.37 72.4569 82.3778 72.4371 82.3778C72.4173 82.3778 72.3984 82.37 72.3844 82.356C72.3704 82.342 72.3626 82.3231 72.3626 82.3033C72.3118 81.8212 72.3912 81.3343 72.5926 80.8934C72.7941 80.4524 73.11 80.0736 73.5077 79.7963C73.8208 79.616 74.1763 79.5225 74.5376 79.5253C75.1568 79.5493 75.7592 79.7337 76.2857 80.0605C77.4114 80.7812 78.3486 81.7604 79.0192 82.9166C79.6899 84.0728 80.0745 85.3725 80.1411 86.7075C80.1411 86.7173 80.1391 86.727 80.1354 86.736C80.1316 86.7451 80.1262 86.7533 80.1192 86.7602C80.1123 86.7671 80.1041 86.7726 80.095 86.7764C80.086 86.7801 80.0763 86.782 80.0665 86.782Z" fill="#522EA3"/>
<path d="M72.6124 94.0524C72.4908 94.0524 72.3704 94.0283 72.2582 93.9816C72.1459 93.9349 72.044 93.8664 71.9584 93.7801C71.8727 93.6938 71.805 93.5914 71.7591 93.4789C71.7132 93.3663 71.69 93.2457 71.6909 93.1241V92.4872C71.6799 92.3591 71.6957 92.2301 71.7372 92.1084C71.7787 91.9867 71.845 91.875 71.9319 91.7802C72.0189 91.6855 72.1246 91.6099 72.2423 91.5582C72.36 91.5064 72.4872 91.4797 72.6158 91.4797C72.7443 91.4797 72.8715 91.5064 72.9892 91.5582C73.1069 91.6099 73.2126 91.6855 73.2996 91.7802C73.3865 91.875 73.4529 91.9867 73.4944 92.1084C73.5359 92.2301 73.5516 92.3591 73.5406 92.4872V93.1241C73.5406 93.3703 73.4429 93.6064 73.2688 93.7805C73.0947 93.9546 72.8586 94.0524 72.6124 94.0524Z" fill="#311B61"/>
<path d="M72.4436 93.3478C72.3896 93.3487 72.336 93.3388 72.2859 93.3188C72.2358 93.2987 72.1902 93.2689 72.1517 93.2311C72.1132 93.1933 72.0827 93.1481 72.0618 93.0984C72.041 93.0486 72.0303 92.9952 72.0303 92.9412V92.2907C72.0431 92.1911 72.0918 92.0995 72.1672 92.0332C72.2427 91.9668 72.3397 91.9302 72.4402 91.9302C72.5407 91.9302 72.6377 91.9668 72.7131 92.0332C72.7886 92.0995 72.8373 92.1911 72.8501 92.2907V92.9683C72.8432 93.0714 72.7974 93.1679 72.7219 93.2384C72.6464 93.3089 72.5469 93.348 72.4436 93.3478Z" fill="#3F237D"/>
<path d="M72.2881 92.9683C72.2593 92.9683 72.2318 92.9568 72.2114 92.9365C72.1911 92.9162 72.1797 92.8886 72.1797 92.8599V92.2229C72.1797 92.1942 72.1911 92.1666 72.2114 92.1463C72.2318 92.126 72.2593 92.1145 72.2881 92.1145C72.3169 92.1145 72.3444 92.126 72.3648 92.1463C72.3851 92.1666 72.3965 92.1942 72.3965 92.2229V92.8599C72.3965 92.8886 72.3851 92.9162 72.3648 92.9365C72.3444 92.9568 72.3169 92.9683 72.2881 92.9683Z" fill="#522EA3"/>
<path d="M80.2213 98.4566C80.0994 98.4566 79.9786 98.4326 79.866 98.3859C79.7534 98.3393 79.6511 98.2709 79.5649 98.1847C79.4787 98.0985 79.4103 97.9962 79.3636 97.8836C79.317 97.7709 79.293 97.6502 79.293 97.5283V96.8914C79.293 96.6452 79.3908 96.4091 79.5649 96.235C79.7389 96.0609 79.9751 95.9631 80.2213 95.9631C80.4674 95.9631 80.7035 96.0609 80.8776 96.235C81.0517 96.4091 81.1495 96.6452 81.1495 96.8914V97.5283C81.1495 97.6502 81.1255 97.7709 81.0789 97.8836C81.0322 97.9962 80.9638 98.0985 80.8776 98.1847C80.7914 98.2709 80.6891 98.3393 80.5765 98.3859C80.4639 98.4326 80.3432 98.4566 80.2213 98.4566Z" fill="#311B61"/>
<path d="M80.0667 97.7519C79.9589 97.7519 79.8555 97.7091 79.7792 97.6328C79.703 97.5566 79.6602 97.4532 79.6602 97.3454V96.7085C79.673 96.6088 79.7217 96.5173 79.7971 96.4509C79.8726 96.3846 79.9696 96.348 80.0701 96.348C80.1706 96.348 80.2676 96.3846 80.343 96.4509C80.4185 96.5173 80.4672 96.6088 80.48 96.7085V97.3454C80.48 97.3993 80.4693 97.4528 80.4484 97.5025C80.4276 97.5523 80.397 97.5974 80.3586 97.6353C80.3201 97.6731 80.2745 97.7029 80.2244 97.7229C80.1743 97.743 80.1207 97.7528 80.0667 97.7519Z" fill="#3F237D"/>
<path d="M79.917 97.3454C79.9022 97.3463 79.8873 97.3442 79.8734 97.3392C79.8594 97.3342 79.8467 97.3263 79.8359 97.3162C79.8251 97.306 79.8165 97.2937 79.8106 97.2801C79.8047 97.2665 79.8017 97.2518 79.8018 97.237V96.6001C79.8017 96.5853 79.8047 96.5706 79.8106 96.557C79.8165 96.5434 79.8251 96.5311 79.8359 96.5209C79.8467 96.5108 79.8594 96.5029 79.8734 96.4979C79.8873 96.4929 79.9022 96.4907 79.917 96.4917C79.9457 96.4917 79.9733 96.5031 79.9936 96.5234C80.0139 96.5437 80.0254 96.5713 80.0254 96.6001V97.237C80.0254 97.2658 80.0139 97.2933 79.9936 97.3137C79.9733 97.334 79.9457 97.3454 79.917 97.3454Z" fill="#522EA3"/>
<path d="M58.5533 71.5029C58.5533 72.2482 58.0316 72.5531 57.3811 72.1804C57.0385 71.9583 56.7532 71.6584 56.5484 71.3052C56.3435 70.952 56.2249 70.5554 56.2021 70.1477C56.2021 69.4024 56.7306 69.1043 57.3811 69.4702C57.7221 69.6935 58.0058 69.9938 58.2094 70.3469C58.413 70.6999 58.5308 71.0959 58.5533 71.5029Z" fill="#3F237D"/>
<path d="M58.3296 70.9337C58.3296 71.679 57.8011 71.9839 57.1506 71.6113C56.8073 71.3899 56.5214 71.0902 56.3165 70.7368C56.1115 70.3835 55.9933 69.9865 55.9717 69.5786C55.9717 68.8265 56.5002 68.5283 57.1506 68.901C57.4925 69.124 57.7772 69.424 57.982 69.7771C58.1867 70.1301 58.3058 70.5263 58.3296 70.9337Z" fill="#522EA3"/>
<path style="mix-blend-mode:screen" d="M71.4815 70.1071L69.1981 62.9519L65.3563 68.5757L65.0107 67.6678L69.1846 62.5251L71.9762 69.8902L71.4815 70.1071Z" fill="url(#paint68_radial_23_780)"/>
<path d="M59.482 36.73C58.5809 40.6192 58.757 52.2531 61.6841 54.7398C64.0014 56.7047 66.0816 55.4173 66.2239 58.2631C66.3661 61.1089 65.1668 61.3867 66.9014 62.6402C68.636 63.8937 78.2304 62.9723 78 59.93C77.7764 57.0503 77.1395 56.0272 78.4676 53.3643C79.7956 50.7015 83.6577 46.4124 83.0886 42.5977C82.5194 38.783 62.6734 22.9888 59.482 36.73Z" fill="url(#paint69_radial_23_780)"/>
<path d="M57.9638 36.2489C56.4325 35.6594 56.2156 31.4449 63.9874 26.2479C69.9635 22.257 81.6923 23.0498 85.1614 31.079C88.7729 39.4267 85.4867 44.0274 82.7425 50.051C81.0892 53.6827 78.1418 54.218 78.1418 54.218C78.1418 54.218 79.375 50.5253 80.4388 49.1701C81.9904 47.1984 83.1152 44.5897 81.9159 43.072C81.2383 42.2318 80.2016 41.7778 78.7448 43.2278C76.3327 45.64 73.7918 37.7327 67.7208 36.4928C62.6051 35.4629 59.5019 36.8383 57.9638 36.2489Z" fill="url(#paint70_linear_23_780)"/>
<path style="mix-blend-mode:multiply" opacity="0.8" d="M67.8695 56.8673C67.0274 56.9059 66.1853 56.7934 65.3828 56.5353C65.6619 56.7282 65.8848 56.9916 66.0288 57.2987C66.1729 57.6058 66.2329 57.9456 66.2027 58.2835C66.345 61.1428 65.1457 61.4071 66.8803 62.6606C67.4833 63.0942 69.1366 63.3381 70.9999 63.3381C73.7102 60.6279 73.5001 56.0814 73.5001 56.0814C71.6422 56.4646 69.7614 56.7271 67.8695 56.8673Z" fill="url(#paint71_linear_23_780)"/>
<path style="mix-blend-mode:screen" opacity="0.6" d="M59.9083 37.0416C59.9083 37.0416 59.0816 45.1725 60.2674 48.3977C61.4531 51.6229 68.3982 44.0816 69.1368 41.0054C69.8753 37.9292 67.0092 35.1512 59.9083 37.0416Z" fill="url(#paint72_linear_23_780)"/>
<path style="mix-blend-mode:multiply" opacity="0.5" d="M78.1415 54.2248C78.1415 54.2248 81.0889 53.6895 82.7422 50.0577C85.4863 44.0274 89.2536 39.4199 85.6422 31.0858C85.405 30.5434 85.1264 30.0201 84.8088 29.5206C82.959 30.0898 80.8585 31.2416 79.9032 33.586C78.8733 36.1066 76.1833 38.7288 73.9541 40.5921C75.9868 42.74 77.3894 44.6575 78.7445 43.3024C80.0996 41.9472 81.2448 42.3063 81.9155 43.1465C83.1148 44.6507 81.9901 47.2594 80.4384 49.2447C79.3882 50.532 78.1415 54.2248 78.1415 54.2248Z" fill="url(#paint73_linear_23_780)"/>
<path style="mix-blend-mode:multiply" opacity="0.5" d="M79.9178 46.9478C79.9178 46.9478 82.0047 44.7795 81.2729 43.6683C80.5412 42.5571 79.2402 44.2443 79.2402 44.2443L79.9178 46.9478Z" fill="url(#paint74_linear_23_780)"/>
<path style="mix-blend-mode:multiply" opacity="0.5" d="M68.547 35.4629C65.376 34.7176 59.4134 35.822 57.1436 34.7176C57.2181 35.5374 57.523 36.0727 57.9431 36.2489C59.4812 36.8384 62.5844 35.4629 67.7001 36.5131C72.1856 37.4278 74.74 41.9811 76.7457 43.3295C76.3459 42.4215 71.8333 36.2421 68.547 35.4629Z" fill="url(#paint75_linear_23_780)"/>
<path style="mix-blend-mode:screen" d="M130.784 88.3879L117.232 80.501L102.278 89.0248V103.911L115.776 111.71V111.723L115.789 111.717L115.796 111.723V111.71L130.784 103.274V88.3879Z" fill="url(#paint76_linear_23_780)"/>
<g opacity="0.9">
<path d="M115.772 96.9524V111.723L121.911 108.18V93.2935L115.772 96.9524Z" fill="url(#paint77_linear_23_780)"/>
<path d="M115.794 96.9523V111.723L102.276 103.911V89.0247L115.794 96.9523Z" fill="url(#paint78_linear_23_780)"/>
<path d="M102.276 89.0248L115.794 96.9524L121.912 93.2935L108.368 85.4066L102.276 89.0248Z" fill="url(#paint79_linear_23_780)"/>
</g>
<path d="M111.702 103.809C111.702 105.49 110.516 106.167 109.053 105.32C108.283 104.821 107.642 104.147 107.182 103.354C106.721 102.56 106.455 101.669 106.403 100.754C106.403 99.08 109.053 95.7057 109.053 95.7057C109.053 95.7057 111.702 102.156 111.702 103.809Z" fill="white"/>
<path style="mix-blend-mode:screen" d="M130.784 68.5825L117.232 60.6956L102.278 69.2262V84.1057L115.776 91.9045V91.918L115.789 91.9113L115.796 91.918V91.9045L130.784 83.4687V68.5825Z" fill="url(#paint80_linear_23_780)"/>
<g opacity="0.9">
<path d="M115.772 77.1538V91.918L121.911 88.3743V73.4881L115.772 77.1538Z" fill="url(#paint81_linear_23_780)"/>
<path d="M115.794 77.1538V91.918L102.276 84.1057V69.2262L115.794 77.1538Z" fill="url(#paint82_linear_23_780)"/>
<path d="M102.276 69.2262L115.794 77.1538L121.912 73.4881L108.368 65.608L102.276 69.2262Z" fill="url(#paint83_linear_23_780)"/>
</g>
<path d="M111.086 77.8991C110.239 77.4181 109.514 77.5739 109.148 78.2176C108.81 77.1711 108.127 76.2704 107.21 75.6632C105.997 74.9856 105.021 75.5954 105.021 77.0725C105.021 79.7828 109.148 85.4947 109.148 85.4947C109.148 85.4947 113.274 84.5393 113.274 81.8358C113.244 81.054 113.03 80.2902 112.65 79.6063C112.27 78.9225 111.734 78.3376 111.086 77.8991Z" fill="white"/>
<path style="mix-blend-mode:screen" d="M130.784 48.3096L117.232 40.4227L102.278 48.9465V63.8327L115.776 71.6315V71.6451L115.789 71.6383L115.796 71.6451V71.6315L130.784 63.1958V48.3096Z" fill="url(#paint84_linear_23_780)"/>
<g opacity="0.9">
<path d="M115.772 56.8741V71.6451L121.911 68.1015V53.2152L115.772 56.8741Z" fill="url(#paint85_linear_23_780)"/>
<path d="M115.794 56.8741V71.6451L102.276 63.8327V48.9465L115.794 56.8741Z" fill="url(#paint86_linear_23_780)"/>
<path d="M102.276 48.9466L115.794 56.8741L121.912 53.2153L108.368 45.3283L102.276 48.9466Z" fill="url(#paint87_linear_23_780)"/>
</g>
<path d="M113.146 61.1766L110.483 59.6386V56.5827L107.651 54.9498V58.0056L104.988 56.4675V59.7131L107.651 61.2512V64.3138L110.483 65.9467V62.8841L113.146 64.4222V61.1766Z" fill="white"/>
<path style="mix-blend-mode:color-dodge" d="M93.4137 71.8958C94.4098 79.2 91.8553 85.5827 87.7086 86.1248C83.5619 86.6668 79.3813 81.226 78.3852 73.9285C77.3892 66.6311 79.9437 60.2416 84.0904 59.6996C88.2371 59.1575 92.4177 64.5916 93.4137 71.8958Z" fill="url(#paint88_radial_23_780)"/>
<defs>
<linearGradient id="paint0_linear_23_780" x1="47.042" y1="7.07272" x2="112.82" y2="121.006" gradientUnits="userSpaceOnUse">
<stop offset="0.06" stop-color="#200041"/>
<stop offset="0.26" stop-color="#210243"/>
<stop offset="0.36" stop-color="#25084B"/>
<stop offset="0.43" stop-color="#2C1358"/>
<stop offset="0.47" stop-color="#311B61"/>
<stop offset="0.48" stop-color="#351F65"/>
<stop offset="0.5" stop-color="#422C73"/>
<stop offset="0.51" stop-color="#584188"/>
<stop offset="0.52" stop-color="#765FA7"/>
<stop offset="0.53" stop-color="#8770B8"/>
<stop offset="0.54" stop-color="#7E67AE"/>
<stop offset="0.56" stop-color="#5C468D"/>
<stop offset="0.59" stop-color="#442E75"/>
<stop offset="0.61" stop-color="#362066"/>
<stop offset="0.63" stop-color="#311B61"/>
<stop offset="0.67" stop-color="#2A1155"/>
<stop offset="0.75" stop-color="#230446"/>
<stop offset="0.81" stop-color="#200041"/>
<stop offset="1" stop-color="#200041"/>
</linearGradient>
<radialGradient id="paint1_radial_23_780" cx="0" cy="0" r="1" gradientUnits="userSpaceOnUse" gradientTransform="translate(149.26 53.3643) scale(123.44 123.44)">
<stop stop-color="#711F56"/>
<stop offset="0.16" stop-color="#6C1E52"/>
<stop offset="0.36" stop-color="#5C1946"/>
<stop offset="0.58" stop-color="#431233"/>
<stop offset="0.82" stop-color="#200918"/>
<stop offset="1"/>
</radialGradient>
<radialGradient id="paint2_radial_23_780" cx="0" cy="0" r="1" gradientUnits="userSpaceOnUse" gradientTransform="translate(128.613 44.5423) scale(72.7236 72.7236)">
<stop stop-color="#AF8AFC"/>
<stop offset="1" stop-color="#10054D"/>
</radialGradient>
<linearGradient id="paint3_linear_23_780" x1="134.475" y1="112.144" x2="-66.5666" y2="49.204" gradientUnits="userSpaceOnUse">
<stop offset="0.19" stop-color="#3D065F"/>
<stop offset="0.93" stop-color="#3D065F"/>
</linearGradient>
<linearGradient id="paint4_linear_23_780" x1="137.097" y1="189.949" x2="35.0009" y2="-25.7827" gradientUnits="userSpaceOnUse">
<stop stop-color="#311B61"/>
<stop offset="0.2" stop-color="#290F52"/>
<stop offset="0.49" stop-color="#200041"/>
<stop offset="1" stop-color="#0F001F"/>
</linearGradient>
<linearGradient id="paint5_linear_23_780" x1="62.2666" y1="99.5746" x2="126.385" y2="99.5746" gradientUnits="userSpaceOnUse">
<stop stop-color="#311B61"/>
<stop offset="0.2" stop-color="#290F52"/>
<stop offset="0.49" stop-color="#200041"/>
<stop offset="1" stop-color="#0F001F"/>
</linearGradient>
<linearGradient id="paint6_linear_23_780" x1="55.0245" y1="24.6285" x2="152.574" y2="210.642" gradientUnits="userSpaceOnUse">
<stop offset="0.01" stop-color="#08A652"/>
<stop offset="0.43" stop-color="#D1FFE6"/>
<stop offset="0.9" stop-color="#08A652"/>
</linearGradient>
<linearGradient id="paint7_linear_23_780" x1="107.517" y1="70.4965" x2="113.226" y2="80.43" gradientUnits="userSpaceOnUse">
<stop stop-color="#311B61"/>
<stop offset="0.2" stop-color="#290F52"/>
<stop offset="0.49" stop-color="#200041"/>
<stop offset="1" stop-color="#0F001F"/>
</linearGradient>
<linearGradient id="paint8_linear_23_780" x1="135.668" y1="78.719" x2="127.754" y2="78.3734" gradientUnits="userSpaceOnUse">
<stop stop-color="#3D065F"/>
<stop offset="1" stop-color="#5F27BD"/>
</linearGradient>
<radialGradient id="paint9_radial_23_780" cx="0" cy="0" r="1" gradientUnits="userSpaceOnUse" gradientTransform="translate(131.691 75.3379) scale(4.6481 4.64813)">
<stop stop-color="#711F56"/>
<stop offset="0.16" stop-color="#6C1E52"/>
<stop offset="0.36" stop-color="#5C1946"/>
<stop offset="0.58" stop-color="#431233"/>
<stop offset="0.82" stop-color="#200918"/>
<stop offset="1"/>
</radialGradient>
<linearGradient id="paint10_linear_23_780" x1="94.9463" y1="169.086" x2="109.921" y2="151.619" gradientUnits="userSpaceOnUse">
<stop stop-color="#FDD65B"/>
<stop offset="0.01" stop-color="#F7D159"/>
<stop offset="0.13" stop-color="#BEA144"/>
<stop offset="0.25" stop-color="#8B7632"/>
<stop offset="0.37" stop-color="#605223"/>
<stop offset="0.49" stop-color="#3E3416"/>
<stop offset="0.62" stop-color="#231D0C"/>
<stop offset="0.74" stop-color="#0F0D05"/>
<stop offset="0.87" stop-color="#040301"/>
<stop offset="1"/>
</linearGradient>
<linearGradient id="paint11_linear_23_780" x1="116.83" y1="176.133" x2="137.069" y2="170.069" gradientUnits="userSpaceOnUse">
<stop offset="0.04" stop-color="#FFA98C"/>
<stop offset="0.32" stop-color="#FFB892"/>
<stop offset="0.86" stop-color="#FEE1A3"/>
<stop offset="1" stop-color="#FEECA8"/>
</linearGradient>
<linearGradient id="paint12_linear_23_780" x1="33.3339" y1="178.539" x2="161.069" y2="149.904" gradientUnits="userSpaceOnUse">
<stop offset="0.04" stop-color="#FFA98C"/>
<stop offset="0.32" stop-color="#FFB892"/>
<stop offset="0.86" stop-color="#FEE1A3"/>
<stop offset="1" stop-color="#FEECA8"/>
</linearGradient>
<linearGradient id="paint13_linear_23_780" x1="105.468" y1="141.103" x2="97.5201" y2="156.253" gradientUnits="userSpaceOnUse">
<stop offset="0.04" stop-color="#FFA98C"/>
<stop offset="0.32" stop-color="#FFB892"/>
<stop offset="0.86" stop-color="#FEE1A3"/>
<stop offset="1" stop-color="#FEECA8"/>
</linearGradient>
<linearGradient id="paint14_linear_23_780" x1="75.0455" y1="125.918" x2="96.0976" y2="101.357" gradientUnits="userSpaceOnUse">
<stop stop-color="#43E8E1"/>
<stop offset="0.09" stop-color="#36BDB7"/>
<stop offset="0.22" stop-color="#288B87"/>
<stop offset="0.34" stop-color="#1C605D"/>
<stop offset="0.47" stop-color="#123E3C"/>
<stop offset="0.6" stop-color="#0A2321"/>
<stop offset="0.73" stop-color="#040F0F"/>
<stop offset="0.86" stop-color="#010404"/>
<stop offset="1"/>
</linearGradient>
<linearGradient id="paint15_linear_23_780" x1="99.3297" y1="133.921" x2="123.282" y2="126.752" gradientUnits="userSpaceOnUse">
<stop offset="0.04" stop-color="#138BBD"/>
<stop offset="0.23" stop-color="#169AC7"/>
<stop offset="0.59" stop-color="#1FC3DF"/>
<stop offset="1" stop-color="#2AF6FF"/>
</linearGradient>
<linearGradient id="paint16_linear_23_780" x1="0.492503" y1="136.733" x2="153.163" y2="102.508" gradientUnits="userSpaceOnUse">
<stop offset="0.04" stop-color="#138BBD"/>
<stop offset="0.23" stop-color="#169AC7"/>
<stop offset="0.59" stop-color="#1FC3DF"/>
<stop offset="1" stop-color="#2AF6FF"/>
</linearGradient>
<linearGradient id="paint17_linear_23_780" x1="85.2159" y1="92.2975" x2="76.8208" y2="108.288" gradientUnits="userSpaceOnUse">
<stop offset="0.04" stop-color="#138BBD"/>
<stop offset="0.23" stop-color="#169AC7"/>
<stop offset="0.59" stop-color="#1FC3DF"/>
<stop offset="1" stop-color="#2AF6FF"/>
</linearGradient>
<radialGradient id="paint18_radial_23_780" cx="0" cy="0" r="1" gradientUnits="userSpaceOnUse" gradientTransform="translate(28.0361 167.258) scale(19.1008 7.9317)">
<stop offset="0.19" stop-color="#5F5C5D"/>
<stop offset="1" stop-color="white"/>
</radialGradient>
<linearGradient id="paint19_linear_23_780" x1="11.9842" y1="149.715" x2="38.877" y2="149.715" gradientUnits="userSpaceOnUse">
<stop stop-color="#F2AA77"/>
<stop offset="0.23" stop-color="#FFFBC9"/>
<stop offset="0.54" stop-color="#ECA64C"/>
<stop offset="0.62" stop-color="#EDA84F"/>
<stop offset="0.68" stop-color="#EFAD5A"/>
<stop offset="0.74" stop-color="#F3B66C"/>
<stop offset="0.8" stop-color="#F8C385"/>
<stop offset="0.86" stop-color="#FED2A3"/>
<stop offset="1" stop-color="#ECA549"/>
</linearGradient>
<linearGradient id="paint20_linear_23_780" x1="11.9842" y1="167.786" x2="38.877" y2="167.786" gradientUnits="userSpaceOnUse">
<stop stop-color="#ECA12A"/>
<stop offset="0.23" stop-color="#FFFBC9"/>
<stop offset="0.54" stop-color="#DF9300"/>
<stop offset="0.6" stop-color="#E09403"/>
<stop offset="0.65" stop-color="#E2980E"/>
<stop offset="0.69" stop-color="#E59F20"/>
<stop offset="0.74" stop-color="#EAA939"/>
<stop offset="0.78" stop-color="#F0B65A"/>
<stop offset="0.83" stop-color="#F8C581"/>
<stop offset="0.86" stop-color="#FED2A3"/>
<stop offset="0.97" stop-color="#ECA30A"/>
</linearGradient>
<linearGradient id="paint21_linear_23_780" x1="11.9842" y1="151.978" x2="38.877" y2="151.978" gradientUnits="userSpaceOnUse">
<stop stop-color="#E3E3D8"/>
<stop offset="0.23" stop-color="white"/>
<stop offset="0.54" stop-color="#D4D1C5"/>
<stop offset="0.7" stop-color="#D7D4C8"/>
<stop offset="0.83" stop-color="#E0DED3"/>
<stop offset="0.87" stop-color="#E3E2D7"/>
<stop offset="1" stop-color="#CBC9B9"/>
</linearGradient>
<linearGradient id="paint22_linear_23_780" x1="39.1749" y1="134.083" x2="39.1817" y2="134.083" gradientUnits="userSpaceOnUse">
<stop stop-color="#B5BBCB"/>
<stop offset="0.23" stop-color="#ECEFF5"/>
<stop offset="0.54" stop-color="#9DA7B3"/>
<stop offset="0.65" stop-color="#A0AAB5"/>
<stop offset="0.75" stop-color="#ABB3BD"/>
<stop offset="0.85" stop-color="#BDC2C9"/>
<stop offset="0.87" stop-color="#C2C6CD"/>
<stop offset="1" stop-color="#B9BDCB"/>
</linearGradient>
<linearGradient id="paint23_linear_23_780" x1="11.9842" y1="163.015" x2="38.877" y2="163.015" gradientUnits="userSpaceOnUse">
<stop stop-color="#C211A1"/>
<stop offset="0.05" stop-color="#C718A5"/>
<stop offset="0.11" stop-color="#D72DB0"/>
<stop offset="0.2" stop-color="#EF4EC2"/>
<stop offset="0.24" stop-color="#FF63CE"/>
<stop offset="0.32" stop-color="#EB48BF"/>
<stop offset="0.45" stop-color="#C211A1"/>
<stop offset="0.54" stop-color="#A919AB"/>
<stop offset="0.64" stop-color="#AC1BAB"/>
<stop offset="0.73" stop-color="#B723AB"/>
<stop offset="0.82" stop-color="#C92FAA"/>
<stop offset="0.88" stop-color="#DC3DAA"/>
<stop offset="0.95" stop-color="#CD24A5"/>
<stop offset="1" stop-color="#C211A1"/>
</linearGradient>
<linearGradient id="paint24_linear_23_780" x1="11.3413" y1="128.148" x2="11.3413" y2="128.148" gradientUnits="userSpaceOnUse">
<stop stop-color="#FFBB96"/>
<stop offset="0.23" stop-color="#FFFBC9"/>
<stop offset="0.54" stop-color="#F9B673"/>
<stop offset="0.64" stop-color="#F9B876"/>
<stop offset="0.72" stop-color="#FABE81"/>
<stop offset="0.81" stop-color="#FCC993"/>
<stop offset="0.86" stop-color="#FED2A3"/>
<stop offset="0.97" stop-color="#FFC28C"/>
</linearGradient>
<linearGradient id="paint25_linear_23_780" x1="39.6906" y1="128.148" x2="39.6973" y2="128.148" gradientUnits="userSpaceOnUse">
<stop stop-color="#FFBB96"/>
<stop offset="0.23" stop-color="#FFFBC9"/>
<stop offset="0.54" stop-color="#F9B673"/>
<stop offset="0.64" stop-color="#F9B876"/>
<stop offset="0.72" stop-color="#FABE81"/>
<stop offset="0.81" stop-color="#FCC993"/>
<stop offset="0.86" stop-color="#FED2A3"/>
<stop offset="0.97" stop-color="#FFC28C"/>
</linearGradient>
<linearGradient id="paint26_linear_23_780" x1="11.4763" y1="130.58" x2="39.3854" y2="130.58" gradientUnits="userSpaceOnUse">
<stop stop-color="#C211A1"/>
<stop offset="0.05" stop-color="#C718A5"/>
<stop offset="0.11" stop-color="#D72DB0"/>
<stop offset="0.2" stop-color="#EF4EC2"/>
<stop offset="0.24" stop-color="#FF63CE"/>
<stop offset="0.32" stop-color="#EB48BF"/>
<stop offset="0.45" stop-color="#C211A1"/>
<stop offset="0.54" stop-color="#A919AB"/>
<stop offset="0.64" stop-color="#AC1BAB"/>
<stop offset="0.73" stop-color="#B723AB"/>
<stop offset="0.82" stop-color="#C92FAA"/>
<stop offset="0.88" stop-color="#DC3DAA"/>
<stop offset="0.95" stop-color="#CD24A5"/>
<stop offset="1" stop-color="#C211A1"/>
</linearGradient>
<linearGradient id="paint27_linear_23_780" x1="51.7172" y1="97.4131" x2="23.9842" y2="125.322" gradientUnits="userSpaceOnUse">
<stop offset="0.04" stop-color="#9F19AB"/>
<stop offset="0.24" stop-color="#AE25B1"/>
<stop offset="0.65" stop-color="#D744BF"/>
<stop offset="1" stop-color="#FF63CE"/>
</linearGradient>
<radialGradient id="paint28_radial_23_780" cx="0" cy="0" r="1" gradientUnits="userSpaceOnUse" gradientTransform="translate(19.4244 129.848) scale(17.8201 17.8201)">
<stop stop-color="white"/>
<stop offset="1"/>
</radialGradient>
<radialGradient id="paint29_radial_23_780" cx="0" cy="0" r="1" gradientUnits="userSpaceOnUse" gradientTransform="translate(13.9853 137.021) rotate(-70.3461) scale(2.99162 6.17277)">
<stop stop-color="#F49587"/>
<stop offset="0.12" stop-color="#BD7368"/>
<stop offset="0.24" stop-color="#8B554D"/>
<stop offset="0.36" stop-color="#603B35"/>
<stop offset="0.48" stop-color="#3E2622"/>
<stop offset="0.61" stop-color="#231513"/>
<stop offset="0.74" stop-color="#0F0908"/>
<stop offset="0.86" stop-color="#040202"/>
<stop offset="1"/>
</radialGradient>
<linearGradient id="paint30_linear_23_780" x1="11.9428" y1="144.619" x2="39.757" y2="144.619" gradientUnits="userSpaceOnUse">
<stop offset="0.01" stop-color="#C1A1D5"/>
<stop offset="0.05" stop-color="#C8ABDA"/>
<stop offset="0.11" stop-color="#DAC6E6"/>
<stop offset="0.2" stop-color="#F7F2F9"/>
<stop offset="0.22" stop-color="white"/>
<stop offset="0.25" stop-color="#F9F5FB"/>
<stop offset="0.3" stop-color="#E9DBF2"/>
<stop offset="0.36" stop-color="#D1B4E3"/>
<stop offset="0.43" stop-color="#B395D6"/>
<stop offset="0.49" stop-color="#9C7DCB"/>
<stop offset="0.56" stop-color="#8E6EC5"/>
<stop offset="0.61" stop-color="#8969C3"/>
<stop offset="0.76" stop-color="#9471C6"/>
<stop offset="1" stop-color="#B086CC"/>
</linearGradient>
<radialGradient id="paint31_radial_23_780" cx="0" cy="0" r="1" gradientUnits="userSpaceOnUse" gradientTransform="translate(18.1693 143.637) scale(3.21846 16.0923)">
<stop stop-color="#9DA7B3"/>
<stop offset="0.03" stop-color="#939DA8"/>
<stop offset="0.14" stop-color="#6C737C"/>
<stop offset="0.27" stop-color="#4B5056"/>
<stop offset="0.39" stop-color="#303336"/>
<stop offset="0.52" stop-color="#1B1C1E"/>
<stop offset="0.66" stop-color="#0C0C0D"/>
<stop offset="0.81" stop-color="#030303"/>
<stop offset="1"/>
</radialGradient>
<radialGradient id="paint32_radial_23_780" cx="0" cy="0" r="1" gradientUnits="userSpaceOnUse" gradientTransform="translate(7.38443 176.053) scale(7.53159 3.12753)">
<stop offset="0.19" stop-color="#5F5C5D"/>
<stop offset="1" stop-color="white"/>
</radialGradient>
<linearGradient id="paint33_linear_23_780" x1="1.09522" y1="171.953" x2="12.2412" y2="171.953" gradientUnits="userSpaceOnUse">
<stop stop-color="#E3E3D8"/>
<stop offset="0.23" stop-color="white"/>
<stop offset="0.54" stop-color="#D4D1C5"/>
<stop offset="0.7" stop-color="#D7D4C8"/>
<stop offset="0.83" stop-color="#E0DED3"/>
<stop offset="0.87" stop-color="#E3E2D7"/>
<stop offset="1" stop-color="#CBC9B9"/>
</linearGradient>
<radialGradient id="paint34_radial_23_780" cx="0" cy="0" r="1" gradientUnits="userSpaceOnUse" gradientTransform="translate(4.27364 171.478) scale(7.11448 7.1145)">
<stop stop-color="white"/>
<stop offset="1"/>
</radialGradient>
<radialGradient id="paint35_radial_23_780" cx="0" cy="0" r="1" gradientUnits="userSpaceOnUse" gradientTransform="translate(-0.642592 177.148) rotate(-70.3461) scale(1.19463 2.46495)">
<stop stop-color="#F49587"/>
<stop offset="0.12" stop-color="#BD7368"/>
<stop offset="0.24" stop-color="#8B554D"/>
<stop offset="0.36" stop-color="#603B35"/>
<stop offset="0.48" stop-color="#3E2622"/>
<stop offset="0.61" stop-color="#231513"/>
<stop offset="0.74" stop-color="#0F0908"/>
<stop offset="0.86" stop-color="#040202"/>
<stop offset="1"/>
</radialGradient>
<linearGradient id="paint36_linear_23_780" x1="17.1615" y1="158.53" x2="6.08999" y2="169.676" gradientUnits="userSpaceOnUse">
<stop offset="0.04" stop-color="#D4D1D8"/>
<stop offset="0.42" stop-color="#E2E0E5"/>
<stop offset="1" stop-color="white"/>
</linearGradient>
<linearGradient id="paint37_linear_23_780" x1="2.112" y1="169.256" x2="10.8459" y2="169.256" gradientUnits="userSpaceOnUse">
<stop stop-color="#E3E3D8"/>
<stop offset="0.23" stop-color="white"/>
<stop offset="0.54" stop-color="#D4D1C5"/>
<stop offset="0.7" stop-color="#D7D4C8"/>
<stop offset="0.83" stop-color="#E0DED3"/>
<stop offset="0.87" stop-color="#E3E2D7"/>
<stop offset="1" stop-color="#CBC9B9"/>
</linearGradient>
<radialGradient id="paint38_radial_23_780" cx="0" cy="0" r="1" gradientUnits="userSpaceOnUse" gradientTransform="translate(48.8793 185.984) scale(7.5316 3.12753)">
<stop offset="0.19" stop-color="#5F5C5D"/>
<stop offset="1" stop-color="white"/>
</radialGradient>
<linearGradient id="paint39_linear_23_780" x1="42.6235" y1="181.906" x2="53.7628" y2="181.906" gradientUnits="userSpaceOnUse">
<stop stop-color="#E3E3D8"/>
<stop offset="0.23" stop-color="white"/>
<stop offset="0.54" stop-color="#D4D1C5"/>
<stop offset="0.7" stop-color="#D7D4C8"/>
<stop offset="0.83" stop-color="#E0DED3"/>
<stop offset="0.87" stop-color="#E3E2D7"/>
<stop offset="1" stop-color="#CBC9B9"/>
</linearGradient>
<radialGradient id="paint40_radial_23_780" cx="0" cy="0" r="1" gradientUnits="userSpaceOnUse" gradientTransform="translate(45.7946 181.432) scale(7.11448 7.11448)">
<stop stop-color="white"/>
<stop offset="1"/>
</radialGradient>
<radialGradient id="paint41_radial_23_780" cx="0" cy="0" r="1" gradientUnits="userSpaceOnUse" gradientTransform="translate(41.409 187.495) rotate(-70.3461) scale(1.19463 2.46495)">
<stop stop-color="#F49587"/>
<stop offset="0.12" stop-color="#BD7368"/>
<stop offset="0.24" stop-color="#8B554D"/>
<stop offset="0.36" stop-color="#603B35"/>
<stop offset="0.48" stop-color="#3E2622"/>
<stop offset="0.61" stop-color="#231513"/>
<stop offset="0.74" stop-color="#0F0908"/>
<stop offset="0.86" stop-color="#040202"/>
<stop offset="1"/>
</radialGradient>
<linearGradient id="paint42_linear_23_780" x1="58.6887" y1="168.49" x2="47.6172" y2="179.629" gradientUnits="userSpaceOnUse">
<stop offset="0.04" stop-color="#D4D1D8"/>
<stop offset="0.42" stop-color="#E2E0E5"/>
<stop offset="1" stop-color="white"/>
</linearGradient>
<linearGradient id="paint43_linear_23_780" x1="43.6403" y1="179.209" x2="52.3674" y2="179.209" gradientUnits="userSpaceOnUse">
<stop stop-color="#E3E3D8"/>
<stop offset="0.23" stop-color="white"/>
<stop offset="0.54" stop-color="#D4D1C5"/>
<stop offset="0.7" stop-color="#D7D4C8"/>
<stop offset="0.83" stop-color="#E0DED3"/>
<stop offset="0.87" stop-color="#E3E2D7"/>
<stop offset="1" stop-color="#CBC9B9"/>
</linearGradient>
<radialGradient id="paint44_radial_23_780" cx="0" cy="0" r="1" gradientUnits="userSpaceOnUse" gradientTransform="translate(40.5909 185.037) rotate(-19.9831) scale(8.21784 2.9883)">
<stop offset="0.19" stop-color="#5F5C5D"/>
<stop offset="1" stop-color="white"/>
</radialGradient>
<linearGradient id="paint45_linear_23_780" x1="34.2693" y1="171.004" x2="36.8644" y2="175.503" gradientUnits="userSpaceOnUse">
<stop stop-color="#C211A1"/>
<stop offset="0.05" stop-color="#C718A5"/>
<stop offset="0.11" stop-color="#D72DB0"/>
<stop offset="0.2" stop-color="#EF4EC2"/>
<stop offset="0.24" stop-color="#FF63CE"/>
<stop offset="0.32" stop-color="#EB48BF"/>
<stop offset="0.45" stop-color="#C211A1"/>
<stop offset="0.54" stop-color="#A919AB"/>
<stop offset="0.64" stop-color="#AC1BAB"/>
<stop offset="0.73" stop-color="#B723AB"/>
<stop offset="0.82" stop-color="#C92FAA"/>
<stop offset="0.88" stop-color="#DC3DAA"/>
<stop offset="0.95" stop-color="#CD24A5"/>
<stop offset="1" stop-color="#C211A1"/>
</linearGradient>
<linearGradient id="paint46_linear_23_780" x1="28.5035" y1="174.832" x2="31.1189" y2="179.372" gradientUnits="userSpaceOnUse">
<stop stop-color="#E3E3D8"/>
<stop offset="0.18" stop-color="white"/>
<stop offset="0.54" stop-color="#D4D1C5"/>
<stop offset="0.7" stop-color="#D7D4C8"/>
<stop offset="0.83" stop-color="#E0DED3"/>
<stop offset="0.87" stop-color="#E3E2D7"/>
<stop offset="1" stop-color="#CBC9B9"/>
</linearGradient>
<radialGradient id="paint47_radial_23_780" cx="0" cy="0" r="1" gradientUnits="userSpaceOnUse" gradientTransform="translate(130.159 83.7726) rotate(-116.565) scale(1.04784 3.51026)">
<stop stop-color="#F49587"/>
<stop offset="0.12" stop-color="#BD7368"/>
<stop offset="0.24" stop-color="#8B554D"/>
<stop offset="0.36" stop-color="#603B35"/>
<stop offset="0.48" stop-color="#3E2622"/>
<stop offset="0.61" stop-color="#231513"/>
<stop offset="0.74" stop-color="#0F0908"/>
<stop offset="0.86" stop-color="#040202"/>
<stop offset="1"/>
</radialGradient>
<radialGradient id="paint48_radial_23_780" cx="0" cy="0" r="1" gradientUnits="userSpaceOnUse" gradientTransform="translate(26.4978 177.238) scale(2.01915)">
<stop stop-color="#F49587"/>
<stop offset="0.12" stop-color="#BD7368"/>
<stop offset="0.24" stop-color="#8B554D"/>
<stop offset="0.36" stop-color="#603B35"/>
<stop offset="0.48" stop-color="#3E2622"/>
<stop offset="0.61" stop-color="#231513"/>
<stop offset="0.74" stop-color="#0F0908"/>
<stop offset="0.86" stop-color="#040202"/>
<stop offset="1"/>
</radialGradient>
<radialGradient id="paint49_radial_23_780" cx="0" cy="0" r="1" gradientUnits="userSpaceOnUse" gradientTransform="translate(51.8604 174.038) rotate(30.4656) scale(7.5532 3.11966)">
<stop offset="0.19" stop-color="#5F5C5D"/>
<stop offset="1" stop-color="white"/>
</radialGradient>
<linearGradient id="paint50_linear_23_780" x1="48.052" y1="165.685" x2="45.4569" y2="170.184" gradientUnits="userSpaceOnUse">
<stop stop-color="#E3E3D8"/>
<stop offset="0.18" stop-color="white"/>
<stop offset="0.54" stop-color="#D4D1C5"/>
<stop offset="0.7" stop-color="#D7D4C8"/>
<stop offset="0.83" stop-color="#E0DED3"/>
<stop offset="0.87" stop-color="#E3E2D7"/>
<stop offset="1" stop-color="#CBC9B9"/>
</linearGradient>
<linearGradient id="paint51_linear_23_780" x1="53.8175" y1="169.513" x2="51.1953" y2="174.046" gradientUnits="userSpaceOnUse">
<stop stop-color="#C211A1"/>
<stop offset="0.05" stop-color="#C718A5"/>
<stop offset="0.11" stop-color="#D72DB0"/>
<stop offset="0.2" stop-color="#EF4EC2"/>
<stop offset="0.24" stop-color="#FF63CE"/>
<stop offset="0.32" stop-color="#EB48BF"/>
<stop offset="0.45" stop-color="#C211A1"/>
<stop offset="0.54" stop-color="#A919AB"/>
<stop offset="0.64" stop-color="#AC1BAB"/>
<stop offset="0.73" stop-color="#B723AB"/>
<stop offset="0.82" stop-color="#C92FAA"/>
<stop offset="0.88" stop-color="#DC3DAA"/>
<stop offset="0.95" stop-color="#CD24A5"/>
<stop offset="1" stop-color="#C211A1"/>
</linearGradient>
<radialGradient id="paint52_radial_23_780" cx="0" cy="0" r="1" gradientUnits="userSpaceOnUse" gradientTransform="translate(28.9569 115.389) rotate(-63.4351) scale(1.04784 3.51026)">
<stop stop-color="#F49587"/>
<stop offset="0.12" stop-color="#BD7368"/>
<stop offset="0.24" stop-color="#8B554D"/>
<stop offset="0.36" stop-color="#603B35"/>
<stop offset="0.48" stop-color="#3E2622"/>
<stop offset="0.61" stop-color="#231513"/>
<stop offset="0.74" stop-color="#0F0908"/>
<stop offset="0.86" stop-color="#040202"/>
<stop offset="1"/>
</radialGradient>
<radialGradient id="paint53_radial_23_780" cx="0" cy="0" r="1" gradientUnits="userSpaceOnUse" gradientTransform="translate(55.8158 171.919) rotate(180) scale(2.01917 2.01915)">
<stop stop-color="#F49587"/>
<stop offset="0.12" stop-color="#BD7368"/>
<stop offset="0.24" stop-color="#8B554D"/>
<stop offset="0.36" stop-color="#603B35"/>
<stop offset="0.48" stop-color="#3E2622"/>
<stop offset="0.61" stop-color="#231513"/>
<stop offset="0.74" stop-color="#0F0908"/>
<stop offset="0.86" stop-color="#040202"/>
<stop offset="1"/>
</radialGradient>
<linearGradient id="paint54_linear_23_780" x1="62.0155" y1="65.9806" x2="97.6218" y2="49.2108" gradientUnits="userSpaceOnUse">
<stop stop-color="#43E8E1"/>
<stop offset="0.09" stop-color="#36BDB7"/>
<stop offset="0.22" stop-color="#288B87"/>
<stop offset="0.34" stop-color="#1C605D"/>
<stop offset="0.47" stop-color="#123E3C"/>
<stop offset="0.6" stop-color="#0A2321"/>
<stop offset="0.73" stop-color="#040F0F"/>
<stop offset="0.86" stop-color="#010404"/>
<stop offset="1"/>
</linearGradient>
<radialGradient id="paint55_radial_23_780" cx="0" cy="0" r="1" gradientUnits="userSpaceOnUse" gradientTransform="translate(74.2118 62.8435) scale(28.7222)">
<stop stop-color="#2AF6FF"/>
<stop offset="1" stop-color="#138BBD"/>
</radialGradient>
<linearGradient id="paint56_linear_23_780" x1="69.2932" y1="88.8554" x2="67.457" y2="62.6538" gradientUnits="userSpaceOnUse">
<stop offset="0.04" stop-color="#6B24D6"/>
<stop offset="0.29" stop-color="#7733DC"/>
<stop offset="0.79" stop-color="#975CED"/>
<stop offset="1" stop-color="#A56EF4"/>
</linearGradient>
<radialGradient id="paint57_radial_23_780" cx="0" cy="0" r="1" gradientUnits="userSpaceOnUse" gradientTransform="translate(70.359 60.9241) rotate(13.53) scale(12.3368 8.15482)">
<stop offset="0.19" stop-color="#5F5C5D"/>
<stop offset="1" stop-color="white"/>
</radialGradient>
<linearGradient id="paint58_linear_23_780" x1="59.0891" y1="71.0963" x2="66.6847" y2="71.0963" gradientUnits="userSpaceOnUse">
<stop stop-color="white"/>
<stop offset="1" stop-color="#BCBEC0"/>
</linearGradient>
<radialGradient id="paint59_radial_23_780" cx="0" cy="0" r="1" gradientUnits="userSpaceOnUse" gradientTransform="translate(68.9006 65.0456) scale(21.8381)">
<stop stop-color="white"/>
<stop offset="0.73" stop-color="#D4D1D8"/>
<stop offset="0.98" stop-color="#C2C0CC"/>
</radialGradient>
<radialGradient id="paint60_radial_23_780" cx="0" cy="0" r="1" gradientUnits="userSpaceOnUse" gradientTransform="translate(78.7316 70.6355) scale(25.6664)">
<stop stop-color="white"/>
<stop offset="0.73" stop-color="#D4D1D8"/>
<stop offset="0.98" stop-color="#C2C0CC"/>
</radialGradient>
<radialGradient id="paint61_radial_23_780" cx="0" cy="0" r="1" gradientUnits="userSpaceOnUse" gradientTransform="translate(70.3835 57.6872) scale(56.6584)">
<stop offset="0.38" stop-color="white"/>
<stop offset="0.46" stop-color="#F9F8FB"/>
<stop offset="0.58" stop-color="#E8E3F1"/>
<stop offset="0.73" stop-color="#CBC2E1"/>
<stop offset="0.89" stop-color="#A593CA"/>
<stop offset="1" stop-color="#8770B8"/>
</radialGradient>
<linearGradient id="paint62_linear_23_780" x1="54.6364" y1="78.3599" x2="55.0836" y2="55.912" gradientUnits="userSpaceOnUse">
<stop stop-color="white"/>
<stop offset="1" stop-color="#BCBEC0"/>
</linearGradient>
<radialGradient id="paint63_radial_23_780" cx="0" cy="0" r="1" gradientUnits="userSpaceOnUse" gradientTransform="translate(70.384 57.6872) scale(56.6584)">
<stop offset="0.38" stop-color="white"/>
<stop offset="0.46" stop-color="#F9F8FB"/>
<stop offset="0.58" stop-color="#E8E3F1"/>
<stop offset="0.73" stop-color="#CBC2E1"/>
<stop offset="0.89" stop-color="#A593CA"/>
<stop offset="1" stop-color="#8770B8"/>
</radialGradient>
<radialGradient id="paint64_radial_23_780" cx="0" cy="0" r="1" gradientUnits="userSpaceOnUse" gradientTransform="translate(70.1938 62.2675) scale(26.0458 26.0458)">
<stop stop-color="#2AF6FF"/>
<stop offset="1" stop-color="#138BBD"/>
</radialGradient>
<linearGradient id="paint65_linear_23_780" x1="68.4326" y1="75.7986" x2="85.0941" y2="75.7986" gradientUnits="userSpaceOnUse">
<stop stop-color="white"/>
<stop offset="1" stop-color="#BCBEC0"/>
</linearGradient>
<radialGradient id="paint66_radial_23_780" cx="0" cy="0" r="1" gradientUnits="userSpaceOnUse" gradientTransform="translate(77.6001 64.8694) scale(35.4843 35.4843)">
<stop stop-color="white"/>
<stop offset="0.73" stop-color="#D4D1D8"/>
<stop offset="0.98" stop-color="#C2C0CC"/>
</radialGradient>
<radialGradient id="paint67_radial_23_780" cx="0" cy="0" r="1" gradientUnits="userSpaceOnUse" gradientTransform="translate(67.4846 57.694) scale(56.4484 56.4484)">
<stop stop-color="white"/>
<stop offset="0.73" stop-color="#D4D1D8"/>
<stop offset="0.98" stop-color="#C2C0CC"/>
</radialGradient>
<radialGradient id="paint68_radial_23_780" cx="0" cy="0" r="1" gradientUnits="userSpaceOnUse" gradientTransform="translate(68.8255 64.097) scale(5.25117 5.25116)">
<stop stop-color="white"/>
<stop offset="1"/>
</radialGradient>
<radialGradient id="paint69_radial_23_780" cx="0" cy="0" r="1" gradientUnits="userSpaceOnUse" gradientTransform="translate(67.6942 43.8173) scale(15.6451 15.6451)">
<stop offset="0.03" stop-color="#FEDFCB"/>
<stop offset="1" stop-color="#F9B69E"/>
</radialGradient>
<linearGradient id="paint70_linear_23_780" x1="75.4383" y1="55.8103" x2="68.8659" y2="18.3204" gradientUnits="userSpaceOnUse">
<stop offset="0.04" stop-color="#231A15"/>
<stop offset="0.16" stop-color="#1D1513"/>
<stop offset="0.4" stop-color="#2C231E"/>
<stop offset="0.586458" stop-color="#4B3B30"/>
<stop offset="1" stop-color="#27221E"/>
</linearGradient>
<linearGradient id="paint71_linear_23_780" x1="71.813" y1="60.987" x2="65.8571" y2="55.1057" gradientUnits="userSpaceOnUse">
<stop stop-color="white"/>
<stop offset="1" stop-color="#DBAC9B"/>
</linearGradient>
<linearGradient id="paint72_linear_23_780" x1="59.7185" y1="38.8711" x2="66.1555" y2="44.9692" gradientUnits="userSpaceOnUse">
<stop stop-color="white"/>
<stop offset="1"/>
</linearGradient>
<linearGradient id="paint73_linear_23_780" x1="77.945" y1="35.8627" x2="81.8478" y2="42.4893" gradientUnits="userSpaceOnUse">
<stop stop-color="white"/>
<stop offset="1" stop-color="#BCBEC0"/>
</linearGradient>
<linearGradient id="paint74_linear_23_780" x1="79.3012" y1="45.5316" x2="81.937" y2="44.2917" gradientUnits="userSpaceOnUse">
<stop stop-color="white"/>
<stop offset="1" stop-color="#BCBEC0"/>
</linearGradient>
<linearGradient id="paint75_linear_23_780" x1="68.0524" y1="45.2809" x2="65.5454" y2="30.9774" gradientUnits="userSpaceOnUse">
<stop stop-color="white"/>
<stop offset="1" stop-color="#BCBEC0"/>
</linearGradient>
<linearGradient id="paint76_linear_23_780" x1="110.016" y1="100.543" x2="129.801" y2="87.1954" gradientUnits="userSpaceOnUse">
<stop stop-color="#C211A1"/>
<stop offset="0.01" stop-color="#BD119D"/>
<stop offset="0.15" stop-color="#8B0C73"/>
<stop offset="0.29" stop-color="#600850"/>
<stop offset="0.42" stop-color="#3E0533"/>
<stop offset="0.56" stop-color="#23031D"/>
<stop offset="0.7" stop-color="#0F010D"/>
<stop offset="0.85" stop-color="#040003"/>
<stop offset="1"/>
</linearGradient>
<linearGradient id="paint77_linear_23_780" x1="117.283" y1="102.976" x2="137.807" y2="96.8304" gradientUnits="userSpaceOnUse">
<stop offset="0.04" stop-color="#08A652"/>
<stop offset="0.24" stop-color="#13BF64"/>
<stop offset="0.65" stop-color="#19E076"/>
<stop offset="1" stop-color="#A4FFCF"/>
</linearGradient>
<linearGradient id="paint78_linear_23_780" x1="86.0215" y1="105.53" x2="133.038" y2="94.9942" gradientUnits="userSpaceOnUse">
<stop offset="0.04" stop-color="#08A652"/>
<stop offset="0.24" stop-color="#00A34C"/>
<stop offset="0.65" stop-color="#15FF82"/>
<stop offset="1" stop-color="#99FFC9"/>
</linearGradient>
<linearGradient id="paint79_linear_23_780" x1="118.924" y1="78.143" x2="111.566" y2="92.1687" gradientUnits="userSpaceOnUse">
<stop offset="0.04" stop-color="#08A652"/>
<stop offset="0.24" stop-color="#B5FFD8"/>
<stop offset="0.65" stop-color="#C8FFE2"/>
<stop offset="1" stop-color="#08A652"/>
</linearGradient>
<linearGradient id="paint80_linear_23_780" x1="110.016" y1="80.7381" x2="129.801" y2="67.39" gradientUnits="userSpaceOnUse">
<stop stop-color="#C211A1"/>
<stop offset="0.01" stop-color="#BD119D"/>
<stop offset="0.15" stop-color="#8B0C73"/>
<stop offset="0.29" stop-color="#600850"/>
<stop offset="0.42" stop-color="#3E0533"/>
<stop offset="0.56" stop-color="#23031D"/>
<stop offset="0.7" stop-color="#0F010D"/>
<stop offset="0.85" stop-color="#040003"/>
<stop offset="1"/>
</linearGradient>
<linearGradient id="paint81_linear_23_780" x1="117.283" y1="83.1706" x2="137.807" y2="77.025" gradientUnits="userSpaceOnUse">
<stop offset="0.04" stop-color="#08A652"/>
<stop offset="0.24" stop-color="#13BF64"/>
<stop offset="0.65" stop-color="#19E076"/>
<stop offset="1" stop-color="#A4FFCF"/>
</linearGradient>
<linearGradient id="paint82_linear_23_780" x1="86.0215" y1="85.7318" x2="133.038" y2="75.1889" gradientUnits="userSpaceOnUse">
<stop offset="0.04" stop-color="#08A651"/>
<stop offset="0.24" stop-color="#08A652"/>
<stop offset="0.65" stop-color="#53FFA4"/>
<stop offset="1" stop-color="#53FFA4"/>
</linearGradient>
<linearGradient id="paint83_linear_23_780" x1="118.924" y1="58.3376" x2="111.566" y2="72.3701" gradientUnits="userSpaceOnUse">
<stop offset="0.04" stop-color="#08A652"/>
<stop offset="0.24" stop-color="#1BD070"/>
<stop offset="0.65" stop-color="#21E07E"/>
<stop offset="1" stop-color="#09BA5C"/>
</linearGradient>
<linearGradient id="paint84_linear_23_780" x1="110.016" y1="60.4652" x2="129.801" y2="47.1171" gradientUnits="userSpaceOnUse">
<stop stop-color="#C211A1"/>
<stop offset="0.01" stop-color="#BD119D"/>
<stop offset="0.15" stop-color="#8B0C73"/>
<stop offset="0.29" stop-color="#600850"/>
<stop offset="0.42" stop-color="#3E0533"/>
<stop offset="0.56" stop-color="#23031D"/>
<stop offset="0.7" stop-color="#0F010D"/>
<stop offset="0.85" stop-color="#040003"/>
<stop offset="1"/>
</linearGradient>
<linearGradient id="paint85_linear_23_780" x1="117.283" y1="62.8977" x2="137.807" y2="56.7522" gradientUnits="userSpaceOnUse">
<stop offset="0.04" stop-color="#08A652"/>
<stop offset="0.24" stop-color="#13BF64"/>
<stop offset="0.65" stop-color="#19E076"/>
<stop offset="1" stop-color="#A4FFCF"/>
</linearGradient>
<linearGradient id="paint86_linear_23_780" x1="86.0215" y1="65.4521" x2="133.038" y2="54.916" gradientUnits="userSpaceOnUse">
<stop offset="0.04" stop-color="#08A652"/>
<stop offset="0.24" stop-color="#00A34C"/>
<stop offset="0.65" stop-color="#15FF82"/>
<stop offset="1" stop-color="#99FFC9"/>
</linearGradient>
<linearGradient id="paint87_linear_23_780" x1="118.924" y1="38.0648" x2="111.566" y2="52.0905" gradientUnits="userSpaceOnUse">
<stop offset="0.04" stop-color="#08A652"/>
<stop offset="0.24" stop-color="#B5FFD8"/>
<stop offset="0.65" stop-color="#C8FFE2"/>
<stop offset="1" stop-color="#08A652"/>
</linearGradient>
<radialGradient id="paint88_radial_23_780" cx="0" cy="0" r="1" gradientUnits="userSpaceOnUse" gradientTransform="translate(93.6031 68.857) rotate(-7.69604) scale(7.50844 13.3956)">
<stop stop-color="#271273"/>
<stop offset="0.08" stop-color="#210F60"/>
<stop offset="0.26" stop-color="#150A3D"/>
<stop offset="0.44" stop-color="#0C0522"/>
<stop offset="0.62" stop-color="#05020F"/>
<stop offset="0.81" stop-color="#010104"/>
<stop offset="1"/>
</radialGradient>
</defs>
</svg>
