<svg width="269" height="332" viewBox="0 0 269 332" fill="none" xmlns="http://www.w3.org/2000/svg">
<g opacity="0.2">
<path opacity="0.09" d="M100.313 251.15L109.973 245.756C110.364 245.532 128.49 235.637 128.836 235.838L135.057 232.789C137.871 231.159 142.004 230.623 145.577 230.623C148.598 230.646 151.567 231.413 154.222 232.856L197.778 257.683L207.07 262.977L259.951 293.131C261.644 294.086 263.06 295.463 264.061 297.129C264.728 298.297 265.111 299.606 265.178 300.949C265.278 304.445 263.134 307.762 259.259 309.995L249.598 315.378C249.207 315.602 231.081 325.497 230.735 325.296L224.503 328.356C221.7 329.975 217.568 330.511 213.994 330.511C210.969 330.487 207.997 329.719 205.339 328.278L161.782 303.451L152.49 298.157L99.6313 268.014C97.9382 267.059 96.5221 265.682 95.5214 264.016C94.8477 262.851 94.4646 261.541 94.4045 260.196C94.2929 256.734 96.4371 253.383 100.313 251.15Z" fill="black"/>
<path opacity="0.18" d="M101.273 251.92L110.677 246.727C111.458 246.269 128.434 237.346 129.115 237.737L135.157 235.246C137.681 233.783 142.082 233.694 145.298 233.694C148.218 233.828 151.068 234.631 153.63 236.039L195.935 260.163L204.959 265.311L256.333 294.572C257.957 295.515 259.344 296.818 260.387 298.38C261.062 299.48 261.467 300.724 261.571 302.01C261.772 305.36 259.728 308.599 255.931 310.788L246.527 315.993C245.745 316.439 228.77 325.374 228.088 324.927L222.046 327.429C219.522 328.881 215.122 328.981 211.906 328.981C208.986 328.847 206.135 328.045 203.574 326.636L161.224 302.524L152.2 297.375L100.826 268.114C99.203 267.17 97.8165 265.867 96.7723 264.306C96.0994 263.205 95.6939 261.962 95.5884 260.676C95.4321 257.348 97.4759 254.121 101.273 251.92Z" fill="black"/>
<path opacity="0.27" d="M102.234 252.691L111.38 247.688C112.564 247.006 128.367 239.043 129.395 239.635L135.258 237.748C137.492 236.452 142.16 236.799 145.008 236.799C147.831 237.036 150.572 237.87 153.049 239.245L194.07 262.698L202.815 267.69L252.636 296.013C254.198 296.934 255.558 298.161 256.634 299.62C257.314 300.66 257.753 301.839 257.919 303.071C258.22 306.276 256.288 309.437 252.558 311.592L243.411 316.596C242.238 317.277 226.424 325.24 225.397 324.659L219.545 326.591C217.311 327.887 212.643 327.54 209.784 327.54C206.964 327.305 204.226 326.471 201.754 325.095L160.722 301.641L151.977 296.649L102.2 268.237C100.641 267.313 99.2813 266.086 98.2018 264.63C97.5204 263.591 97.085 262.411 96.9286 261.179C96.5712 258.007 98.5145 254.847 102.234 252.691Z" fill="black"/>
<path opacity="0.36" d="M103.206 253.462L112.084 248.648C113.659 247.744 128.312 240.741 129.674 241.523L135.348 240.149C137.313 239.032 142.239 239.803 144.729 239.803C146.907 239.803 150.894 241.445 152.457 242.338L192.194 265.054L200.671 269.89L248.895 297.442C250.395 298.348 251.728 299.504 252.837 300.86C253.532 301.837 254.004 302.953 254.222 304.132C254.624 307.203 252.804 310.286 249.141 312.396L240.206 317.21C238.631 318.114 223.979 325.117 222.605 324.335L216.932 325.709C214.966 326.826 210.052 326.055 207.55 326.055C205.373 326.055 201.385 324.413 199.833 323.509L160.085 300.804L151.609 295.957L103.395 268.405C101.894 267.502 100.56 266.346 99.4531 264.987C98.7547 264.017 98.2816 262.903 98.0682 261.726C97.722 258.655 99.5313 255.617 103.206 253.462Z" fill="black"/>
<path opacity="0.45" d="M104.166 254.221L112.788 249.609C114.753 248.492 128.245 242.427 129.953 243.41L135.448 242.595C137.123 241.623 142.305 242.863 144.45 242.863C146.315 242.863 150.525 244.717 151.865 245.488L190.329 267.5L198.526 272.191L245.198 298.883C246.639 299.77 247.948 300.857 249.085 302.11C249.788 303.022 250.29 304.073 250.559 305.193C251.073 308.119 249.364 311.123 245.757 313.2L237.146 317.813C235.169 318.93 221.678 324.994 219.98 324.011L214.486 324.827C212.799 325.798 207.617 324.559 205.473 324.559C203.608 324.559 199.397 322.705 198.068 321.934L159.605 299.921L151.396 295.231L104.735 268.539C103.29 267.657 101.981 266.57 100.849 265.311C100.138 264.402 99.6314 263.351 99.3635 262.229C98.8609 259.303 100.57 256.298 104.166 254.221Z" fill="black"/>
<path opacity="0.55" d="M105.137 254.992L113.491 250.524C115.848 249.162 128.189 244.08 130.244 245.264L135.549 244.996C136.956 244.192 142.395 245.867 144.182 245.867C145.734 245.867 150.168 247.956 151.285 248.603L188.464 269.901L196.393 274.436L241.468 300.29C242.862 301.147 244.151 302.162 245.31 303.317C246.025 304.168 246.561 305.156 246.885 306.22C247.499 309.001 245.891 311.927 242.417 313.971L234.063 318.438C231.696 319.801 219.366 324.871 217.311 323.699L212.006 323.955C210.599 324.771 205.149 323.084 203.362 323.084C201.81 323.084 197.387 321.007 196.27 320.359L159.091 299.061L151.162 294.516L106.042 268.684C104.654 267.82 103.369 266.801 102.211 265.646C101.498 264.796 100.959 263.813 100.626 262.754C99.989 259.95 101.597 257.024 105.137 254.992Z" fill="black"/>
<path opacity="0.64" d="M106.098 255.751L114.195 251.53C116.953 249.944 128.133 245.823 130.512 247.196L135.638 247.498C136.755 246.839 142.462 248.972 143.891 248.972C145.131 248.972 149.788 251.284 150.681 251.798L186.587 272.369L194.238 276.759L237.794 301.742C239.139 302.571 240.406 303.521 241.58 304.579C242.301 305.372 242.869 306.292 243.255 307.292C243.981 309.939 242.473 312.787 239.011 314.786L230.914 319.008C228.155 320.594 216.976 324.715 214.597 323.341L209.471 323.04C208.354 323.699 202.647 321.565 201.218 321.565C199.978 321.565 195.321 319.254 194.427 318.74L158.522 298.168L150.871 293.779L107.315 268.796C105.97 267.966 104.703 267.017 103.529 265.959C102.807 265.166 102.239 264.246 101.854 263.245C101.128 260.598 102.636 257.75 106.098 255.751Z" fill="black"/>
<path opacity="0.73" d="M107.059 256.522L114.876 252.49C118.026 250.67 128.044 247.52 130.769 249.14L135.705 249.988C136.554 249.497 142.518 252.077 143.59 252.077C144.662 252.077 149.397 254.601 150.067 254.992L184.689 274.882L192.071 279.115L234.075 303.25C235.399 304.007 236.649 304.89 237.805 305.885C238.62 306.546 239.234 307.42 239.581 308.409C240.407 310.922 239.011 313.692 235.616 315.646L227.798 319.678C224.649 321.498 214.631 324.659 211.906 323.084L206.969 322.236C206.132 322.716 200.157 320.147 199.085 320.147C198.013 320.147 193.277 317.612 192.607 317.232L157.986 297.342L150.603 293.098L108.566 268.93C107.248 268.167 106.003 267.285 104.847 266.294C104.024 265.635 103.405 264.756 103.06 263.759C102.267 261.257 103.663 258.487 107.059 256.522Z" fill="black"/>
<path opacity="0.82" d="M108.03 257.292L115.602 253.45C119.143 251.407 128.01 249.207 131.082 250.982L135.828 252.389C136.387 252.066 142.618 255.081 143.333 255.081C144.048 255.081 149.051 257.84 149.498 258.096L182.846 277.272L189.949 281.371L230.401 304.634C231.671 305.373 232.895 306.19 234.064 307.08C234.899 307.671 235.553 308.483 235.951 309.426C236.889 311.793 235.594 314.485 232.266 316.406L224.716 320.248C221.176 322.291 212.308 324.492 209.248 322.716L204.502 321.309C203.932 321.632 197.7 318.617 196.985 318.617C196.271 318.617 191.267 315.858 190.82 315.602L157.483 296.415L150.369 292.327L109.884 269.019C108.614 268.281 107.39 267.464 106.221 266.573C105.389 265.979 104.736 265.168 104.334 264.228C103.407 261.905 104.702 259.213 108.03 257.292Z" fill="black"/>
<path opacity="0.91" d="M108.99 258.052L116.305 254.411C120.247 252.177 127.953 250.904 131.36 252.87L135.916 254.847C136.196 254.679 142.695 258.141 143.053 258.141C143.41 258.141 148.637 261.112 148.905 261.246L180.969 279.718L187.804 283.661L226.703 306.075C226.87 306.176 230.232 308.175 230.31 308.309C231.16 308.829 231.848 309.576 232.298 310.464C233.337 312.698 232.153 315.3 228.881 317.165L221.565 320.806C217.634 323.04 209.928 324.313 206.522 322.347L201.954 320.393C201.675 320.549 195.186 317.098 194.829 317.098C194.471 317.098 189.245 314.116 188.965 313.982L156.901 295.51L150.078 291.568L111.179 269.153C111.011 269.064 107.638 267.053 107.56 266.919C106.713 266.395 106.029 265.644 105.583 264.753C104.534 262.553 105.729 259.939 108.99 258.052Z" fill="black"/>
<path d="M203.832 322.068L156.367 294.706L108.902 267.299C105.16 265.132 105.629 261.358 109.951 258.856L117.01 255.405C121.343 252.903 127.888 252.635 131.64 254.802L179.105 282.197L226.559 309.604C230.311 311.771 229.842 315.546 225.509 318.047L218.451 321.51C214.129 323.967 207.584 324.235 203.832 322.068Z" fill="black"/>
</g>
<path d="M203.831 315.981L120.851 268.058C111.481 262.653 103.898 248.157 103.898 235.671V14.618C103.898 8.27441 98.6826 6.86721 101.843 4.56656C101.955 4.47721 109.248 1.21609 109.382 1.11558C112.788 -0.191107 116.429 -0.771854 120.851 1.7745L203.854 49.6974C213.213 55.1028 220.807 69.6103 220.807 82.0852V303.171C220.807 309.805 218.663 314.529 215.223 316.696C215.022 316.819 206.288 320.996 206.02 321.074C202.994 322.079 207.964 318.349 203.831 315.981Z" fill="url(#paint0_linear_17_67)"/>
<path style="mix-blend-mode:color-dodge" d="M203.06 49.9765L120.058 2.09837C115.591 -0.447985 198.481 51.5513 198.481 51.5513C207.84 56.9567 215.435 71.4642 215.435 83.9391C215.435 83.9391 220.014 310.084 220.014 303.451V82.3756C220.014 69.8895 212.43 55.382 203.06 49.9765Z" fill="url(#paint1_radial_17_67)"/>
<path style="mix-blend-mode:screen" opacity="0.6" d="M197.387 318.93L114.373 271.007C105.014 265.601 97.4199 251.105 97.4199 238.619V17.5664C97.4199 5.0803 105.014 -0.660165 114.373 4.74526L197.387 52.6681C206.746 58.0735 214.34 72.581 214.34 85.056V306.12C214.34 318.595 206.746 324.335 197.387 318.93Z" fill="url(#paint2_radial_17_67)"/>
<path d="M195.901 319.734L112.899 271.811C103.54 266.406 95.9453 251.898 95.9453 239.423V18.3593C95.9453 5.88444 103.54 0.143975 112.899 5.5494L195.901 53.4722C205.271 58.8777 212.854 73.374 212.854 85.8601V306.913C212.854 319.399 205.271 325.139 195.901 319.734Z" fill="url(#paint3_linear_17_67)"/>
<path d="M98.2578 240.886V19.5655C98.2578 8.62067 104.959 3.58381 113.123 8.3303L195.678 55.9963C203.887 60.7316 210.532 73.4522 210.532 84.3971V305.718C210.532 316.663 203.887 321.688 195.678 316.953L113.112 269.276C104.914 264.552 98.2578 251.831 98.2578 240.886Z" fill="url(#paint4_linear_17_67)"/>
<path d="M101.563 242.215V22.0337C101.563 12.8646 107.148 8.63185 114.005 12.6301L194.807 59.2797C201.675 63.2445 207.248 73.8878 207.248 83.0457V303.25C207.248 312.408 201.664 316.651 194.807 312.653L114.005 266.004C107.136 262.039 101.563 251.396 101.563 242.215Z" fill="url(#paint5_linear_17_67)"/>
<path d="M114.943 15.0647C108.466 11.3234 103.217 14.3165 103.217 21.7657V244.449C103.217 251.876 108.466 260.933 114.943 264.663L193.869 310.241C200.347 313.982 205.596 310.989 205.596 303.54V80.8567C205.596 73.4187 200.347 64.3724 193.869 60.6311L114.943 15.0647Z" fill="url(#paint6_linear_17_67)"/>
<path d="M215.089 137.011V122.09C215.104 121.118 215.346 120.164 215.795 119.303C216.245 118.442 216.891 117.698 217.68 117.131C219.109 116.305 220.271 117.187 220.271 119.097V134.017C220.256 134.987 220.014 135.94 219.564 136.8C219.114 137.659 218.469 138.401 217.68 138.965C216.25 139.791 215.089 138.92 215.089 137.011Z" fill="url(#paint7_linear_17_67)"/>
<path d="M216.652 138.719C215.915 138.719 215.646 137.792 215.646 137.011V122.09C215.664 121.218 215.882 120.362 216.283 119.587C216.683 118.813 217.257 118.14 217.958 117.623C218.183 117.48 218.441 117.399 218.707 117.388C219.444 117.388 219.712 118.304 219.712 119.097V134.017C219.694 134.889 219.477 135.746 219.076 136.52C218.675 137.295 218.102 137.967 217.4 138.485C217.175 138.627 216.917 138.708 216.652 138.719Z" fill="url(#paint8_linear_17_67)"/>
<g style="mix-blend-mode:multiply">
<path d="M193.869 60.6311L114.943 15.0647C108.466 11.3234 103.217 14.3165 103.217 21.7657V244.449C103.217 251.876 108.466 260.933 114.943 264.663L193.869 310.241C200.347 313.982 205.596 310.989 205.596 303.54V80.8567C205.596 73.4187 200.347 64.3724 193.869 60.6311ZM204.613 303.529C204.721 305.482 204.166 307.414 203.038 309.012C202.576 309.592 201.985 310.055 201.312 310.367C200.64 310.679 199.904 310.831 199.163 310.811C197.48 310.736 195.845 310.228 194.417 309.336L115.48 263.759C109.303 260.196 104.311 251.474 104.311 244.427V21.7433C104.311 17.276 106.4 14.4728 109.75 14.4728C111.437 14.5435 113.077 15.0515 114.508 15.947L193.434 61.5134C199.621 65.0872 204.658 73.7984 204.658 80.8567L204.613 303.529Z" fill="#BCBEC0"/>
</g>
<path style="mix-blend-mode:screen" d="M212.877 262.977L142.585 222.448L121.756 235.28V263.703L191.982 304.11V304.132L191.993 304.121L192.004 304.132V304.11L212.877 291.4V262.977Z" fill="url(#paint9_linear_17_67)"/>
<g opacity="0.9">
<path d="M191.981 275.876V304.132L200.882 298.994V270.571L191.981 275.876Z" fill="url(#paint10_linear_17_67)"/>
<path d="M192.004 275.876V304.132L121.756 263.703V235.28L192.004 275.876Z" fill="url(#paint11_linear_17_67)"/>
<path d="M121.756 235.28L192.004 275.876L200.883 270.571L130.59 230.042L121.756 235.28Z" fill="url(#paint12_linear_17_67)"/>
</g>
<path d="M146.538 256.734V259.28L185.917 282.019V279.472L146.538 256.734Z" fill="white"/>
<path d="M173.465 282.879L146.538 267.321V269.868L173.465 285.425V282.879Z" fill="white"/>
<path d="M146.538 264.574L185.917 287.313V284.766L146.538 262.028V264.574Z" fill="white"/>
<path d="M138.721 261.313C137.835 260.547 137.08 259.642 136.487 258.633C136.118 258.007 136.13 257.337 136.487 257.125C136.979 256.823 137.369 256.379 137.604 255.852C137.995 255.963 138.486 255.852 138.486 255.282C138.487 254.743 138.284 254.224 137.916 253.83C137.938 252.548 137.615 251.284 136.98 250.17C136.346 249.056 135.423 248.133 134.309 247.498C131.606 245.934 130.802 247.42 130.702 249.665C130.378 249.598 130.143 249.91 130.143 250.457C130.234 251.077 130.543 251.643 131.015 252.055C131.288 252.958 131.662 253.827 132.131 254.646C132.489 255.271 132.5 255.963 132.131 256.153C131.429 256.479 130.627 256.515 129.898 256.254C128.781 255.908 127.921 256.589 127.921 257.985V260.419C127.936 260.676 128.011 260.925 128.141 261.146C128.272 261.368 128.452 261.555 128.669 261.693L139.916 268.181C140.318 268.427 140.653 268.237 140.653 267.768V265.345C140.613 264.578 140.422 263.827 140.09 263.135C139.759 262.443 139.293 261.824 138.721 261.313Z" fill="white"/>
<path style="mix-blend-mode:screen" d="M197.052 180.6L114.586 132.923L81.6396 152.479V192.517L164.039 240.071V240.093L164.061 240.082L164.072 240.093V240.071L197.052 220.638V180.6Z" fill="url(#paint13_linear_17_67)"/>
<g opacity="0.9">
<path d="M164.04 200.234V240.093L172.941 234.956V194.929L164.04 200.234Z" fill="url(#paint14_linear_17_67)"/>
<path d="M164.073 200.234V240.093L81.6406 192.517V152.479L164.073 200.234Z" fill="url(#paint15_linear_17_67)"/>
<path d="M81.6406 152.479L164.073 200.234L172.941 194.929L90.4747 147.241L81.6406 152.479Z" fill="url(#paint16_linear_17_67)"/>
</g>
<path d="M111.336 187.39V189.937L157.974 216.852V214.306L111.336 187.39Z" fill="white"/>
<path d="M145.522 217.723L111.336 197.978V200.524L145.522 220.27V217.723Z" fill="white"/>
<path d="M111.336 195.23L157.974 222.157V219.6L111.336 192.684V195.23Z" fill="white"/>
<path d="M111.336 176.792V179.338L157.974 206.265V203.718L111.336 176.792Z" fill="white"/>
<path d="M111.336 184.632L157.974 211.558V209.012L111.336 182.086V184.632Z" fill="white"/>
<path d="M102.647 189.914C101.756 189.148 100.954 188.282 100.257 187.335L96.4265 189.512L92.607 182.923C91.8028 183.05 90.9801 182.985 90.2058 182.733C88.687 182.264 87.626 183.202 87.626 184.967V186.899C87.64 187.15 87.7131 187.394 87.8392 187.611C87.9654 187.829 88.141 188.013 88.3519 188.15L104.501 197.542C104.903 197.777 105.238 197.542 105.238 197.129V195.197C105.184 194.187 104.927 193.199 104.482 192.291C104.037 191.383 103.413 190.575 102.647 189.914Z" fill="white"/>
<path d="M101.642 179.316L91.2109 173.296C90.9652 173.296 90.7754 173.687 90.7754 174.19C90.9017 174.874 91.2608 175.493 91.7917 175.943L91.948 176.088L92.015 176.3C92.4019 177.548 92.9303 178.747 93.5898 179.874C93.8909 180.387 94.0598 180.966 94.0812 181.561C94.0978 181.761 94.0599 181.963 93.9714 182.144C93.8829 182.324 93.7472 182.478 93.5786 182.588C93.4431 182.661 93.301 182.721 93.1542 182.767L96.4265 188.418L99.6988 186.542C99.5536 186.329 99.4084 186.095 99.2744 185.872C98.9719 185.388 98.8023 184.833 98.783 184.263C98.7545 184.05 98.7853 183.833 98.872 183.636C98.9587 183.439 99.0979 183.27 99.2744 183.146C99.9631 182.733 100.512 182.122 100.849 181.393L100.905 181.248H101.072C101.497 181.371 102.078 181.248 102.078 180.656C102.064 180.177 101.913 179.711 101.642 179.316Z" fill="white"/>
<path d="M100.962 171.23C100.933 170.952 100.842 170.684 100.695 170.446C100.548 170.208 100.349 170.006 100.113 169.856L92.7417 165.601C92.3062 165.344 91.9376 165.523 91.893 166.003L91.3457 172.704L101.52 178.579L100.962 171.23ZM98.8284 174.011L97.2649 173.106V174.904L95.6008 173.944V172.146L94.0372 171.241V169.343L95.6008 170.247V168.505L97.2649 169.454V171.252L98.8284 172.157V174.011Z" fill="white"/>
<path style="mix-blend-mode:multiply" d="M46.505 280.88C63.9112 280.88 78.0217 275.009 78.0217 267.768C78.0217 260.527 63.9112 254.657 46.505 254.657C29.0988 254.657 14.9883 260.527 14.9883 267.768C14.9883 275.009 29.0988 280.88 46.505 280.88Z" fill="url(#paint17_radial_17_67)"/>
<path d="M63.5141 212.139H18.4727V265.132C18.4727 265.199 18.4727 265.255 18.4727 265.322C18.4727 272.559 28.5241 278.434 40.9878 278.434C53.4515 278.434 63.5141 272.559 63.5141 265.322C63.5141 265.255 63.5141 265.199 63.5141 265.132V212.139Z" fill="url(#paint18_linear_17_67)"/>
<path opacity="0.2" d="M40.9878 280.053C28.5576 280.053 18.4727 274.179 18.4727 266.942V270.136C18.4727 277.373 28.5241 283.247 40.9878 283.247C53.4515 283.247 63.5141 277.373 63.5141 270.136V266.986C63.5141 274.179 53.4292 280.053 40.9878 280.053Z" fill="url(#paint19_linear_17_67)"/>
<path d="M40.9878 236.452C28.5576 236.452 18.4727 230.578 18.4727 223.341V261.402C18.4727 261.469 18.4727 261.525 18.4727 261.592C18.4727 268.829 28.5241 274.704 40.9878 274.704C53.4515 274.704 63.5141 268.829 63.5141 261.592C63.5141 261.525 63.5141 261.469 63.5141 261.402V223.341C63.5141 230.578 53.4292 236.452 40.9878 236.452Z" fill="url(#paint20_linear_17_67)"/>
<path d="M63.5138 219.611V219.432C63.5026 219.488 63.5138 219.555 63.5138 219.611Z" fill="url(#paint21_linear_17_67)"/>
<path d="M40.9878 272.749C28.5576 272.749 18.4727 266.875 18.4727 259.638V261.67C18.4727 268.918 28.5241 274.793 40.9878 274.793C53.4515 274.793 63.5141 268.918 63.5141 261.67V259.638C63.5141 266.875 53.4292 272.749 40.9878 272.749Z" fill="url(#paint22_linear_17_67)"/>
<g style="mix-blend-mode:multiply">
<path d="M17.6242 209.649V209.827C17.6188 209.764 17.6188 209.701 17.6242 209.638V209.649Z" fill="url(#paint23_linear_17_67)"/>
<path d="M40.9888 224.234C30.2338 224.234 21.1875 219.991 18.4736 214.183V215.646C21.1875 221.409 30.2338 225.697 40.9888 225.697C51.7438 225.697 60.8012 221.454 63.5151 215.646V214.183C60.8012 219.991 51.7549 224.234 40.9888 224.234Z" fill="#E6E7E8"/>
<path d="M64.3634 209.827V209.638C64.3522 209.716 64.3634 209.827 64.3634 209.827Z" fill="url(#paint24_linear_17_67)"/>
</g>
<path d="M64.363 203.182H17.624V210.52V210.71C17.624 218.226 28.0886 224.324 40.9879 224.324C53.8872 224.324 64.363 218.226 64.363 210.71C64.363 210.643 64.363 210.587 64.363 210.52V203.182Z" fill="url(#paint25_linear_17_67)"/>
<g style="mix-blend-mode:multiply" opacity="0.5">
<path d="M48.1455 223.665L48.8044 223.52V206.242H48.1455V223.665Z" fill="#9F19AB"/>
<path d="M51.082 222.972L51.741 222.783V206.242H51.082V222.972Z" fill="#9F19AB"/>
<path d="M54.0205 222.012L54.6794 221.722V206.242H54.0205V222.012Z" fill="#9F19AB"/>
<path d="M45.208 224.089L45.8669 224.022V206.242H45.208V224.089Z" fill="#9F19AB"/>
<path d="M59.8945 218.695C60.1179 218.505 60.3413 218.338 60.5535 218.148V205.494H59.8945V218.695Z" fill="#9F19AB"/>
<path d="M62.832 215.523C63.0738 215.167 63.2902 214.793 63.4798 214.406V202.512H62.832V215.523Z" fill="#9F19AB"/>
<path d="M56.957 220.627L57.616 220.27V206.242H56.957V220.627Z" fill="#9F19AB"/>
<path d="M42.2822 224.279H42.93V206.242H42.2822V224.279Z" fill="#9F19AB"/>
<path d="M39.3223 224.268H39.97V206.242H39.3223V224.268Z" fill="#9F19AB"/>
<path d="M33.4707 223.587L34.1296 223.721V206.242H33.4707V223.587Z" fill="#9F19AB"/>
<path d="M36.4082 224.056L37.0559 224.112V206.242H36.4082V224.056Z" fill="#9F19AB"/>
<path d="M30.5332 222.872L31.1921 223.051V206.298H30.5332V222.872Z" fill="#9F19AB"/>
<path d="M18.7842 214.942C18.9851 215.304 19.2051 215.654 19.4431 215.992V202.512H18.7842V214.942Z" fill="#9F19AB"/>
<path d="M21.7217 218.405C21.9339 218.583 22.1572 218.751 22.3806 218.918V205.516H21.7217V218.405Z" fill="#9F19AB"/>
<path d="M27.5957 221.856L28.2546 222.112V206.242H27.5957V221.856Z" fill="#9F19AB"/>
<path d="M24.6592 220.437C24.8714 220.56 25.0947 220.672 25.3181 220.783V206.265H24.6592V220.437Z" fill="#9F19AB"/>
</g>
<path d="M40.9874 216.149C53.8971 216.149 64.3625 210.053 64.3625 202.535C64.3625 195.016 53.8971 188.92 40.9874 188.92C28.0777 188.92 17.6123 195.016 17.6123 202.535C17.6123 210.053 28.0777 216.149 40.9874 216.149Z" fill="url(#paint26_linear_17_67)"/>
<path style="mix-blend-mode:screen" d="M40.9876 215.769C28.3564 215.769 18.0928 209.928 17.6572 202.635C17.6572 202.791 17.6572 202.948 17.6572 203.115C17.6572 210.632 28.1218 216.718 41.0211 216.718C53.9204 216.718 64.3962 210.632 64.3962 203.115C64.3962 202.948 64.3962 202.791 64.3962 202.635C63.8937 209.928 53.6301 215.769 40.9876 215.769Z" fill="url(#paint27_radial_17_67)"/>
<path style="mix-blend-mode:color-dodge" d="M29.7637 210.375C35.0128 212.162 38.5531 215.724 37.6596 218.326C36.7662 220.929 31.8075 221.588 26.5584 219.789C21.3093 217.991 17.7578 214.451 18.6513 211.849C19.5447 209.247 24.5035 208.588 29.7637 210.375Z" fill="url(#paint28_radial_17_67)"/>
<path d="M49.3739 238.306C46.6342 238.937 43.8313 239.251 41.02 239.244C28.5898 239.244 18.5049 233.37 18.5049 226.133V234.397C18.5049 234.453 18.5049 234.509 18.5049 234.576C18.5049 241.813 28.5563 247.688 41.02 247.688C43.8339 247.673 46.6369 247.336 49.3739 246.683V238.306Z" fill="url(#paint29_linear_17_67)"/>
<path style="mix-blend-mode:screen" d="M28.8811 261.804C31.8109 261.804 34.186 249.929 34.186 235.28C34.186 220.631 31.8109 208.755 28.8811 208.755C25.9513 208.755 23.5762 220.631 23.5762 235.28C23.5762 249.929 25.9513 261.804 28.8811 261.804Z" fill="url(#paint30_radial_17_67)"/>
<path style="mix-blend-mode:multiply" d="M12.4302 287.48C19.2953 287.48 24.8604 285.165 24.8604 282.309C24.8604 279.453 19.2953 277.138 12.4302 277.138C5.56521 277.138 0 279.453 0 282.309C0 285.165 5.56521 287.48 12.4302 287.48Z" fill="url(#paint31_radial_17_67)"/>
<path d="M19.3096 277.429H0.647461V280.947C0.647461 280.947 0.647461 281.002 0.647461 281.025C0.647461 284.029 4.82439 286.464 9.98411 286.464C15.1438 286.464 19.3096 284.029 19.3096 281.025V280.947V277.429Z" fill="url(#paint32_linear_17_67)"/>
<path style="mix-blend-mode:screen" d="M9.98435 282.421C4.93631 282.421 0.837581 280.087 0.670057 277.172C0.664668 277.235 0.664668 277.299 0.670057 277.362C0.670057 280.366 4.84696 282.801 10.0067 282.801C15.1664 282.801 19.3321 280.366 19.3321 277.362C19.3321 277.295 19.3321 277.239 19.3321 277.172C19.12 280.12 15.0212 282.421 9.98435 282.421Z" fill="url(#paint33_radial_17_67)"/>
<path style="mix-blend-mode:color-dodge" d="M5.49474 280.299C7.59437 281.014 9.00158 282.432 8.65537 283.471C8.30915 284.509 6.31004 284.766 4.18808 284.063C2.06611 283.359 0.670067 281.918 1.02745 280.88C1.38483 279.841 3.39511 279.584 5.49474 280.299Z" fill="url(#paint34_radial_17_67)"/>
<path d="M9.98519 271.733C7.6419 271.682 5.32782 272.26 3.28426 273.408C3.26307 273.555 3.1967 273.692 3.09438 273.799C2.87739 273.942 2.62746 274.026 2.36846 274.045C1.87185 274.405 1.46184 274.872 1.1682 275.411C0.874561 275.95 0.704684 276.548 0.670898 277.161C0.670898 280.165 4.8478 282.6 10.0075 282.6C15.1672 282.6 19.333 280.165 19.333 277.161C19.333 274.156 15.1337 271.733 9.98519 271.733Z" fill="url(#paint35_linear_17_67)"/>
<path d="M3.27225 273.241L16.7858 280.846C16.8621 280.882 16.9211 280.947 16.9503 281.026C16.9795 281.106 16.9766 281.193 16.9421 281.27C16.8697 281.448 16.7327 281.592 16.5587 281.673C16.3847 281.753 16.1865 281.765 16.004 281.706L15.7583 281.606L2.35645 274.045C2.61545 274.026 2.86538 273.942 3.08237 273.799C3.21219 273.643 3.2798 273.444 3.27225 273.241Z" fill="url(#paint36_linear_17_67)"/>
<path style="mix-blend-mode:multiply" d="M93.3107 298.715C93.3107 301.563 87.7266 303.886 80.8804 303.886C74.0343 303.886 68.4502 301.563 68.4502 298.715C68.4502 295.867 74.0343 293.544 80.8804 293.544C87.7266 293.544 93.3107 295.823 93.3107 298.715Z" fill="url(#paint37_radial_17_67)"/>
<path d="M87.7597 293.835H69.0977V297.364V297.431C69.0977 300.435 73.2746 302.87 78.4231 302.87C83.5717 302.87 87.7597 300.435 87.7597 297.431C87.7597 297.431 87.7597 297.431 87.7597 297.364V293.835Z" fill="url(#paint38_linear_17_67)"/>
<path style="mix-blend-mode:screen" d="M78.412 298.86C73.3751 298.86 69.2763 296.526 69.0977 293.623C69.0977 293.678 69.0977 293.745 69.0977 293.812C69.0977 296.806 73.2746 299.24 78.4231 299.24C83.5717 299.24 87.7598 296.806 87.7598 293.812C87.7659 293.749 87.7659 293.686 87.7598 293.623C87.5699 296.526 83.4712 298.86 78.412 298.86Z" fill="url(#paint39_radial_17_67)"/>
<path style="mix-blend-mode:color-dodge" d="M73.9446 296.705C76.0443 297.42 77.4515 298.838 77.0941 299.877C76.7367 300.915 74.7599 301.183 72.6268 300.469C70.4937 299.754 69.12 298.336 69.4774 297.297C69.8347 296.258 71.845 295.99 73.9446 296.705Z" fill="url(#paint40_radial_17_67)"/>
<path d="M78.412 288.139C76.069 288.091 73.7558 288.67 71.711 289.814C71.6921 289.962 71.6254 290.099 71.5211 290.205C71.3041 290.35 71.0547 290.438 70.7952 290.462C70.2969 290.821 69.8856 291.287 69.5918 291.827C69.298 292.366 69.1291 292.965 69.0977 293.578C69.0977 296.571 73.2746 299.006 78.4231 299.006C83.5717 299.006 87.7597 296.571 87.7597 293.578C87.7597 290.585 83.5828 288.139 78.412 288.139Z" fill="url(#paint41_linear_17_67)"/>
<path d="M71.7117 289.658L85.2253 297.252C85.2979 297.293 85.3536 297.358 85.3823 297.435C85.411 297.513 85.4107 297.599 85.3816 297.677C85.3071 297.853 85.1704 297.996 84.9975 298.078C84.8246 298.161 84.6274 298.177 84.4435 298.123L84.1978 298.023L70.7959 290.462C71.0554 290.438 71.3048 290.35 71.5218 290.205C71.6509 290.053 71.7186 289.858 71.7117 289.658Z" fill="url(#paint42_linear_17_67)"/>
<path style="mix-blend-mode:multiply" d="M66.5732 285.09C67.5113 287.659 62.5749 291.791 55.5501 294.382C48.5253 296.973 42.0701 296.94 41.1319 294.382C40.1938 291.824 45.1302 287.681 52.155 285.09C59.1798 282.499 65.635 282.521 66.5732 285.09Z" fill="url(#paint43_radial_17_67)"/>
<path d="M64.6299 283.102C64.6317 282.304 64.4264 281.519 64.0341 280.824C63.6417 280.129 63.0757 279.548 62.3915 279.137C61.7072 278.726 60.9281 278.5 60.1303 278.481C59.3324 278.461 58.5431 278.649 57.8396 279.026C57.7391 279.026 50.1782 283.493 50.1559 283.493C49.5751 283.828 50.5244 283.839 50.5244 284.878C50.595 286.024 50.9353 287.137 51.5175 288.127C52.0997 289.117 52.9074 289.955 53.8749 290.574C54.7795 291.099 54.3998 291.858 54.9917 291.523C54.9917 291.523 62.4409 287.111 62.5079 287.056C63.1697 286.633 63.7121 286.047 64.0835 285.355C64.4549 284.663 64.643 283.887 64.6299 283.102Z" fill="url(#paint44_linear_17_67)"/>
<path d="M52.3229 283.772C51.9953 283.532 51.6105 283.382 51.2068 283.337C50.8031 283.292 50.3947 283.353 50.0222 283.515C50.0222 283.515 42.4167 287.983 42.439 288.072C41.6569 288.65 41.0768 289.459 40.7812 290.386C40.4857 291.312 40.4897 292.308 40.7928 293.232C41.0958 294.156 41.6824 294.961 42.4692 295.532C43.256 296.104 44.2028 296.412 45.1752 296.415C45.8849 296.419 46.5856 296.255 47.219 295.934C47.2748 295.934 54.6905 291.568 54.7017 291.556C55.0239 291.318 55.2787 291.001 55.4412 290.635C55.6037 290.269 55.6683 289.867 55.6287 289.468C55.5665 288.325 55.2346 287.213 54.66 286.223C54.0854 285.233 53.2845 284.393 52.3229 283.772Z" fill="url(#paint45_linear_17_67)"/>
<path style="mix-blend-mode:color-dodge" d="M52.8814 282.611C55.6958 281.025 58.3538 280.377 58.8117 281.226C59.2696 282.075 57.371 283.996 54.5678 285.581C51.7646 287.167 49.0954 287.815 48.6375 286.977C48.1796 286.14 50.0782 284.208 52.8814 282.611Z" fill="url(#paint46_radial_17_67)"/>
<path style="mix-blend-mode:color-dodge" d="M46.3594 291.199C46.3572 291.735 46.1961 292.259 45.8966 292.704C45.597 293.149 45.1724 293.495 44.6763 293.698C44.1802 293.902 43.6349 293.954 43.1092 293.848C42.5835 293.742 42.101 293.483 41.7226 293.103C41.3441 292.723 41.0868 292.239 40.983 291.713C40.8792 291.187 40.9336 290.642 41.1393 290.147C41.345 289.652 41.6928 289.228 42.1389 288.931C42.5849 288.633 43.1092 288.474 43.6455 288.474C44.0028 288.474 44.3567 288.545 44.6866 288.682C45.0166 288.819 45.3163 289.02 45.5685 289.273C45.8206 289.526 46.0203 289.827 46.156 290.157C46.2917 290.488 46.3608 290.842 46.3594 291.199Z" fill="url(#paint47_radial_17_67)"/>
<path style="mix-blend-mode:multiply" d="M95.1643 287.681C93.7124 290.138 87.7374 289.3 81.8294 285.816C75.9214 282.332 72.2918 277.507 73.7436 275.05C75.1955 272.593 81.1705 273.419 87.0785 276.904C92.9865 280.388 96.5715 285.224 95.1643 287.681Z" fill="url(#paint48_radial_17_67)"/>
<path d="M68.9191 274.335C68.9173 273.537 69.1226 272.752 69.515 272.057C69.9073 271.362 70.4733 270.781 71.1575 270.37C71.8418 269.959 72.6209 269.733 73.4188 269.713C74.2166 269.694 75.0059 269.882 75.7094 270.259C75.8099 270.259 83.3708 274.726 83.3931 274.726C83.9739 275.072 83.0134 275.083 83.0134 276.122C82.9499 277.263 82.6185 278.374 82.0462 279.363C81.4738 280.353 80.6765 281.194 79.7188 281.818C78.8142 282.343 79.1939 283.102 78.602 282.767C78.602 282.767 71.164 278.356 71.0969 278.3C70.4247 277.881 69.8714 277.296 69.4901 276.602C69.1087 275.908 68.9121 275.127 68.9191 274.335Z" fill="url(#paint49_linear_17_67)"/>
<path d="M81.2154 275.005C81.5451 274.765 81.9318 274.615 82.3372 274.57C82.7426 274.525 83.1528 274.586 83.5272 274.748C83.5272 274.748 91.1328 279.216 91.1104 279.305C92.0009 280.002 92.604 281.003 92.8051 282.116C93.0062 283.229 92.7914 284.377 92.2013 285.342C91.6113 286.307 90.6872 287.022 89.6048 287.35C88.5224 287.678 87.3571 287.597 86.3304 287.123C86.3304 287.123 78.8589 282.756 78.8477 282.745C78.5239 282.508 78.2677 282.191 78.1051 281.824C77.9424 281.458 77.8788 281.055 77.9207 280.656C77.9894 279.522 78.3233 278.42 78.8955 277.439C79.4677 276.457 80.2623 275.624 81.2154 275.005Z" fill="url(#paint50_linear_17_67)"/>
<path style="mix-blend-mode:color-dodge" d="M80.6458 273.844C77.8426 272.258 75.1845 271.61 74.7266 272.459C74.2687 273.308 76.1562 275.229 78.9705 276.814C81.7849 278.4 84.443 279.048 84.9009 278.21C85.3588 277.373 83.4713 275.43 80.6458 273.844Z" fill="url(#paint51_radial_17_67)"/>
<path style="mix-blend-mode:color-dodge" d="M87.1904 282.421C87.1904 282.958 87.3496 283.482 87.6478 283.929C87.946 284.375 88.3699 284.723 88.8658 284.928C89.3617 285.134 89.9073 285.187 90.4338 285.083C90.9602 284.978 91.4438 284.719 91.8233 284.34C92.2029 283.96 92.4613 283.477 92.5661 282.95C92.6708 282.424 92.617 281.878 92.4116 281.382C92.2062 280.886 91.8584 280.463 91.4121 280.164C90.9658 279.866 90.4411 279.707 89.9043 279.707C89.1846 279.707 88.4943 279.993 87.9853 280.502C87.4764 281.011 87.1904 281.701 87.1904 282.421Z" fill="url(#paint52_radial_17_67)"/>
<path style="mix-blend-mode:screen" d="M105.216 41.2989L132.321 25.8755L170.527 66.8406L165.267 84.1067L181.651 134.408L145.968 152.881L101.307 111.156L109.984 79.7511L105.216 41.2989Z" fill="url(#paint53_linear_17_67)"/>
<path d="M120.281 92.6504C110.107 86.7424 99.0613 87.1668 91.1654 91.7123C83.2695 96.2577 82.2308 129.07 85.9833 131.627C89.7359 134.185 119.488 150.613 124.491 153.584C130.31 157.058 152.155 152.702 152.155 146.638C152.155 143.019 153.082 114.417 145.208 107.783C140.384 103.729 130.533 98.5919 120.281 92.6504Z" fill="url(#paint54_radial_17_67)"/>
<path d="M112.441 101.909L107.806 107.873L109.381 114.306L105.763 143.187L111.034 146.202L112.519 115.724L117.936 109.827L116.049 102.378L112.441 101.909Z" fill="url(#paint55_linear_17_67)"/>
<path style="mix-blend-mode:multiply" d="M136.483 108.257C138.216 101.054 130.763 93.0845 119.837 90.4552C108.911 87.826 98.6485 91.5331 96.9154 98.7354C95.1823 105.938 102.635 113.908 113.561 116.537C124.487 119.166 134.75 115.459 136.483 108.257Z" fill="url(#paint56_radial_17_67)"/>
<path style="mix-blend-mode:multiply" opacity="0.5" d="M103.262 117.366C102.145 101.909 107.193 92.5722 108.846 88.5293C106.012 87.9838 103.113 87.8708 100.246 88.1942C96.7359 96.9106 95.558 106.391 96.8286 115.702C98.183 124.55 100.355 133.254 103.317 141.701L106.188 143.354C104.613 137.122 103.887 125.842 103.262 117.366Z" fill="url(#paint57_linear_17_67)"/>
<path d="M102.458 116.997C101.341 101.004 106.166 93.1082 107.629 89.311C110.242 89.3892 107.629 87.9709 110.32 88.6298C102.502 86.6977 95.4217 87.5688 90.2843 91.2767C85.1469 94.9845 83.36 103.562 83.0585 112.898C82.8016 120.839 83.5498 129.807 85.1022 131.181C87.5146 133.314 95.3882 137.212 105.384 143.03C103.809 136.754 103.083 125.474 102.458 116.997Z" fill="url(#paint58_radial_17_67)"/>
<path d="M145.946 107.828C142.16 104.645 134.532 100.747 126.793 96.3694C129.172 97.7096 129.261 98.6924 131.417 99.9321C129.719 105.282 126.246 108.867 121.957 115.925C116.92 124.279 112.498 139.959 111.358 146.526C117.49 150.077 122.694 153.104 124.492 154.176C132.098 158.722 152.748 152.702 152.748 146.638C152.748 143.019 153.809 114.462 145.946 107.828Z" fill="url(#paint59_radial_17_67)"/>
<g style="mix-blend-mode:multiply">
<path d="M102.458 116.997C101.341 101.004 106.166 93.1082 107.629 89.311C110.242 89.3892 107.629 87.9709 110.32 88.6298C102.502 86.6977 95.4217 87.5688 90.2843 91.2767C85.1469 94.9845 83.36 103.562 83.0585 112.898C82.8016 120.839 83.5498 129.807 85.1022 131.181C87.5146 133.314 95.3882 137.212 105.384 143.03C103.809 136.754 103.083 125.474 102.458 116.997Z" fill="url(#paint60_radial_17_67)"/>
<path style="mix-blend-mode:multiply" opacity="0.5" d="M88.0841 110.341C88.5979 102.612 89.9381 95.3084 92.7301 90.0146C88.9329 94.1357 87.213 101.473 86.5541 109.414C85.8952 117.354 86.1855 126.311 87.6709 127.774C87.8608 127.964 88.1065 128.165 88.3745 128.389C87.7234 122.394 87.6262 116.353 88.0841 110.341Z" fill="url(#paint61_linear_17_67)"/>
<path d="M145.947 107.828C142.161 104.645 134.533 100.747 126.794 96.3694C129.173 97.7096 129.262 98.6924 131.417 99.932C129.72 105.282 126.247 108.867 121.958 115.925C116.921 124.279 112.499 139.959 111.359 146.526C117.491 150.077 122.695 153.104 124.493 154.176C132.099 158.722 152.749 152.702 152.749 146.638C152.749 143.019 153.81 114.462 145.947 107.828Z" fill="url(#paint62_radial_17_67)"/>
</g>
<path d="M109.09 90.8634C106.164 91.8462 103.797 96.5257 104.121 102.277C104.511 109.202 106.656 111.536 106.656 111.536L113.033 102.277L116.796 114.071C116.796 114.071 122.604 112.496 126.289 108.811C129.975 105.125 133.314 101.596 131.36 98.4913C128.97 94.7946 112.832 89.6238 109.09 90.8634Z" fill="url(#paint63_radial_17_67)"/>
<path style="mix-blend-mode:multiply" opacity="0.5" d="M131.874 98.8934C130.054 103.975 126.435 109.615 122.325 116.439C117.288 124.792 112.866 140.473 111.727 147.04L113.402 148.011C115.555 140.94 118.448 134.115 122.035 127.652C127.032 119.041 132.772 110.883 139.189 103.271C137.078 102.043 134.32 100.234 131.874 98.8934Z" fill="url(#paint64_linear_17_67)"/>
<path d="M131.517 98.3796C129.685 103.461 126.067 109.112 121.957 115.925C116.92 124.279 112.498 139.959 111.358 146.526L113.045 147.497C115.203 140.444 118.093 133.635 121.667 127.182C126.671 118.58 132.41 110.426 138.821 102.813C136.721 101.496 133.952 99.731 131.517 98.3796Z" fill="url(#paint65_radial_17_67)"/>
<path d="M126.257 131.237H123.822C123.822 122.525 126.536 113.468 131.908 104.343C134.387 100.122 134.387 100.122 122.136 92.896L121.633 92.5945C108.511 84.8549 100.525 86.4408 97.6775 90.1598C94.8296 93.8788 94.9413 109.615 95.1758 115.433L92.73 115.523C92.6406 113.289 91.9594 93.5996 95.7342 88.7191C99.3639 83.9949 108.399 82.0182 122.873 90.5283L123.376 90.8299C135.828 98.1786 137.738 99.3066 134.019 105.628C128.87 114.328 126.257 122.961 126.257 131.237Z" fill="#311B61"/>
<path d="M124.336 130.109C124.492 121.755 127.173 113.077 132.321 104.321C135.18 99.4741 134.689 99.1838 122.27 91.8686L121.767 91.567C115.535 87.8927 109.784 85.9829 105.127 85.9829C101.463 85.9829 98.5262 87.1779 96.851 89.3334C93.7574 93.3651 94.0701 110.553 94.1818 114.339H93.1989C92.9197 106.209 93.199 92.4046 96.0804 88.6521C97.9455 86.2063 101.151 84.8661 105.093 84.8661C109.985 84.8661 115.759 86.8094 122.259 90.6512L122.761 90.9416C135.549 98.5583 136.487 99.2619 133.137 104.846C128.077 113.457 125.43 121.956 125.319 130.142L124.336 130.109Z" fill="#3F237D"/>
<path d="M124.615 129.584C124.838 121.409 127.496 112.921 132.544 104.355C135.582 99.1949 134.778 98.7706 122.37 91.3995L121.868 91.098C115.58 87.3901 109.772 85.4245 105.048 85.4245C101.262 85.4245 98.2245 86.6754 96.4823 88.9425C93.4557 92.8961 93.5897 108.532 93.7237 113.825H93.478C93.2323 106.008 93.5562 92.3488 96.2924 88.7862C98.0905 86.4408 101.184 85.1453 105.015 85.1453C109.839 85.1453 115.558 87.0774 121.99 90.8746L122.493 91.1762C135.415 98.7929 135.794 99.2955 132.757 104.466C127.731 112.999 125.084 121.442 124.861 129.573L124.615 129.584Z" fill="#522EA3"/>
<path d="M102.457 116.997C101.341 101.54 106.389 92.2036 108.042 88.1607C105.208 87.6153 102.309 87.5023 99.442 87.8257C95.9324 96.5461 94.7546 106.03 96.0245 115.344C97.3747 124.204 99.547 132.92 102.513 141.377L105.384 143.03C103.809 136.754 103.083 125.474 102.457 116.997Z" fill="url(#paint66_radial_17_67)"/>
<path d="M90.6973 114.562C90.6973 112.541 92.1268 111.726 93.8802 112.742C94.8077 113.343 95.5796 114.156 96.1328 115.113C96.686 116.07 97.0048 117.144 97.0632 118.248C97.0632 120.258 95.6448 121.074 93.8802 120.057C92.9555 119.456 92.1854 118.645 91.6324 117.69C91.0794 116.735 90.7591 115.664 90.6973 114.562Z" fill="#311B61"/>
<path d="M143.456 107.08C138.921 108.107 133.27 112.787 132.343 121.464C131.483 129.506 131.908 148.804 131.908 148.804C131.908 148.804 128.87 123.419 132.053 115.467C135.459 106.935 141.557 105.963 141.557 105.963L143.456 107.08Z" fill="#E6E7E8"/>
<path d="M132.076 159.269H130.244V141.534C130.13 139.518 129.543 137.558 128.53 135.812C127.517 134.065 126.107 132.582 124.414 131.482C123.915 131.105 123.325 130.865 122.704 130.787C122.082 130.709 121.452 130.794 120.874 131.035C120.385 131.41 120.001 131.906 119.763 132.474C119.524 133.042 119.437 133.663 119.511 134.274V152.009H117.669V134.274C117.576 133.333 117.74 132.385 118.143 131.529C118.546 130.674 119.174 129.944 119.958 129.416C121.444 128.556 123.309 128.712 125.33 129.863C127.293 131.129 128.925 132.845 130.091 134.869C131.256 136.894 131.922 139.167 132.031 141.5L132.076 159.269Z" fill="#6B24D6"/>
<path d="M118.617 153.54C118.417 153.54 118.218 153.5 118.033 153.423C117.848 153.346 117.68 153.233 117.539 153.091C117.398 152.948 117.286 152.78 117.211 152.594C117.135 152.409 117.097 152.21 117.098 152.009V150.96C117.08 150.748 117.106 150.536 117.175 150.335C117.243 150.135 117.352 149.95 117.496 149.794C117.639 149.638 117.813 149.514 118.007 149.428C118.201 149.343 118.411 149.299 118.623 149.299C118.835 149.299 119.044 149.343 119.238 149.428C119.432 149.514 119.607 149.638 119.75 149.794C119.893 149.95 120.003 150.135 120.071 150.335C120.139 150.536 120.165 150.748 120.147 150.96V152.009C120.147 152.415 119.986 152.804 119.699 153.091C119.412 153.378 119.023 153.54 118.617 153.54Z" fill="#6B24D6"/>
<path d="M131.159 160.799C130.958 160.799 130.759 160.759 130.573 160.682C130.388 160.606 130.219 160.493 130.077 160.351C129.935 160.209 129.822 160.04 129.745 159.854C129.669 159.669 129.629 159.47 129.629 159.269V158.219C129.629 157.813 129.79 157.424 130.077 157.137C130.364 156.85 130.753 156.689 131.159 156.689C131.565 156.689 131.954 156.85 132.241 157.137C132.528 157.424 132.689 157.813 132.689 158.219V159.269C132.689 159.47 132.649 159.669 132.573 159.854C132.496 160.04 132.383 160.209 132.241 160.351C132.099 160.493 131.93 160.606 131.744 160.682C131.559 160.759 131.36 160.799 131.159 160.799Z" fill="#6B24D6"/>
<path d="M131.159 142.751C130.836 142.751 130.527 142.623 130.298 142.394C130.07 142.166 129.942 141.857 129.942 141.534C129.815 139.576 129.236 137.674 128.252 135.977C127.268 134.28 125.904 132.833 124.268 131.75C123.812 131.405 123.274 131.183 122.707 131.105C122.14 131.027 121.563 131.095 121.03 131.304C120.594 131.657 120.255 132.115 120.042 132.634C119.829 133.153 119.75 133.717 119.812 134.274C119.783 134.579 119.642 134.861 119.416 135.066C119.189 135.272 118.895 135.386 118.589 135.386C118.284 135.386 117.989 135.272 117.763 135.066C117.537 134.861 117.395 134.579 117.366 134.274C117.283 133.286 117.465 132.293 117.893 131.398C118.321 130.503 118.979 129.738 119.801 129.182C121.387 128.277 123.408 128.433 125.486 129.628C127.502 130.919 129.181 132.672 130.381 134.743C131.582 136.814 132.27 139.143 132.388 141.534C132.388 141.694 132.356 141.854 132.294 142.002C132.232 142.151 132.141 142.285 132.027 142.398C131.913 142.512 131.777 142.601 131.628 142.662C131.479 142.722 131.32 142.752 131.159 142.751Z" fill="#311B61"/>
<path d="M130.903 141.925C130.773 141.925 130.648 141.873 130.556 141.781C130.463 141.688 130.412 141.564 130.412 141.433C130.278 139.348 129.663 137.321 128.615 135.513C127.566 133.706 126.113 132.165 124.37 131.013C123.593 130.53 122.704 130.256 121.79 130.22C121.305 130.208 120.827 130.328 120.405 130.567C119.85 130.978 119.412 131.527 119.134 132.16C118.856 132.792 118.747 133.487 118.819 134.174C118.819 134.304 118.767 134.429 118.675 134.521C118.583 134.613 118.458 134.665 118.328 134.665C118.197 134.665 118.072 134.613 117.98 134.521C117.888 134.429 117.836 134.304 117.836 134.174C117.75 133.311 117.898 132.442 118.263 131.656C118.629 130.87 119.199 130.197 119.914 129.707C120.484 129.379 121.132 129.21 121.79 129.215C122.878 129.256 123.936 129.58 124.861 130.153C126.771 131.373 128.361 133.033 129.498 134.993C130.635 136.954 131.285 139.158 131.395 141.422C131.396 141.487 131.384 141.553 131.36 141.613C131.336 141.674 131.3 141.73 131.255 141.777C131.209 141.824 131.154 141.861 131.094 141.886C131.033 141.912 130.969 141.925 130.903 141.925Z" fill="#3F237D"/>
<path d="M130.903 141.556C130.886 141.556 130.87 141.553 130.856 141.547C130.841 141.541 130.827 141.531 130.816 141.52C130.804 141.509 130.795 141.495 130.789 141.48C130.783 141.465 130.78 141.449 130.78 141.433C130.641 139.283 130.007 137.193 128.926 135.329C127.844 133.465 126.346 131.877 124.548 130.689C123.716 130.177 122.766 129.889 121.789 129.852C121.238 129.842 120.694 129.981 120.215 130.254C119.603 130.696 119.118 131.29 118.809 131.978C118.499 132.666 118.375 133.423 118.45 134.174C118.45 134.206 118.437 134.238 118.414 134.261C118.391 134.284 118.36 134.297 118.327 134.297C118.295 134.297 118.263 134.284 118.24 134.261C118.217 134.238 118.204 134.206 118.204 134.174C118.121 133.379 118.252 132.577 118.584 131.85C118.915 131.123 119.436 130.499 120.092 130.042C120.608 129.744 121.194 129.59 121.789 129.595C122.81 129.634 123.803 129.938 124.671 130.477C126.526 131.665 128.071 133.279 129.176 135.185C130.282 137.09 130.916 139.233 131.025 141.433C131.025 141.449 131.022 141.465 131.016 141.48C131.01 141.495 131.001 141.509 130.989 141.52C130.978 141.531 130.964 141.541 130.95 141.547C130.935 141.553 130.919 141.556 130.903 141.556Z" fill="#522EA3"/>
<path d="M118.617 153.54C118.417 153.54 118.218 153.5 118.033 153.423C117.848 153.346 117.68 153.233 117.539 153.091C117.398 152.948 117.286 152.78 117.211 152.594C117.135 152.409 117.097 152.21 117.098 152.009V150.96C117.08 150.748 117.106 150.536 117.175 150.335C117.243 150.135 117.352 149.95 117.496 149.794C117.639 149.638 117.813 149.514 118.007 149.428C118.201 149.343 118.411 149.299 118.623 149.299C118.835 149.299 119.044 149.343 119.238 149.428C119.432 149.514 119.607 149.638 119.75 149.794C119.893 149.95 120.003 150.135 120.071 150.335C120.139 150.536 120.165 150.748 120.147 150.96V152.009C120.147 152.415 119.986 152.804 119.699 153.091C119.412 153.378 119.023 153.54 118.617 153.54Z" fill="#311B61"/>
<path d="M118.338 152.378C118.25 152.38 118.161 152.363 118.079 152.33C117.996 152.297 117.921 152.248 117.857 152.186C117.794 152.123 117.744 152.049 117.709 151.967C117.675 151.885 117.657 151.797 117.657 151.708V150.636C117.678 150.472 117.759 150.321 117.883 150.211C118.007 150.102 118.167 150.042 118.333 150.042C118.498 150.042 118.658 150.102 118.783 150.211C118.907 150.321 118.987 150.472 119.009 150.636V151.753C118.997 151.923 118.922 152.082 118.797 152.198C118.673 152.314 118.509 152.378 118.338 152.378Z" fill="#3F237D"/>
<path d="M118.082 151.753C118.035 151.753 117.989 151.734 117.956 151.7C117.922 151.667 117.903 151.621 117.903 151.574V150.524C117.903 150.477 117.922 150.431 117.956 150.398C117.989 150.364 118.035 150.345 118.082 150.345C118.129 150.345 118.175 150.364 118.208 150.398C118.242 150.431 118.261 150.477 118.261 150.524V151.574C118.261 151.621 118.242 151.667 118.208 151.7C118.175 151.734 118.129 151.753 118.082 151.753Z" fill="#522EA3"/>
<path d="M131.159 160.799C130.958 160.799 130.759 160.759 130.573 160.682C130.388 160.606 130.219 160.493 130.077 160.351C129.935 160.209 129.822 160.04 129.745 159.854C129.669 159.669 129.629 159.47 129.629 159.269V158.219C129.629 157.813 129.79 157.424 130.077 157.137C130.364 156.85 130.753 156.689 131.159 156.689C131.565 156.689 131.954 156.85 132.241 157.137C132.528 157.424 132.689 157.813 132.689 158.219V159.269C132.689 159.47 132.649 159.669 132.573 159.854C132.496 160.04 132.383 160.209 132.241 160.351C132.099 160.493 131.93 160.606 131.744 160.682C131.559 160.759 131.36 160.799 131.159 160.799Z" fill="#311B61"/>
<path d="M130.903 159.637C130.725 159.637 130.554 159.567 130.429 159.441C130.303 159.315 130.232 159.145 130.232 158.967V157.917C130.254 157.753 130.334 157.602 130.458 157.493C130.583 157.384 130.743 157.323 130.908 157.323C131.074 157.323 131.234 157.384 131.358 157.493C131.482 157.602 131.563 157.753 131.584 157.917V158.967C131.584 159.056 131.566 159.144 131.532 159.226C131.497 159.308 131.447 159.383 131.384 159.445C131.32 159.507 131.245 159.557 131.162 159.59C131.08 159.623 130.991 159.639 130.903 159.637Z" fill="#3F237D"/>
<path d="M130.657 158.967C130.632 158.969 130.608 158.965 130.585 158.957C130.562 158.949 130.541 158.936 130.523 158.919C130.505 158.902 130.491 158.882 130.481 158.86C130.472 158.837 130.467 158.813 130.467 158.789V157.739C130.467 157.714 130.472 157.69 130.481 157.668C130.491 157.645 130.505 157.625 130.523 157.608C130.541 157.592 130.562 157.579 130.585 157.57C130.608 157.562 130.632 157.559 130.657 157.56C130.704 157.56 130.75 157.579 130.783 157.612C130.817 157.646 130.835 157.691 130.835 157.739V158.789C130.835 158.836 130.817 158.881 130.783 158.915C130.75 158.948 130.704 158.967 130.657 158.967Z" fill="#522EA3"/>
<path d="M95.4437 116.372C95.4437 117.6 94.5838 118.103 93.5116 117.489C92.947 117.122 92.4767 116.628 92.139 116.046C91.8014 115.464 91.6058 114.81 91.5684 114.138C91.5684 112.91 92.4395 112.418 93.5116 113.021C94.0736 113.389 94.5412 113.884 94.8768 114.466C95.2124 115.048 95.4066 115.701 95.4437 116.372Z" fill="#3F237D"/>
<path d="M95.075 115.434C95.075 116.662 94.2039 117.165 93.1317 116.55C92.5658 116.185 92.0946 115.692 91.7568 115.109C91.419 114.527 91.2242 113.872 91.1885 113.2C91.1885 111.96 92.0596 111.469 93.1317 112.083C93.6952 112.451 94.1645 112.945 94.502 113.527C94.8395 114.109 95.0358 114.762 95.075 115.434Z" fill="#522EA3"/>
<path style="mix-blend-mode:screen" d="M116.753 114.071L112.989 102.277L106.657 111.547L106.087 110.05L112.967 101.574L117.568 113.714L116.753 114.071Z" fill="url(#paint67_radial_17_67)"/>
<path d="M96.9739 59.0564C95.4885 65.4669 95.7789 84.6428 100.604 88.7415C104.423 91.9803 107.852 89.8583 108.086 94.549C108.321 99.2397 106.344 99.6976 109.203 101.764C112.062 103.83 127.876 102.311 127.497 97.2964C127.128 92.5499 126.078 90.8635 128.267 86.4744C130.456 82.0853 136.822 75.0158 135.884 68.7281C134.946 62.4404 102.234 36.4072 96.9739 59.0564Z" fill="url(#paint68_radial_17_67)"/>
<path d="M94.4712 58.2634C91.9472 57.2918 91.5898 50.3451 104.4 41.7791C114.25 35.201 133.582 36.5077 139.3 49.742C145.253 63.5013 139.837 71.0845 135.313 81.0131C132.588 86.9992 127.73 87.8815 127.73 87.8815C127.73 87.8815 129.763 81.7948 131.516 79.5612C134.074 76.3112 135.928 72.0115 133.951 69.5098C132.834 68.1249 131.125 67.3767 128.724 69.7667C124.748 73.7426 120.56 60.7092 110.553 58.6655C102.121 56.9679 97.0064 59.235 94.4712 58.2634Z" fill="url(#paint69_linear_17_67)"/>
<path style="mix-blend-mode:multiply" opacity="0.8" d="M110.8 92.2483C109.412 92.3118 108.024 92.1265 106.701 91.7011C107.161 92.0189 107.529 92.4531 107.766 92.9593C108.003 93.4655 108.102 94.0256 108.053 94.5825C108.287 99.2955 106.31 99.7311 109.169 101.797C110.163 102.512 112.888 102.914 115.96 102.914C120.427 98.4467 120.081 90.9528 120.081 90.9528C117.018 91.5845 113.918 92.0172 110.8 92.2483Z" fill="url(#paint70_linear_17_67)"/>
<path style="mix-blend-mode:screen" opacity="0.6" d="M97.6779 59.5701C97.6779 59.5701 96.3154 72.972 98.2698 78.288C100.224 83.6041 111.672 71.1739 112.889 66.1035C114.106 61.0331 109.382 56.4542 97.6779 59.5701Z" fill="url(#paint71_linear_17_67)"/>
<path style="mix-blend-mode:multiply" opacity="0.5" d="M127.731 87.8927C127.731 87.8927 132.589 87.0104 135.314 81.0242C139.837 71.0845 146.047 63.4901 140.094 49.7532C139.703 48.8592 139.244 47.9967 138.721 47.1733C135.672 48.1115 132.21 50.0101 130.635 53.8743C128.937 58.0289 124.503 62.351 120.829 65.4222C124.18 68.9625 126.491 72.1231 128.725 69.8895C130.959 67.6559 132.846 68.2478 133.952 69.6326C135.929 72.112 134.075 76.4117 131.517 79.684C129.786 81.806 127.731 87.8927 127.731 87.8927Z" fill="url(#paint72_linear_17_67)"/>
<path style="mix-blend-mode:multiply" opacity="0.5" d="M130.658 75.8981C130.658 75.8981 134.098 72.3242 132.891 70.4926C131.685 68.6611 129.541 71.4419 129.541 71.4419L130.658 75.8981Z" fill="url(#paint73_linear_17_67)"/>
<path style="mix-blend-mode:multiply" opacity="0.5" d="M111.916 56.9679C106.689 55.7394 96.8615 57.5598 93.1201 55.7394C93.243 57.0907 93.7455 57.973 94.438 58.2634C96.9731 59.235 102.088 56.9679 110.52 58.699C117.914 60.2067 122.124 67.7117 125.43 69.9342C124.771 68.4376 117.333 58.2522 111.916 56.9679Z" fill="url(#paint74_linear_17_67)"/>
<path style="mix-blend-mode:screen" d="M214.497 144.203L192.161 131.203L167.513 145.253V169.789L189.76 182.644V182.666L189.782 182.655L189.793 182.666V182.644L214.497 168.739V144.203Z" fill="url(#paint75_linear_17_67)"/>
<g opacity="0.9">
<path d="M189.76 158.319V182.666L199.878 176.825V152.289L189.76 158.319Z" fill="url(#paint76_linear_17_67)"/>
<path d="M189.793 158.319V182.666L167.513 169.789V145.253L189.793 158.319Z" fill="url(#paint77_linear_17_67)"/>
<path d="M167.513 145.253L189.793 158.319L199.878 152.289L177.553 139.289L167.513 145.253Z" fill="url(#paint78_linear_17_67)"/>
</g>
<path d="M183.047 169.622C183.047 172.392 181.093 173.508 178.68 172.112C177.412 171.289 176.355 170.179 175.597 168.871C174.838 167.563 174.398 166.095 174.313 164.585C174.313 161.826 178.68 156.265 178.68 156.265C178.68 156.265 183.047 166.897 183.047 169.622Z" fill="white"/>
<path style="mix-blend-mode:screen" d="M214.497 111.558L192.161 98.5583L167.513 112.619V137.145L189.76 149.999V150.022L189.782 150.01L189.793 150.022V149.999L214.497 136.095V111.558Z" fill="url(#paint79_linear_17_67)"/>
<g opacity="0.9">
<path d="M189.76 125.686V150.022L199.878 144.181V119.644L189.76 125.686Z" fill="url(#paint80_linear_17_67)"/>
<path d="M189.793 125.686V150.022L167.513 137.145V112.619L189.793 125.686Z" fill="url(#paint81_linear_17_67)"/>
<path d="M167.513 112.619L189.793 125.686L199.878 119.644L177.553 106.655L167.513 112.619Z" fill="url(#paint82_linear_17_67)"/>
</g>
<path d="M182.031 126.914C180.635 126.122 179.44 126.378 178.837 127.439C178.28 125.714 177.154 124.23 175.642 123.229C173.643 122.112 172.035 123.117 172.035 125.552C172.035 130.019 178.837 139.434 178.837 139.434C178.837 139.434 185.638 137.859 185.638 133.403C185.588 132.114 185.235 130.856 184.609 129.728C183.982 128.601 183.099 127.637 182.031 126.914Z" fill="white"/>
<path style="mix-blend-mode:screen" d="M214.497 78.1428L192.161 65.143L167.513 79.1926V103.729L189.76 116.584V116.606L189.782 116.595L189.793 116.606V116.584L214.497 102.679V78.1428Z" fill="url(#paint83_linear_17_67)"/>
<g opacity="0.9">
<path d="M189.76 92.2595V116.606L199.878 110.765V86.2287L189.76 92.2595Z" fill="url(#paint84_linear_17_67)"/>
<path d="M189.793 92.2595V116.606L167.513 103.729V79.1927L189.793 92.2595Z" fill="url(#paint85_linear_17_67)"/>
<path d="M167.513 79.1927L189.793 92.2595L199.878 86.2287L177.553 73.2289L167.513 79.1927Z" fill="url(#paint86_linear_17_67)"/>
</g>
<path d="M185.426 99.3512L181.037 96.8161V91.7792L176.369 89.0876V94.1245L171.979 91.5893V96.9389L176.369 99.4741V104.522L181.037 107.214V102.166L185.426 104.701V99.3512Z" fill="white"/>
<path style="mix-blend-mode:color-dodge" d="M152.904 117.019C154.546 129.059 150.336 139.579 143.501 140.473C136.666 141.366 129.775 132.398 128.133 120.37C126.491 108.342 130.702 97.81 137.537 96.9166C144.372 96.0231 151.263 104.98 152.904 117.019Z" fill="url(#paint87_radial_17_67)"/>
<defs>
<linearGradient id="paint0_linear_17_67" x1="76.469" y1="10.173" x2="184.89" y2="197.967" gradientUnits="userSpaceOnUse">
<stop offset="0.06" stop-color="#200041"/>
<stop offset="0.26" stop-color="#210243"/>
<stop offset="0.36" stop-color="#25084B"/>
<stop offset="0.43" stop-color="#2C1358"/>
<stop offset="0.47" stop-color="#311B61"/>
<stop offset="0.48" stop-color="#351F65"/>
<stop offset="0.5" stop-color="#422C73"/>
<stop offset="0.51" stop-color="#584188"/>
<stop offset="0.52" stop-color="#765FA7"/>
<stop offset="0.53" stop-color="#8770B8"/>
<stop offset="0.54" stop-color="#7E67AE"/>
<stop offset="0.56" stop-color="#5C468D"/>
<stop offset="0.59" stop-color="#442E75"/>
<stop offset="0.61" stop-color="#362066"/>
<stop offset="0.63" stop-color="#311B61"/>
<stop offset="0.67" stop-color="#2A1155"/>
<stop offset="0.75" stop-color="#230446"/>
<stop offset="0.81" stop-color="#200041"/>
<stop offset="1" stop-color="#200041"/>
</linearGradient>
<radialGradient id="paint1_radial_17_67" cx="0" cy="0" r="1" gradientUnits="userSpaceOnUse" gradientTransform="translate(244.952 86.4743) scale(203.463 203.463)">
<stop stop-color="#711F56"/>
<stop offset="0.16" stop-color="#6C1E52"/>
<stop offset="0.36" stop-color="#5C1946"/>
<stop offset="0.58" stop-color="#431233"/>
<stop offset="0.82" stop-color="#200918"/>
<stop offset="1"/>
</radialGradient>
<radialGradient id="paint2_radial_17_67" cx="0" cy="0" r="1" gradientUnits="userSpaceOnUse" gradientTransform="translate(210.923 71.9333) scale(119.869 119.869)">
<stop stop-color="#AF8AFC"/>
<stop offset="1" stop-color="#10054D"/>
</radialGradient>
<linearGradient id="paint3_linear_17_67" x1="220.583" y1="183.359" x2="-110.79" y2="79.6171" gradientUnits="userSpaceOnUse">
<stop offset="0.19" stop-color="#3D065F"/>
<stop offset="0.93" stop-color="#3D065F"/>
</linearGradient>
<linearGradient id="paint4_linear_17_67" x1="224.905" y1="311.603" x2="56.6226" y2="-43.9817" gradientUnits="userSpaceOnUse">
<stop stop-color="#311B61"/>
<stop offset="0.2" stop-color="#290F52"/>
<stop offset="0.49" stop-color="#200041"/>
<stop offset="1" stop-color="#0F001F"/>
</linearGradient>
<linearGradient id="paint5_linear_17_67" x1="101.563" y1="162.642" x2="207.248" y2="162.642" gradientUnits="userSpaceOnUse">
<stop stop-color="#311B61"/>
<stop offset="0.2" stop-color="#290F52"/>
<stop offset="0.49" stop-color="#200041"/>
<stop offset="1" stop-color="#0F001F"/>
</linearGradient>
<linearGradient id="paint6_linear_17_67" x1="89.6251" y1="39.1099" x2="250.414" y2="345.711" gradientUnits="userSpaceOnUse">
<stop offset="0.01" stop-color="#08A652"/>
<stop offset="0.43" stop-color="#D1FFE6"/>
<stop offset="0.9" stop-color="#08A652"/>
</linearGradient>
<linearGradient id="paint7_linear_17_67" x1="176.148" y1="114.713" x2="185.557" y2="131.086" gradientUnits="userSpaceOnUse">
<stop stop-color="#311B61"/>
<stop offset="0.2" stop-color="#290F52"/>
<stop offset="0.49" stop-color="#200041"/>
<stop offset="1" stop-color="#0F001F"/>
</linearGradient>
<linearGradient id="paint8_linear_17_67" x1="222.548" y1="128.266" x2="209.504" y2="127.696" gradientUnits="userSpaceOnUse">
<stop stop-color="#3D065F"/>
<stop offset="1" stop-color="#5F27BD"/>
</linearGradient>
<linearGradient id="paint9_linear_17_67" x1="155.428" y1="277.216" x2="180.11" y2="248.425" gradientUnits="userSpaceOnUse">
<stop stop-color="#FDD65B"/>
<stop offset="0.01" stop-color="#F7D159"/>
<stop offset="0.13" stop-color="#BEA144"/>
<stop offset="0.25" stop-color="#8B7632"/>
<stop offset="0.37" stop-color="#605223"/>
<stop offset="0.49" stop-color="#3E3416"/>
<stop offset="0.62" stop-color="#231D0C"/>
<stop offset="0.74" stop-color="#0F0D05"/>
<stop offset="0.87" stop-color="#040301"/>
<stop offset="1"/>
</linearGradient>
<linearGradient id="paint10_linear_17_67" x1="191.501" y1="288.831" x2="224.861" y2="278.836" gradientUnits="userSpaceOnUse">
<stop offset="0.04" stop-color="#FFA98C"/>
<stop offset="0.32" stop-color="#FFB892"/>
<stop offset="0.86" stop-color="#FEE1A3"/>
<stop offset="1" stop-color="#FEECA8"/>
</linearGradient>
<linearGradient id="paint11_linear_17_67" x1="53.8754" y1="292.796" x2="264.419" y2="245.599" gradientUnits="userSpaceOnUse">
<stop offset="0.04" stop-color="#FFA98C"/>
<stop offset="0.32" stop-color="#FFB892"/>
<stop offset="0.86" stop-color="#FEE1A3"/>
<stop offset="1" stop-color="#FEECA8"/>
</linearGradient>
<linearGradient id="paint12_linear_17_67" x1="172.772" y1="231.092" x2="159.672" y2="256.064" gradientUnits="userSpaceOnUse">
<stop offset="0.04" stop-color="#FFA98C"/>
<stop offset="0.32" stop-color="#FFB892"/>
<stop offset="0.86" stop-color="#FEE1A3"/>
<stop offset="1" stop-color="#FEECA8"/>
</linearGradient>
<linearGradient id="paint13_linear_17_67" x1="122.627" y1="206.064" x2="157.327" y2="165.579" gradientUnits="userSpaceOnUse">
<stop stop-color="#43E8E1"/>
<stop offset="0.09" stop-color="#36BDB7"/>
<stop offset="0.22" stop-color="#288B87"/>
<stop offset="0.34" stop-color="#1C605D"/>
<stop offset="0.47" stop-color="#123E3C"/>
<stop offset="0.6" stop-color="#0A2321"/>
<stop offset="0.73" stop-color="#040F0F"/>
<stop offset="0.86" stop-color="#010404"/>
<stop offset="1"/>
</linearGradient>
<linearGradient id="paint14_linear_17_67" x1="162.655" y1="219.253" x2="202.135" y2="207.437" gradientUnits="userSpaceOnUse">
<stop offset="0.04" stop-color="#138BBD"/>
<stop offset="0.23" stop-color="#169AC7"/>
<stop offset="0.59" stop-color="#1FC3DF"/>
<stop offset="1" stop-color="#2AF6FF"/>
</linearGradient>
<linearGradient id="paint15_linear_17_67" x1="-0.255957" y1="223.888" x2="251.386" y2="167.478" gradientUnits="userSpaceOnUse">
<stop offset="0.04" stop-color="#138BBD"/>
<stop offset="0.23" stop-color="#169AC7"/>
<stop offset="0.59" stop-color="#1FC3DF"/>
<stop offset="1" stop-color="#2AF6FF"/>
</linearGradient>
<linearGradient id="paint16_linear_17_67" x1="139.392" y1="150.647" x2="125.554" y2="177.004" gradientUnits="userSpaceOnUse">
<stop offset="0.04" stop-color="#138BBD"/>
<stop offset="0.23" stop-color="#169AC7"/>
<stop offset="0.59" stop-color="#1FC3DF"/>
<stop offset="1" stop-color="#2AF6FF"/>
</linearGradient>
<radialGradient id="paint17_radial_17_67" cx="0" cy="0" r="1" gradientUnits="userSpaceOnUse" gradientTransform="translate(45.1434 274.203) scale(31.4834 13.0736)">
<stop offset="0.19" stop-color="#5F5C5D"/>
<stop offset="1" stop-color="white"/>
</radialGradient>
<linearGradient id="paint18_linear_17_67" x1="18.6849" y1="245.287" x2="63.0116" y2="245.287" gradientUnits="userSpaceOnUse">
<stop stop-color="#F2AA77"/>
<stop offset="0.23" stop-color="#FFFBC9"/>
<stop offset="0.54" stop-color="#ECA64C"/>
<stop offset="0.62" stop-color="#EDA84F"/>
<stop offset="0.68" stop-color="#EFAD5A"/>
<stop offset="0.74" stop-color="#F3B66C"/>
<stop offset="0.8" stop-color="#F8C385"/>
<stop offset="0.86" stop-color="#FED2A3"/>
<stop offset="1" stop-color="#ECA549"/>
</linearGradient>
<linearGradient id="paint19_linear_17_67" x1="18.6849" y1="275.072" x2="63.0116" y2="275.072" gradientUnits="userSpaceOnUse">
<stop stop-color="#ECA12A"/>
<stop offset="0.23" stop-color="#FFFBC9"/>
<stop offset="0.54" stop-color="#DF9300"/>
<stop offset="0.6" stop-color="#E09403"/>
<stop offset="0.65" stop-color="#E2980E"/>
<stop offset="0.69" stop-color="#E59F20"/>
<stop offset="0.74" stop-color="#EAA939"/>
<stop offset="0.78" stop-color="#F0B65A"/>
<stop offset="0.83" stop-color="#F8C581"/>
<stop offset="0.86" stop-color="#FED2A3"/>
<stop offset="0.97" stop-color="#ECA30A"/>
</linearGradient>
<linearGradient id="paint20_linear_17_67" x1="18.6849" y1="249.017" x2="63.0116" y2="249.017" gradientUnits="userSpaceOnUse">
<stop stop-color="#E3E3D8"/>
<stop offset="0.23" stop-color="white"/>
<stop offset="0.54" stop-color="#D4D1C5"/>
<stop offset="0.7" stop-color="#D7D4C8"/>
<stop offset="0.83" stop-color="#E0DED3"/>
<stop offset="0.87" stop-color="#E3E2D7"/>
<stop offset="1" stop-color="#CBC9B9"/>
</linearGradient>
<linearGradient id="paint21_linear_17_67" x1="63.5026" y1="219.521" x2="63.5138" y2="219.521" gradientUnits="userSpaceOnUse">
<stop stop-color="#B5BBCB"/>
<stop offset="0.23" stop-color="#ECEFF5"/>
<stop offset="0.54" stop-color="#9DA7B3"/>
<stop offset="0.65" stop-color="#A0AAB5"/>
<stop offset="0.75" stop-color="#ABB3BD"/>
<stop offset="0.85" stop-color="#BDC2C9"/>
<stop offset="0.87" stop-color="#C2C6CD"/>
<stop offset="1" stop-color="#B9BDCB"/>
</linearGradient>
<linearGradient id="paint22_linear_17_67" x1="18.6849" y1="267.21" x2="63.0116" y2="267.21" gradientUnits="userSpaceOnUse">
<stop stop-color="#C211A1"/>
<stop offset="0.05" stop-color="#C718A5"/>
<stop offset="0.11" stop-color="#D72DB0"/>
<stop offset="0.2" stop-color="#EF4EC2"/>
<stop offset="0.24" stop-color="#FF63CE"/>
<stop offset="0.32" stop-color="#EB48BF"/>
<stop offset="0.45" stop-color="#C211A1"/>
<stop offset="0.54" stop-color="#A919AB"/>
<stop offset="0.64" stop-color="#AC1BAB"/>
<stop offset="0.73" stop-color="#B723AB"/>
<stop offset="0.82" stop-color="#C92FAA"/>
<stop offset="0.88" stop-color="#DC3DAA"/>
<stop offset="0.95" stop-color="#CD24A5"/>
<stop offset="1" stop-color="#C211A1"/>
</linearGradient>
<linearGradient id="paint23_linear_17_67" x1="17.6242" y1="209.738" x2="17.6242" y2="209.738" gradientUnits="userSpaceOnUse">
<stop stop-color="#FFBB96"/>
<stop offset="0.23" stop-color="#FFFBC9"/>
<stop offset="0.54" stop-color="#F9B673"/>
<stop offset="0.64" stop-color="#F9B876"/>
<stop offset="0.72" stop-color="#FABE81"/>
<stop offset="0.81" stop-color="#FCC993"/>
<stop offset="0.86" stop-color="#FED2A3"/>
<stop offset="0.97" stop-color="#FFC28C"/>
</linearGradient>
<linearGradient id="paint24_linear_17_67" x1="64.3522" y1="209.738" x2="64.3634" y2="209.738" gradientUnits="userSpaceOnUse">
<stop stop-color="#FFBB96"/>
<stop offset="0.23" stop-color="#FFFBC9"/>
<stop offset="0.54" stop-color="#F9B673"/>
<stop offset="0.64" stop-color="#F9B876"/>
<stop offset="0.72" stop-color="#FABE81"/>
<stop offset="0.81" stop-color="#FCC993"/>
<stop offset="0.86" stop-color="#FED2A3"/>
<stop offset="0.97" stop-color="#FFC28C"/>
</linearGradient>
<linearGradient id="paint25_linear_17_67" x1="17.8474" y1="213.747" x2="63.8493" y2="213.747" gradientUnits="userSpaceOnUse">
<stop stop-color="#C211A1"/>
<stop offset="0.05" stop-color="#C718A5"/>
<stop offset="0.11" stop-color="#D72DB0"/>
<stop offset="0.2" stop-color="#EF4EC2"/>
<stop offset="0.24" stop-color="#FF63CE"/>
<stop offset="0.32" stop-color="#EB48BF"/>
<stop offset="0.45" stop-color="#C211A1"/>
<stop offset="0.54" stop-color="#A919AB"/>
<stop offset="0.64" stop-color="#AC1BAB"/>
<stop offset="0.73" stop-color="#B723AB"/>
<stop offset="0.82" stop-color="#C92FAA"/>
<stop offset="0.88" stop-color="#DC3DAA"/>
<stop offset="0.95" stop-color="#CD24A5"/>
<stop offset="1" stop-color="#C211A1"/>
</linearGradient>
<linearGradient id="paint26_linear_17_67" x1="84.1749" y1="159.079" x2="38.4634" y2="205.081" gradientUnits="userSpaceOnUse">
<stop offset="0.04" stop-color="#9F19AB"/>
<stop offset="0.24" stop-color="#AE25B1"/>
<stop offset="0.65" stop-color="#D744BF"/>
<stop offset="1" stop-color="#FF63CE"/>
</linearGradient>
<radialGradient id="paint27_radial_17_67" cx="0" cy="0" r="1" gradientUnits="userSpaceOnUse" gradientTransform="translate(30.9474 212.541) scale(29.3724 29.3724)">
<stop stop-color="white"/>
<stop offset="1"/>
</radialGradient>
<radialGradient id="paint28_radial_17_67" cx="0" cy="0" r="1" gradientUnits="userSpaceOnUse" gradientTransform="translate(21.9824 224.364) rotate(-70.3461) scale(4.93102 10.1744)">
<stop stop-color="#F49587"/>
<stop offset="0.12" stop-color="#BD7368"/>
<stop offset="0.24" stop-color="#8B554D"/>
<stop offset="0.36" stop-color="#603B35"/>
<stop offset="0.48" stop-color="#3E2622"/>
<stop offset="0.61" stop-color="#231513"/>
<stop offset="0.74" stop-color="#0F0908"/>
<stop offset="0.86" stop-color="#040202"/>
<stop offset="1"/>
</radialGradient>
<linearGradient id="paint29_linear_17_67" x1="18.6166" y1="236.888" x2="64.4621" y2="236.888" gradientUnits="userSpaceOnUse">
<stop offset="0.01" stop-color="#C1A1D5"/>
<stop offset="0.05" stop-color="#C8ABDA"/>
<stop offset="0.11" stop-color="#DAC6E6"/>
<stop offset="0.2" stop-color="#F7F2F9"/>
<stop offset="0.22" stop-color="white"/>
<stop offset="0.25" stop-color="#F9F5FB"/>
<stop offset="0.3" stop-color="#E9DBF2"/>
<stop offset="0.36" stop-color="#D1B4E3"/>
<stop offset="0.43" stop-color="#B395D6"/>
<stop offset="0.49" stop-color="#9C7DCB"/>
<stop offset="0.56" stop-color="#8E6EC5"/>
<stop offset="0.61" stop-color="#8969C3"/>
<stop offset="0.76" stop-color="#9471C6"/>
<stop offset="1" stop-color="#B086CC"/>
</linearGradient>
<radialGradient id="paint30_radial_17_67" cx="0" cy="0" r="1" gradientUnits="userSpaceOnUse" gradientTransform="translate(28.8788 235.269) scale(5.30491 26.5245)">
<stop stop-color="#9DA7B3"/>
<stop offset="0.03" stop-color="#939DA8"/>
<stop offset="0.14" stop-color="#6C737C"/>
<stop offset="0.27" stop-color="#4B5056"/>
<stop offset="0.39" stop-color="#303336"/>
<stop offset="0.52" stop-color="#1B1C1E"/>
<stop offset="0.66" stop-color="#0C0C0D"/>
<stop offset="0.81" stop-color="#030303"/>
<stop offset="1"/>
</radialGradient>
<radialGradient id="paint31_radial_17_67" cx="0" cy="0" r="1" gradientUnits="userSpaceOnUse" gradientTransform="translate(11.1028 288.7) scale(12.4141 5.15503)">
<stop offset="0.19" stop-color="#5F5C5D"/>
<stop offset="1" stop-color="white"/>
</radialGradient>
<linearGradient id="paint32_linear_17_67" x1="0.736807" y1="281.941" x2="19.1085" y2="281.941" gradientUnits="userSpaceOnUse">
<stop stop-color="#E3E3D8"/>
<stop offset="0.23" stop-color="white"/>
<stop offset="0.54" stop-color="#D4D1C5"/>
<stop offset="0.7" stop-color="#D7D4C8"/>
<stop offset="0.83" stop-color="#E0DED3"/>
<stop offset="0.87" stop-color="#E3E2D7"/>
<stop offset="1" stop-color="#CBC9B9"/>
</linearGradient>
<radialGradient id="paint33_radial_17_67" cx="0" cy="0" r="1" gradientUnits="userSpaceOnUse" gradientTransform="translate(5.97496 281.159) scale(11.7266 11.7267)">
<stop stop-color="white"/>
<stop offset="1"/>
</radialGradient>
<radialGradient id="paint34_radial_17_67" cx="0" cy="0" r="1" gradientUnits="userSpaceOnUse" gradientTransform="translate(-2.12691 290.504) rotate(-70.3461) scale(1.96909 4.06292)">
<stop stop-color="#F49587"/>
<stop offset="0.12" stop-color="#BD7368"/>
<stop offset="0.24" stop-color="#8B554D"/>
<stop offset="0.36" stop-color="#603B35"/>
<stop offset="0.48" stop-color="#3E2622"/>
<stop offset="0.61" stop-color="#231513"/>
<stop offset="0.74" stop-color="#0F0908"/>
<stop offset="0.86" stop-color="#040202"/>
<stop offset="1"/>
</radialGradient>
<linearGradient id="paint35_linear_17_67" x1="27.2178" y1="259.816" x2="8.96885" y2="278.188" gradientUnits="userSpaceOnUse">
<stop offset="0.04" stop-color="#D4D1D8"/>
<stop offset="0.42" stop-color="#E2E0E5"/>
<stop offset="1" stop-color="white"/>
</linearGradient>
<linearGradient id="paint36_linear_17_67" x1="2.41229" y1="277.496" x2="16.8081" y2="277.496" gradientUnits="userSpaceOnUse">
<stop stop-color="#E3E3D8"/>
<stop offset="0.23" stop-color="white"/>
<stop offset="0.54" stop-color="#D4D1C5"/>
<stop offset="0.7" stop-color="#D7D4C8"/>
<stop offset="0.83" stop-color="#E0DED3"/>
<stop offset="0.87" stop-color="#E3E2D7"/>
<stop offset="1" stop-color="#CBC9B9"/>
</linearGradient>
<radialGradient id="paint37_radial_17_67" cx="0" cy="0" r="1" gradientUnits="userSpaceOnUse" gradientTransform="translate(79.4994 305.068) scale(12.4142 5.15503)">
<stop offset="0.19" stop-color="#5F5C5D"/>
<stop offset="1" stop-color="white"/>
</radialGradient>
<linearGradient id="paint38_linear_17_67" x1="69.187" y1="298.347" x2="87.5476" y2="298.347" gradientUnits="userSpaceOnUse">
<stop stop-color="#E3E3D8"/>
<stop offset="0.23" stop-color="white"/>
<stop offset="0.54" stop-color="#D4D1C5"/>
<stop offset="0.7" stop-color="#D7D4C8"/>
<stop offset="0.83" stop-color="#E0DED3"/>
<stop offset="0.87" stop-color="#E3E2D7"/>
<stop offset="1" stop-color="#CBC9B9"/>
</linearGradient>
<radialGradient id="paint39_radial_17_67" cx="0" cy="0" r="1" gradientUnits="userSpaceOnUse" gradientTransform="translate(74.4137 297.565) scale(11.7266 11.7266)">
<stop stop-color="white"/>
<stop offset="1"/>
</radialGradient>
<radialGradient id="paint40_radial_17_67" cx="0" cy="0" r="1" gradientUnits="userSpaceOnUse" gradientTransform="translate(67.1832 307.559) rotate(-70.3461) scale(1.96909 4.06292)">
<stop stop-color="#F49587"/>
<stop offset="0.12" stop-color="#BD7368"/>
<stop offset="0.24" stop-color="#8B554D"/>
<stop offset="0.36" stop-color="#603B35"/>
<stop offset="0.48" stop-color="#3E2622"/>
<stop offset="0.61" stop-color="#231513"/>
<stop offset="0.74" stop-color="#0F0908"/>
<stop offset="0.86" stop-color="#040202"/>
<stop offset="1"/>
</radialGradient>
<linearGradient id="paint41_linear_17_67" x1="95.6668" y1="276.234" x2="77.4179" y2="294.594" gradientUnits="userSpaceOnUse">
<stop offset="0.04" stop-color="#D4D1D8"/>
<stop offset="0.42" stop-color="#E2E0E5"/>
<stop offset="1" stop-color="white"/>
</linearGradient>
<linearGradient id="paint42_linear_17_67" x1="70.8629" y1="293.902" x2="85.2476" y2="293.902" gradientUnits="userSpaceOnUse">
<stop stop-color="#E3E3D8"/>
<stop offset="0.23" stop-color="white"/>
<stop offset="0.54" stop-color="#D4D1C5"/>
<stop offset="0.7" stop-color="#D7D4C8"/>
<stop offset="0.83" stop-color="#E0DED3"/>
<stop offset="0.87" stop-color="#E3E2D7"/>
<stop offset="1" stop-color="#CBC9B9"/>
</linearGradient>
<radialGradient id="paint43_radial_17_67" cx="0" cy="0" r="1" gradientUnits="userSpaceOnUse" gradientTransform="translate(65.8353 303.507) rotate(-19.9831) scale(13.5453 4.92555)">
<stop offset="0.19" stop-color="#5F5C5D"/>
<stop offset="1" stop-color="white"/>
</radialGradient>
<linearGradient id="paint44_linear_17_67" x1="55.4161" y1="280.377" x2="59.6935" y2="287.793" gradientUnits="userSpaceOnUse">
<stop stop-color="#C211A1"/>
<stop offset="0.05" stop-color="#C718A5"/>
<stop offset="0.11" stop-color="#D72DB0"/>
<stop offset="0.2" stop-color="#EF4EC2"/>
<stop offset="0.24" stop-color="#FF63CE"/>
<stop offset="0.32" stop-color="#EB48BF"/>
<stop offset="0.45" stop-color="#C211A1"/>
<stop offset="0.54" stop-color="#A919AB"/>
<stop offset="0.64" stop-color="#AC1BAB"/>
<stop offset="0.73" stop-color="#B723AB"/>
<stop offset="0.82" stop-color="#C92FAA"/>
<stop offset="0.88" stop-color="#DC3DAA"/>
<stop offset="0.95" stop-color="#CD24A5"/>
<stop offset="1" stop-color="#C211A1"/>
</linearGradient>
<linearGradient id="paint45_linear_17_67" x1="45.9123" y1="286.687" x2="50.2232" y2="294.17" gradientUnits="userSpaceOnUse">
<stop stop-color="#E3E3D8"/>
<stop offset="0.18" stop-color="white"/>
<stop offset="0.54" stop-color="#D4D1C5"/>
<stop offset="0.7" stop-color="#D7D4C8"/>
<stop offset="0.83" stop-color="#E0DED3"/>
<stop offset="0.87" stop-color="#E3E2D7"/>
<stop offset="1" stop-color="#CBC9B9"/>
</linearGradient>
<radialGradient id="paint46_radial_17_67" cx="0" cy="0" r="1" gradientUnits="userSpaceOnUse" gradientTransform="translate(213.469 136.596) rotate(-116.565) scale(1.72712 5.78588)">
<stop stop-color="#F49587"/>
<stop offset="0.12" stop-color="#BD7368"/>
<stop offset="0.24" stop-color="#8B554D"/>
<stop offset="0.36" stop-color="#603B35"/>
<stop offset="0.48" stop-color="#3E2622"/>
<stop offset="0.61" stop-color="#231513"/>
<stop offset="0.74" stop-color="#0F0908"/>
<stop offset="0.86" stop-color="#040202"/>
<stop offset="1"/>
</radialGradient>
<radialGradient id="paint47_radial_17_67" cx="0" cy="0" r="1" gradientUnits="userSpaceOnUse" gradientTransform="translate(42.6068 290.652) scale(3.32812 3.32812)">
<stop stop-color="#F49587"/>
<stop offset="0.12" stop-color="#BD7368"/>
<stop offset="0.24" stop-color="#8B554D"/>
<stop offset="0.36" stop-color="#603B35"/>
<stop offset="0.48" stop-color="#3E2622"/>
<stop offset="0.61" stop-color="#231513"/>
<stop offset="0.74" stop-color="#0F0908"/>
<stop offset="0.86" stop-color="#040202"/>
<stop offset="1"/>
</radialGradient>
<radialGradient id="paint48_radial_17_67" cx="0" cy="0" r="1" gradientUnits="userSpaceOnUse" gradientTransform="translate(84.4114 285.378) rotate(30.4656) scale(12.4498 5.14206)">
<stop offset="0.19" stop-color="#5F5C5D"/>
<stop offset="1" stop-color="white"/>
</radialGradient>
<linearGradient id="paint49_linear_17_67" x1="78.1329" y1="271.61" x2="73.8555" y2="279.026" gradientUnits="userSpaceOnUse">
<stop stop-color="#E3E3D8"/>
<stop offset="0.18" stop-color="white"/>
<stop offset="0.54" stop-color="#D4D1C5"/>
<stop offset="0.7" stop-color="#D7D4C8"/>
<stop offset="0.83" stop-color="#E0DED3"/>
<stop offset="0.87" stop-color="#E3E2D7"/>
<stop offset="1" stop-color="#CBC9B9"/>
</linearGradient>
<linearGradient id="paint50_linear_17_67" x1="87.6371" y1="277.92" x2="83.315" y2="285.392" gradientUnits="userSpaceOnUse">
<stop stop-color="#C211A1"/>
<stop offset="0.05" stop-color="#C718A5"/>
<stop offset="0.11" stop-color="#D72DB0"/>
<stop offset="0.2" stop-color="#EF4EC2"/>
<stop offset="0.24" stop-color="#FF63CE"/>
<stop offset="0.32" stop-color="#EB48BF"/>
<stop offset="0.45" stop-color="#C211A1"/>
<stop offset="0.54" stop-color="#A919AB"/>
<stop offset="0.64" stop-color="#AC1BAB"/>
<stop offset="0.73" stop-color="#B723AB"/>
<stop offset="0.82" stop-color="#C92FAA"/>
<stop offset="0.88" stop-color="#DC3DAA"/>
<stop offset="0.95" stop-color="#CD24A5"/>
<stop offset="1" stop-color="#C211A1"/>
</linearGradient>
<radialGradient id="paint51_radial_17_67" cx="0" cy="0" r="1" gradientUnits="userSpaceOnUse" gradientTransform="translate(46.6614 188.708) rotate(-63.4351) scale(1.72713 5.78587)">
<stop stop-color="#F49587"/>
<stop offset="0.12" stop-color="#BD7368"/>
<stop offset="0.24" stop-color="#8B554D"/>
<stop offset="0.36" stop-color="#603B35"/>
<stop offset="0.48" stop-color="#3E2622"/>
<stop offset="0.61" stop-color="#231513"/>
<stop offset="0.74" stop-color="#0F0908"/>
<stop offset="0.86" stop-color="#040202"/>
<stop offset="1"/>
</radialGradient>
<radialGradient id="paint52_radial_17_67" cx="0" cy="0" r="1" gradientUnits="userSpaceOnUse" gradientTransform="translate(90.9318 281.885) rotate(180) scale(3.32814 3.32812)">
<stop stop-color="#F49587"/>
<stop offset="0.12" stop-color="#BD7368"/>
<stop offset="0.24" stop-color="#8B554D"/>
<stop offset="0.36" stop-color="#603B35"/>
<stop offset="0.48" stop-color="#3E2622"/>
<stop offset="0.61" stop-color="#231513"/>
<stop offset="0.74" stop-color="#0F0908"/>
<stop offset="0.86" stop-color="#040202"/>
<stop offset="1"/>
</radialGradient>
<linearGradient id="paint53_linear_17_67" x1="101.15" y1="107.27" x2="159.839" y2="79.6282" gradientUnits="userSpaceOnUse">
<stop stop-color="#43E8E1"/>
<stop offset="0.09" stop-color="#36BDB7"/>
<stop offset="0.22" stop-color="#288B87"/>
<stop offset="0.34" stop-color="#1C605D"/>
<stop offset="0.47" stop-color="#123E3C"/>
<stop offset="0.6" stop-color="#0A2321"/>
<stop offset="0.73" stop-color="#040F0F"/>
<stop offset="0.86" stop-color="#010404"/>
<stop offset="1"/>
</linearGradient>
<radialGradient id="paint54_radial_17_67" cx="0" cy="0" r="1" gradientUnits="userSpaceOnUse" gradientTransform="translate(121.253 102.099) scale(47.3421 47.3421)">
<stop stop-color="#2AF6FF"/>
<stop offset="1" stop-color="#138BBD"/>
</radialGradient>
<linearGradient id="paint55_linear_17_67" x1="113.145" y1="144.973" x2="110.118" y2="101.786" gradientUnits="userSpaceOnUse">
<stop offset="0.04" stop-color="#6B24D6"/>
<stop offset="0.29" stop-color="#7733DC"/>
<stop offset="0.79" stop-color="#975CED"/>
<stop offset="1" stop-color="#A56EF4"/>
</linearGradient>
<radialGradient id="paint56_radial_17_67" cx="0" cy="0" r="1" gradientUnits="userSpaceOnUse" gradientTransform="translate(114.902 98.9351) rotate(13.53) scale(20.3344 13.4414)">
<stop offset="0.19" stop-color="#5F5C5D"/>
<stop offset="1" stop-color="white"/>
</radialGradient>
<linearGradient id="paint57_linear_17_67" x1="96.326" y1="115.702" x2="108.846" y2="115.702" gradientUnits="userSpaceOnUse">
<stop stop-color="white"/>
<stop offset="1" stop-color="#BCBEC0"/>
</linearGradient>
<radialGradient id="paint58_radial_17_67" cx="0" cy="0" r="1" gradientUnits="userSpaceOnUse" gradientTransform="translate(112.498 105.728) scale(35.9952 35.9952)">
<stop stop-color="white"/>
<stop offset="0.73" stop-color="#D4D1D8"/>
<stop offset="0.98" stop-color="#C2C0CC"/>
</radialGradient>
<radialGradient id="paint59_radial_17_67" cx="0" cy="0" r="1" gradientUnits="userSpaceOnUse" gradientTransform="translate(128.703 114.942) scale(42.3052 42.3052)">
<stop stop-color="white"/>
<stop offset="0.73" stop-color="#D4D1D8"/>
<stop offset="0.98" stop-color="#C2C0CC"/>
</radialGradient>
<radialGradient id="paint60_radial_17_67" cx="0" cy="0" r="1" gradientUnits="userSpaceOnUse" gradientTransform="translate(114.944 93.5996) scale(93.3887 93.3887)">
<stop offset="0.38" stop-color="white"/>
<stop offset="0.46" stop-color="#F9F8FB"/>
<stop offset="0.58" stop-color="#E8E3F1"/>
<stop offset="0.73" stop-color="#CBC2E1"/>
<stop offset="0.89" stop-color="#A593CA"/>
<stop offset="1" stop-color="#8770B8"/>
</radialGradient>
<linearGradient id="paint61_linear_17_67" x1="88.9888" y1="127.674" x2="89.7259" y2="90.6736" gradientUnits="userSpaceOnUse">
<stop stop-color="white"/>
<stop offset="1" stop-color="#BCBEC0"/>
</linearGradient>
<radialGradient id="paint62_radial_17_67" cx="0" cy="0" r="1" gradientUnits="userSpaceOnUse" gradientTransform="translate(114.944 93.5997) scale(93.3887 93.3887)">
<stop offset="0.38" stop-color="white"/>
<stop offset="0.46" stop-color="#F9F8FB"/>
<stop offset="0.58" stop-color="#E8E3F1"/>
<stop offset="0.73" stop-color="#CBC2E1"/>
<stop offset="0.89" stop-color="#A593CA"/>
<stop offset="1" stop-color="#8770B8"/>
</radialGradient>
<radialGradient id="paint63_radial_17_67" cx="0" cy="0" r="1" gradientUnits="userSpaceOnUse" gradientTransform="translate(114.63 101.149) scale(42.9307 42.9307)">
<stop stop-color="#2AF6FF"/>
<stop offset="1" stop-color="#138BBD"/>
</radialGradient>
<linearGradient id="paint64_linear_17_67" x1="111.727" y1="123.452" x2="139.189" y2="123.452" gradientUnits="userSpaceOnUse">
<stop stop-color="white"/>
<stop offset="1" stop-color="#BCBEC0"/>
</linearGradient>
<radialGradient id="paint65_radial_17_67" cx="0" cy="0" r="1" gradientUnits="userSpaceOnUse" gradientTransform="translate(126.838 105.438) scale(58.488 58.488)">
<stop stop-color="white"/>
<stop offset="0.73" stop-color="#D4D1D8"/>
<stop offset="0.98" stop-color="#C2C0CC"/>
</radialGradient>
<radialGradient id="paint66_radial_17_67" cx="0" cy="0" r="1" gradientUnits="userSpaceOnUse" gradientTransform="translate(110.164 93.6108) scale(93.0426 93.0425)">
<stop stop-color="white"/>
<stop offset="0.73" stop-color="#D4D1D8"/>
<stop offset="0.98" stop-color="#C2C0CC"/>
</radialGradient>
<radialGradient id="paint67_radial_17_67" cx="0" cy="0" r="1" gradientUnits="userSpaceOnUse" gradientTransform="translate(112.375 104.165) scale(8.65537 8.65536)">
<stop stop-color="white"/>
<stop offset="1"/>
</radialGradient>
<radialGradient id="paint68_radial_17_67" cx="0" cy="0" r="1" gradientUnits="userSpaceOnUse" gradientTransform="translate(110.51 70.7384) scale(25.7874 25.7874)">
<stop offset="0.03" stop-color="#FEDFCB"/>
<stop offset="1" stop-color="#F9B69E"/>
</radialGradient>
<linearGradient id="paint69_linear_17_67" x1="123.274" y1="90.5061" x2="112.441" y2="28.7123" gradientUnits="userSpaceOnUse">
<stop offset="0.04" stop-color="#231A15"/>
<stop offset="0.16" stop-color="#1D1513"/>
<stop offset="0.4" stop-color="#2C231E"/>
<stop offset="0.586458" stop-color="#4B3B30"/>
<stop offset="1" stop-color="#27221E"/>
</linearGradient>
<linearGradient id="paint70_linear_17_67" x1="117.3" y1="99.0386" x2="107.483" y2="89.3446" gradientUnits="userSpaceOnUse">
<stop stop-color="white"/>
<stop offset="1" stop-color="#DBAC9B"/>
</linearGradient>
<linearGradient id="paint71_linear_17_67" x1="97.3652" y1="62.5855" x2="107.975" y2="72.6369" gradientUnits="userSpaceOnUse">
<stop stop-color="white"/>
<stop offset="1"/>
</linearGradient>
<linearGradient id="paint72_linear_17_67" x1="127.407" y1="57.6268" x2="133.84" y2="68.5493" gradientUnits="userSpaceOnUse">
<stop stop-color="white"/>
<stop offset="1" stop-color="#BCBEC0"/>
</linearGradient>
<linearGradient id="paint73_linear_17_67" x1="129.642" y1="73.5639" x2="133.986" y2="71.5201" gradientUnits="userSpaceOnUse">
<stop stop-color="white"/>
<stop offset="1" stop-color="#BCBEC0"/>
</linearGradient>
<linearGradient id="paint74_linear_17_67" x1="111.101" y1="73.1506" x2="106.969" y2="49.5745" gradientUnits="userSpaceOnUse">
<stop stop-color="white"/>
<stop offset="1" stop-color="#BCBEC0"/>
</linearGradient>
<linearGradient id="paint75_linear_17_67" x1="180.267" y1="164.239" x2="212.878" y2="142.237" gradientUnits="userSpaceOnUse">
<stop stop-color="#C211A1"/>
<stop offset="0.01" stop-color="#BD119D"/>
<stop offset="0.15" stop-color="#8B0C73"/>
<stop offset="0.29" stop-color="#600850"/>
<stop offset="0.42" stop-color="#3E0533"/>
<stop offset="0.56" stop-color="#23031D"/>
<stop offset="0.7" stop-color="#0F010D"/>
<stop offset="0.85" stop-color="#040003"/>
<stop offset="1"/>
</linearGradient>
<linearGradient id="paint76_linear_17_67" x1="192.25" y1="168.248" x2="226.079" y2="158.118" gradientUnits="userSpaceOnUse">
<stop offset="0.04" stop-color="#08A652"/>
<stop offset="0.24" stop-color="#13BF64"/>
<stop offset="0.65" stop-color="#19E076"/>
<stop offset="1" stop-color="#A4FFCF"/>
</linearGradient>
<linearGradient id="paint77_linear_17_67" x1="140.72" y1="172.458" x2="218.216" y2="155.092" gradientUnits="userSpaceOnUse">
<stop offset="0.04" stop-color="#08A652"/>
<stop offset="0.24" stop-color="#00A34C"/>
<stop offset="0.65" stop-color="#15FF82"/>
<stop offset="1" stop-color="#99FFC9"/>
</linearGradient>
<linearGradient id="paint78_linear_17_67" x1="194.953" y1="127.316" x2="182.824" y2="150.435" gradientUnits="userSpaceOnUse">
<stop offset="0.04" stop-color="#08A652"/>
<stop offset="0.24" stop-color="#B5FFD8"/>
<stop offset="0.65" stop-color="#C8FFE2"/>
<stop offset="1" stop-color="#08A652"/>
</linearGradient>
<linearGradient id="paint79_linear_17_67" x1="180.267" y1="131.594" x2="212.878" y2="109.593" gradientUnits="userSpaceOnUse">
<stop stop-color="#C211A1"/>
<stop offset="0.01" stop-color="#BD119D"/>
<stop offset="0.15" stop-color="#8B0C73"/>
<stop offset="0.29" stop-color="#600850"/>
<stop offset="0.42" stop-color="#3E0533"/>
<stop offset="0.56" stop-color="#23031D"/>
<stop offset="0.7" stop-color="#0F010D"/>
<stop offset="0.85" stop-color="#040003"/>
<stop offset="1"/>
</linearGradient>
<linearGradient id="paint80_linear_17_67" x1="192.25" y1="135.603" x2="226.079" y2="125.474" gradientUnits="userSpaceOnUse">
<stop offset="0.04" stop-color="#08A652"/>
<stop offset="0.24" stop-color="#13BF64"/>
<stop offset="0.65" stop-color="#19E076"/>
<stop offset="1" stop-color="#A4FFCF"/>
</linearGradient>
<linearGradient id="paint81_linear_17_67" x1="140.72" y1="139.825" x2="218.216" y2="122.447" gradientUnits="userSpaceOnUse">
<stop offset="0.04" stop-color="#08A651"/>
<stop offset="0.24" stop-color="#08A652"/>
<stop offset="0.65" stop-color="#53FFA4"/>
<stop offset="1" stop-color="#53FFA4"/>
</linearGradient>
<linearGradient id="paint82_linear_17_67" x1="194.953" y1="94.6718" x2="182.824" y2="117.801" gradientUnits="userSpaceOnUse">
<stop offset="0.04" stop-color="#08A652"/>
<stop offset="0.24" stop-color="#1BD070"/>
<stop offset="0.65" stop-color="#21E07E"/>
<stop offset="1" stop-color="#09BA5C"/>
</linearGradient>
<linearGradient id="paint83_linear_17_67" x1="180.267" y1="98.1786" x2="212.878" y2="76.1773" gradientUnits="userSpaceOnUse">
<stop stop-color="#C211A1"/>
<stop offset="0.01" stop-color="#BD119D"/>
<stop offset="0.15" stop-color="#8B0C73"/>
<stop offset="0.29" stop-color="#600850"/>
<stop offset="0.42" stop-color="#3E0533"/>
<stop offset="0.56" stop-color="#23031D"/>
<stop offset="0.7" stop-color="#0F010D"/>
<stop offset="0.85" stop-color="#040003"/>
<stop offset="1"/>
</linearGradient>
<linearGradient id="paint84_linear_17_67" x1="192.25" y1="102.188" x2="226.079" y2="92.0585" gradientUnits="userSpaceOnUse">
<stop offset="0.04" stop-color="#08A652"/>
<stop offset="0.24" stop-color="#13BF64"/>
<stop offset="0.65" stop-color="#19E076"/>
<stop offset="1" stop-color="#A4FFCF"/>
</linearGradient>
<linearGradient id="paint85_linear_17_67" x1="140.72" y1="106.398" x2="218.216" y2="89.032" gradientUnits="userSpaceOnUse">
<stop offset="0.04" stop-color="#08A652"/>
<stop offset="0.24" stop-color="#00A34C"/>
<stop offset="0.65" stop-color="#15FF82"/>
<stop offset="1" stop-color="#99FFC9"/>
</linearGradient>
<linearGradient id="paint86_linear_17_67" x1="194.953" y1="61.2566" x2="182.824" y2="84.3748" gradientUnits="userSpaceOnUse">
<stop offset="0.04" stop-color="#08A652"/>
<stop offset="0.24" stop-color="#B5FFD8"/>
<stop offset="0.65" stop-color="#C8FFE2"/>
<stop offset="1" stop-color="#08A652"/>
</linearGradient>
<radialGradient id="paint87_radial_17_67" cx="0" cy="0" r="1" gradientUnits="userSpaceOnUse" gradientTransform="translate(153.217 112.011) rotate(-7.69604) scale(12.376 22.0797)">
<stop stop-color="#271273"/>
<stop offset="0.08" stop-color="#210F60"/>
<stop offset="0.26" stop-color="#150A3D"/>
<stop offset="0.44" stop-color="#0C0522"/>
<stop offset="0.62" stop-color="#05020F"/>
<stop offset="0.81" stop-color="#010104"/>
<stop offset="1"/>
</radialGradient>
</defs>
</svg>
